<svg width="1440" height="691" viewBox="0 0 1440 691" fill="none" xmlns="http://www.w3.org/2000/svg">
<path d="M134.113 460.795L133.985 460.872L67.4966 422.476L67.6166 422.407L134.113 460.795Z" stroke="#2B3E47" stroke-width="1.5" stroke-linecap="round" stroke-linejoin="round"/>
<path d="M67.6165 422.407L67.4965 422.476L1 384.089L1.12001 384.02L67.6165 422.407Z" stroke="#2B3E47" stroke-width="1.5" stroke-linecap="round" stroke-linejoin="round"/>
<path d="M333.474 192.134L399.97 230.53L333.474 268.918L266.977 230.53L333.474 192.134Z" stroke="#2B3E47" stroke-width="1.5" stroke-linecap="round" stroke-linejoin="round"/>
<path d="M266.977 230.53L333.474 268.918L266.977 307.305L200.481 268.918L266.977 230.53Z" stroke="#2B3E47" stroke-width="1.5" stroke-linecap="round" stroke-linejoin="round"/>
<path d="M266.977 307.305L200.481 345.701L133.993 307.305L200.481 268.918L266.977 307.305Z" stroke="#2B3E47" stroke-width="1.5" stroke-linecap="round" stroke-linejoin="round"/>
<path d="M466.458 115.351L532.955 153.747L466.458 192.134L399.97 153.747L466.458 115.351Z" stroke="#2B3E47" stroke-width="1.5" stroke-linecap="round" stroke-linejoin="round"/>
<path d="M399.97 153.747L466.458 192.134L399.97 230.53L333.474 192.134L399.97 153.747Z" stroke="#2B3E47" stroke-width="1.5" stroke-linecap="round" stroke-linejoin="round"/>
<path d="M200.481 115.351L133.984 76.9635L200.481 38.576L266.977 76.9635L200.481 115.351Z" stroke="#2B3E47" stroke-width="1.5" stroke-linecap="round" stroke-linejoin="round"/>
<path d="M266.977 76.9634L200.481 38.576L266.977 0.179993L333.474 38.576L266.977 76.9634Z" stroke="#2B3E47" stroke-width="1.5" stroke-linecap="round" stroke-linejoin="round"/>
<path d="M333.474 38.576L399.97 0.179993L466.458 38.576L399.97 76.9634L333.474 38.576Z" stroke="#2B3E47" stroke-width="1.5" stroke-linecap="round" stroke-linejoin="round"/>
<path d="M466.561 37.976L533.332 0.0686035L599.554 38.9361L532.783 76.8435L466.561 37.976Z" stroke="#2B3E47" stroke-width="1.5" stroke-linecap="round" stroke-linejoin="round"/>
<path d="M400.065 76.8434L466.561 38.456L533.058 76.8434L466.561 115.239L400.065 76.8434Z" stroke="#2B3E47" stroke-width="1.5" stroke-linecap="round" stroke-linejoin="round"/>
<path d="M533.16 76.2519L599.931 38.3445L666.145 77.2035L599.374 115.119L533.16 76.2519Z" stroke="#2B3E47" stroke-width="1.5" stroke-linecap="round" stroke-linejoin="round"/>
<path d="M466.664 115.119L533.161 76.732L599.657 115.119L533.161 153.507L466.664 115.119Z" stroke="#2B3E47" stroke-width="1.5" stroke-linecap="round" stroke-linejoin="round"/>
<path d="M399.97 76.9634L466.458 115.351L399.97 153.747L333.474 115.351L399.97 76.9634Z" stroke="#2B3E47" stroke-width="1.5" stroke-linecap="round" stroke-linejoin="round"/>
<path d="M333.474 115.351L399.97 153.747L333.474 192.134L266.977 153.747L333.474 115.351Z" stroke="#2B3E47" stroke-width="1.5" stroke-linecap="round" stroke-linejoin="round"/>
<path d="M133.985 153.747L67.4966 115.351L133.985 76.9634L200.481 115.351L133.985 153.747Z" stroke="#2B3E47" stroke-width="1.5" stroke-linecap="round" stroke-linejoin="round"/>
<path d="M67.4965 192.134L1 153.747L67.4965 115.351L133.984 153.747L67.4965 192.134Z" stroke="#2B3E47" stroke-width="1.5" stroke-linecap="round" stroke-linejoin="round"/>
<path d="M333.474 38.576L399.97 76.9635L333.474 115.351L266.977 76.9635L333.474 38.576Z" stroke="#2B3E47" stroke-width="1.5" stroke-linecap="round" stroke-linejoin="round"/>
<path d="M266.977 76.9634L333.474 115.351L266.977 153.747L200.481 115.351L266.977 76.9634Z" stroke="#2B3E47" stroke-width="1.5" stroke-linecap="round" stroke-linejoin="round"/>
<path d="M266.977 153.747L200.481 192.134L133.984 153.747L200.481 115.351L266.977 153.747Z" stroke="#2B3E47" stroke-width="1.5" stroke-linecap="round" stroke-linejoin="round"/>
<path d="M67.4965 115.351L1 76.9635L67.4965 38.576L133.984 76.9635L67.4965 115.351Z" stroke="#2B3E47" stroke-width="1.5" stroke-linecap="round" stroke-linejoin="round"/>
<path d="M133.985 76.9634L67.4966 38.576L133.985 0.179993L200.481 38.576L133.985 76.9634Z" stroke="#2B3E47" stroke-width="1.5" stroke-linecap="round" stroke-linejoin="round"/>
<path d="M133.985 153.747L200.481 192.134L133.993 230.53L67.4966 192.134L133.985 153.747Z" stroke="#2B3E47" stroke-width="1.5" stroke-linecap="round" stroke-linejoin="round"/>
<path d="M266.977 153.747L333.474 192.134L266.977 230.53L200.481 192.134L266.977 153.747Z" stroke="#2B3E47" stroke-width="1.5" stroke-linecap="round" stroke-linejoin="round"/>
<path d="M799.061 76.8948L799.421 77.1091L799.301 77.1777L798.932 76.9634L799.061 76.8948Z" stroke="#2B3E47" stroke-width="1.5" stroke-linecap="round" stroke-linejoin="round"/>
<path d="M798.932 76.9634L799.301 77.1778L732.804 115.565L732.436 115.351L798.932 76.9634Z" stroke="#2B3E47" stroke-width="1.5" stroke-linecap="round" stroke-linejoin="round"/>
<path d="M200.85 422.69L134.482 461.009L134.113 460.795L200.481 422.476L200.85 422.69Z" stroke="#2B3E47" stroke-width="1.5" stroke-linecap="round" stroke-linejoin="round"/>
<path d="M200.79 422.656L267.286 461.052L200.91 499.371L134.422 460.975L200.79 422.656Z" stroke="#2B3E47" stroke-width="1.5" stroke-linecap="round" stroke-linejoin="round"/>
<path d="M732.436 115.351L732.804 115.565L666.316 153.961L665.948 153.747L732.436 115.351Z" stroke="#2B3E47" stroke-width="1.5" stroke-linecap="round" stroke-linejoin="round"/>
<path d="M532.955 230.53L533.323 230.736L466.827 269.132L466.458 268.918L532.955 230.53Z" stroke="#2B3E47" stroke-width="1.5" stroke-linecap="round" stroke-linejoin="round"/>
<path d="M466.458 192.134L532.955 230.53L466.458 268.918L399.97 230.53L466.458 192.134Z" stroke="#2B3E47" stroke-width="1.5" stroke-linecap="round" stroke-linejoin="round"/>
<path d="M466.458 269.132L532.955 307.52L466.458 345.907L399.97 307.52L466.458 269.132Z" stroke="#2B3E47" stroke-width="1.5" stroke-linecap="round" stroke-linejoin="round"/>
<path d="M599.451 38.576L665.948 0.179993L732.436 38.576L665.948 76.9634L599.451 38.576Z" stroke="#2B3E47" stroke-width="1.5" stroke-linecap="round" stroke-linejoin="round"/>
<path d="M665.948 76.9634L732.436 115.351L665.948 153.747L599.451 115.351L665.948 76.9634Z" stroke="#2B3E47" stroke-width="1.5" stroke-linecap="round" stroke-linejoin="round"/>
<path d="M732.436 38.576L798.932 76.9635L732.436 115.351L665.948 76.9635L732.436 38.576Z" stroke="#2B3E47" stroke-width="1.5" stroke-linecap="round" stroke-linejoin="round"/>
<path d="M133.993 307.305L200.481 345.701L133.985 384.089L67.4966 345.701L133.993 307.305Z" stroke="#2B3E47" stroke-width="1.5" stroke-linecap="round" stroke-linejoin="round"/>
<path d="M798.564 0L865.06 38.3874L798.564 76.7834L732.076 38.3874L798.564 0Z" stroke="#2B3E47" stroke-width="1.5" stroke-linecap="round" stroke-linejoin="round"/>
<path d="M133.984 384.089L67.6164 422.407L1.11987 384.02L67.4963 345.701L133.984 384.089Z" stroke="#2B3E47" stroke-width="1.5" stroke-linecap="round" stroke-linejoin="round"/>
<path d="M67.5564 422.622L134.053 461.009L67.6764 499.328L1.17993 460.941L67.5564 422.622Z" stroke="#2B3E47" stroke-width="1.5" stroke-linecap="round" stroke-linejoin="round"/>
<path d="M1107.03 574.157L1173.53 612.553L1107.03 650.94L1040.55 612.553L1107.03 574.157Z" stroke="#2B3E47" stroke-width="1.5" stroke-linecap="round" stroke-linejoin="round"/>
<path d="M1040.55 612.553L1107.03 650.94L1040.55 689.336L974.05 650.94L1040.55 612.553Z" stroke="#2B3E47" stroke-width="1.5" stroke-linecap="round" stroke-linejoin="round"/>
<path d="M1173.53 381.731L1240.3 343.815L1306.52 382.683L1239.75 420.599L1173.53 381.731Z" stroke="#2B3E47" stroke-width="1.5" stroke-linecap="round" stroke-linejoin="round"/>
<path d="M841.057 650.94L774.569 689.336L708.073 650.94L774.569 612.553L841.057 650.94Z" stroke="#2B3E47" stroke-width="1.5" stroke-linecap="round" stroke-linejoin="round"/>
<path d="M1240.03 497.382L1306.52 535.769L1240.03 574.157L1173.53 535.769L1240.03 497.382Z" stroke="#2B3E47" stroke-width="1.5" stroke-linecap="round" stroke-linejoin="round"/>
<path d="M1173.53 535.769L1240.03 574.157L1173.53 612.553L1107.03 574.157L1173.53 535.769Z" stroke="#2B3E47" stroke-width="1.5" stroke-linecap="round" stroke-linejoin="round"/>
<path d="M841.057 420.599L774.569 382.211L841.057 343.815L907.554 382.211L841.057 420.599Z" stroke="#2B3E47" stroke-width="1.5" stroke-linecap="round" stroke-linejoin="round"/>
<path d="M1107.03 343.815L1173.53 305.428L1240.03 343.815L1173.53 382.211L1107.03 343.815Z" stroke="#2B3E47" stroke-width="1.5" stroke-linecap="round" stroke-linejoin="round"/>
<path d="M907.554 382.211L841.057 343.815L907.554 305.428L974.05 343.815L907.554 382.211Z" stroke="#2B3E47" stroke-width="1.5" stroke-linecap="round" stroke-linejoin="round"/>
<path d="M774.569 458.986L708.073 420.599L774.569 382.211L841.057 420.599L774.569 458.986Z" stroke="#2B3E47" stroke-width="1.5" stroke-linecap="round" stroke-linejoin="round"/>
<path d="M974.05 420.599L907.554 382.211L974.05 343.815L1040.55 382.211L974.05 420.599Z" stroke="#2B3E47" stroke-width="1.5" stroke-linecap="round" stroke-linejoin="round"/>
<path d="M1040.55 382.211L1107.03 343.815L1173.53 382.211L1107.03 420.599L1040.55 382.211Z" stroke="#2B3E47" stroke-width="1.5" stroke-linecap="round" stroke-linejoin="round"/>
<path d="M974.05 497.382L907.554 458.986L974.05 420.599L1040.55 458.986L974.05 497.382Z" stroke="#2B3E47" stroke-width="1.5" stroke-linecap="round" stroke-linejoin="round"/>
<path d="M1040.55 458.986L974.05 420.599L1040.55 382.211L1107.03 420.599L1040.55 458.986Z" stroke="#2B3E47" stroke-width="1.5" stroke-linecap="round" stroke-linejoin="round"/>
<path d="M1107.03 420.599L1173.53 382.211L1240.03 420.599L1173.53 458.986L1107.03 420.599Z" stroke="#2B3E47" stroke-width="1.5" stroke-linecap="round" stroke-linejoin="round"/>
<path d="M1240.13 419.999L1306.9 382.091L1373.11 420.959L1306.34 458.866L1240.13 419.999Z" stroke="#2B3E47" stroke-width="1.5" stroke-linecap="round" stroke-linejoin="round"/>
<path d="M1173.63 458.875L1240.13 420.479L1306.63 458.875L1240.13 497.262L1173.63 458.875Z" stroke="#2B3E47" stroke-width="1.5" stroke-linecap="round" stroke-linejoin="round"/>
<path d="M1306.73 458.275L1373.49 420.367L1439.71 459.235L1372.94 497.142L1306.73 458.275Z" stroke="#2B3E47" stroke-width="1.5" stroke-linecap="round" stroke-linejoin="round"/>
<path d="M1240.23 497.142L1306.72 458.755L1373.22 497.142L1306.72 535.538L1240.23 497.142Z" stroke="#2B3E47" stroke-width="1.5" stroke-linecap="round" stroke-linejoin="round"/>
<path d="M1173.53 458.986L1240.03 497.382L1173.53 535.769L1107.03 497.382L1173.53 458.986Z" stroke="#2B3E47" stroke-width="1.5" stroke-linecap="round" stroke-linejoin="round"/>
<path d="M1107.03 497.382L1173.53 535.769L1107.03 574.157L1040.55 535.769L1107.03 497.382Z" stroke="#2B3E47" stroke-width="1.5" stroke-linecap="round" stroke-linejoin="round"/>
<path d="M907.554 535.769L841.057 497.382L907.554 458.986L974.05 497.382L907.554 535.769Z" stroke="#2B3E47" stroke-width="1.5" stroke-linecap="round" stroke-linejoin="round"/>
<path d="M841.057 574.157L774.569 535.769L841.057 497.382L907.554 535.769L841.057 574.157Z" stroke="#2B3E47" stroke-width="1.5" stroke-linecap="round" stroke-linejoin="round"/>
<path d="M1107.03 420.599L1173.53 458.986L1107.03 497.382L1040.55 458.986L1107.03 420.599Z" stroke="#2B3E47" stroke-width="1.5" stroke-linecap="round" stroke-linejoin="round"/>
<path d="M1040.55 458.986L1107.03 497.382L1040.55 535.769L974.05 497.382L1040.55 458.986Z" stroke="#2B3E47" stroke-width="1.5" stroke-linecap="round" stroke-linejoin="round"/>
<path d="M1040.55 535.769L974.05 574.157L907.554 535.769L974.05 497.382L1040.55 535.769Z" stroke="#2B3E47" stroke-width="1.5" stroke-linecap="round" stroke-linejoin="round"/>
<path d="M774.569 535.769L708.073 497.382L774.569 458.986L841.057 497.382L774.569 535.769Z" stroke="#2B3E47" stroke-width="1.5" stroke-linecap="round" stroke-linejoin="round"/>
<path d="M841.057 497.382L774.569 458.986L841.057 420.599L907.554 458.986L841.057 497.382Z" stroke="#2B3E47" stroke-width="1.5" stroke-linecap="round" stroke-linejoin="round"/>
<path d="M907.554 458.986L841.057 420.599L907.554 382.211L974.05 420.599L907.554 458.986Z" stroke="#2B3E47" stroke-width="1.5" stroke-linecap="round" stroke-linejoin="round"/>
<path d="M1040.55 382.211L974.05 343.815L1040.55 305.428L1107.03 343.815L1040.55 382.211Z" stroke="#2B3E47" stroke-width="1.5" stroke-linecap="round" stroke-linejoin="round"/>
<path d="M907.554 535.769L974.05 574.157L907.554 612.553L841.057 574.157L907.554 535.769Z" stroke="#2B3E47" stroke-width="1.5" stroke-linecap="round" stroke-linejoin="round"/>
<path d="M1040.55 535.769L1107.03 574.157L1040.55 612.553L974.05 574.157L1040.55 535.769Z" stroke="#2B3E47" stroke-width="1.5" stroke-linecap="round" stroke-linejoin="round"/>
<path d="M841.057 574.157L774.569 612.553L708.073 574.157L774.569 535.769L841.057 574.157Z" stroke="#2B3E47" stroke-width="1.5" stroke-linecap="round" stroke-linejoin="round"/>
<path d="M1306.52 612.553L1306.89 612.759L1240.4 651.155L1240.03 650.94L1306.52 612.553Z" stroke="#2B3E47" stroke-width="1.5" stroke-linecap="round" stroke-linejoin="round"/>
<path d="M1240.03 574.157L1306.52 612.553L1240.03 650.94L1173.53 612.553L1240.03 574.157Z" stroke="#2B3E47" stroke-width="1.5" stroke-linecap="round" stroke-linejoin="round"/>
<path d="M1306.52 382.211L1373.01 343.815L1439.51 382.211L1373.01 420.599L1306.52 382.211Z" stroke="#2B3E47" stroke-width="1.5" stroke-linecap="round" stroke-linejoin="round"/>
<path d="M1240.03 343.815L1306.52 305.428L1373.01 343.815L1306.52 382.211L1240.03 343.815Z" stroke="#2B3E47" stroke-width="1.5" stroke-linecap="round" stroke-linejoin="round"/>
</svg>
