<?xml version="1.0" standalone="no"?>
<!DOCTYPE svg PUBLIC "-//W3C//DTD SVG 1.1//EN" "http://www.w3.org/Graphics/SVG/1.1/DTD/svg11.dtd" >
<svg>
<metadata>
Created by FontForge 20090914 at Wed May  9 11:34:12 2012
 By www-data
Copyright (c) 2011, Pablo Impallari (www.impallari.com|impallari@gmail.com),Copyright (c) 2011, Igino Marini. (www.ikern.com|mail@iginomarini.com),Copyright (c) 2011, Brenda Gallo. (gbrenda1987@gmail.com),with Reserved Font Name Quattrocento Sans.
</metadata>
<defs>
<font id="QuattrocentoSans" horiz-adv-x="642" >
  <font-face 
    font-family="Quattrocento Sans"
    font-weight="400"
    font-stretch="normal"
    units-per-em="1000"
    panose-1="2 11 5 2 5 0 0 2 0 3"
    ascent="800"
    descent="-200"
    x-height="460"
    cap-height="660"
    bbox="-43.001 -260 1143 848"
    underline-thickness="48"
    underline-position="-47"
    unicode-range="U+000D-U+FB02"
  />
<missing-glyph horiz-adv-x="266" 
d="M65 243c0 18 6.50098 34.001 19.501 48.001s29.167 21 48.5 21c8.66699 0 17.167 -1.83301 25.5 -5.5s15.666 -8.83398 21.999 -15.501s11.333 -14.167 15 -22.5s5.5 -16.833 5.5 -25.5c0 -19.333 -7 -35.333 -21 -48s-29.667 -19 -47 -19
c-19.333 0 -35.5 6.33301 -48.5 19s-19.5 28.667 -19.5 48z" />
    <glyph glyph-name="fi" unicode="fi" horiz-adv-x="523" 
d="M102 413h-76.998v37l77 9c0 64.667 4.33301 115.5 13 152.5s20.334 65.167 35.001 84.5c15.333 21.333 31.833 34.833 49.5 40.5s35.167 8.5 52.5 8.5c33.333 0 63.333 -5.5 90 -16.5s49 -22.167 67 -33.5l-34 -60c-30 18.667 -55.333 33 -76 43s-40.667 15 -60 15
c-14.667 0 -26.334 -3.16699 -35.001 -9.5s-15.334 -16.5 -20.001 -30.5s-7.83398 -32 -9.50098 -54s-2.5 -48.333 -2.5 -79v-60h108v-47h-108v-413h-70v413zM447.002 0h-70v460h70v-460z" />
    <glyph glyph-name="fl" unicode="fl" horiz-adv-x="537" 
d="M102 413l-77 0.000976562v37l77 9c0 36 1.83301 67 5.5 93s8.5 48.333 14.5 67s12.5 34.167 19.5 46.5s14.167 22.5 21.5 30.5c16.667 19.333 33.667 32.333 51 39s33.666 10 48.999 10c6.66699 0 15.334 -0.166992 26.001 -0.5s22.834 -1.33301 36.501 -3
s28.5 -4.33398 44.5 -8.00098s32 -8.5 48 -14.5l35 21v-740h-70v665c-18.667 9.33301 -40.334 16.333 -65.001 21s-49.334 7 -74.001 7c-10.667 0 -20.5 -3 -29.5 -9s-16.667 -15.667 -23 -29s-11.166 -31 -14.499 -53s-5 -49.333 -5 -82v-60h108v-47h-108v-413h-70v413z
" />
    <glyph glyph-name=".notdef" horiz-adv-x="266" 
d="M65 243c0 18 6.50098 34.001 19.501 48.001s29.167 21 48.5 21c8.66699 0 17.167 -1.83301 25.5 -5.5s15.666 -8.83398 21.999 -15.501s11.333 -14.167 15 -22.5s5.5 -16.833 5.5 -25.5c0 -19.333 -7 -35.333 -21 -48s-29.667 -19 -47 -19
c-19.333 0 -35.5 6.33301 -48.5 19s-19.5 28.667 -19.5 48z" />
    <glyph glyph-name="NULL" horiz-adv-x="0" 
 />
    <glyph glyph-name="NULL" horiz-adv-x="0" 
 />
    <glyph glyph-name="nonmarkingreturn" unicode="&#xd;" horiz-adv-x="245" 
 />
    <glyph glyph-name="space" unicode=" " horiz-adv-x="245" 
 />
    <glyph glyph-name="exclam" unicode="!" horiz-adv-x="258" 
d="M83 35c0 12.667 4.5 23.834 13.5 33.501s20.167 14.5 33.5 14.5c12 0 22.833 -4.83301 32.5 -14.5s14.5 -20.834 14.5 -33.501s-4.83301 -23.5 -14.5 -32.5s-20.5 -13.5 -32.5 -13.5c-13.333 0 -24.5 4.5 -33.5 13.5s-13.5 19.833 -13.5 32.5zM105 150l-24 532h97
l-26 -532h-47z" />
    <glyph glyph-name="quotedbl" unicode="&#x22;" horiz-adv-x="334" 
d="M80 516l-21 216h81l-24 -216h-36zM217 516l-21 216h81l-24 -216h-36z" />
    <glyph glyph-name="numbersign" unicode="#" horiz-adv-x="614" 
d="M456 446h121l-10 -52h-122l-26 -119h128l-10 -53h-129l-47 -222h-64l47 222h-126l-47 -222h-64l47 222h-116l10 53h117l26 119h-123l10 52h124l44 208h64l-44 -208h126l44 208h64zM229 275h126l26 119h-126z" />
    <glyph glyph-name="dollar" unicode="$" horiz-adv-x="529" 
d="M300 664c29.333 -2 57.002 -6.33008 83.002 -12.9971s48.667 -14.667 68 -24l-21 -77c-16.667 14.667 -36.834 25.667 -60.501 33s-46.834 12 -69.501 14v-219c23.333 -8 46.333 -17 69 -27s42.834 -22.667 60.501 -38s32 -34 43 -56s16.5 -49 16.5 -81
c0 -30.667 -5 -57.167 -15 -79.5s-23.667 -41 -41 -56s-37.5 -26.5 -60.5 -34.5s-47.167 -13.333 -72.5 -16v-86h-60v85c-39.333 1.33301 -75.833 7.16602 -109.5 17.499s-62.834 22.5 -87.501 36.5l21 73c24 -16.667 49 -30.834 75 -42.501s59.667 -18.167 101 -19.5v259
c-28 9.33301 -53.167 19.333 -75.5 30s-41.333 23.167 -57 37.5s-27.667 31 -36 50s-12.5 41.5 -12.5 67.5c0 26.667 4.5 50 13.5 70s21.667 36.667 38 50s35.5 23.666 57.5 30.999s46 12 72 14v87h60v-86zM412.002 162.003c0 17.333 -3.16895 32.668 -9.50195 46.001
s-14.666 25.166 -24.999 35.499s-22.166 19.333 -35.499 27s-27.333 14.5 -42 20.5v-234c40 5.33301 68.667 17.5 86 36.5s26 41.833 26 68.5zM132 501.005c0 -13.333 2.16504 -25.001 6.49805 -35.001s10.833 -18.833 19.5 -26.5s19.834 -14.667 33.501 -21
s29.834 -12.833 48.501 -19.5v198c-34 -3.33301 -60.5 -12.666 -79.5 -27.999s-28.5 -38 -28.5 -68z" />
    <glyph glyph-name="percent" unicode="%" horiz-adv-x="818" 
d="M186 665c23.333 0 44.168 -5.00195 62.501 -15.002s33.666 -23.333 45.999 -40s21.833 -36.167 28.5 -58.5s10 -45.833 10 -70.5c0 -24 -3.33301 -47.333 -10 -70s-16.334 -42.667 -29.001 -60s-28.5 -31.166 -47.5 -41.499s-40.5 -15.5 -64.5 -15.5
c-23.333 0 -44 4.83301 -62 14.5s-33 22.834 -45 39.501s-21 36.167 -27 58.5s-9 45.833 -9 70.5c0 26 3.33301 50.5 10 73.5s16.334 43 29.001 60s28 30.333 46 40s38.667 14.5 62 14.5zM183.002 338.998c16.667 0 30.999 3.66699 42.999 11s21.833 17.333 29.5 30
s13.334 27.5 17.001 44.5s5.5 35.167 5.5 54.5c0 42 -7.66699 76 -23 102s-39 39 -71 39c-32.667 0 -55.667 -12.833 -69 -38.5s-20 -58.5 -20 -98.5c0 -48 7.66699 -84 23 -108s37 -36 65 -36zM209.001 -24.002h-65l463 715h65zM634.001 363.998
c23.333 0 44.168 -5.00195 62.501 -15.002s33.666 -23.333 45.999 -40s21.833 -36.167 28.5 -58.5s10 -45.833 10 -70.5c0 -24 -3.33301 -47.333 -10 -70s-16.334 -42.667 -29.001 -60s-28.5 -31.166 -47.5 -41.499s-40.5 -15.5 -64.5 -15.5c-23.333 0 -44 4.83301 -62 14.5
s-33 22.834 -45 39.501s-21 36.167 -27 58.5s-9 45.833 -9 70.5c0 26 3.33301 50.5 10 73.5s16.334 43 29.001 60s28 30.333 46 40s38.667 14.5 62 14.5zM631.003 37.9961c16.667 0 30.999 3.66699 42.999 11s21.833 17.333 29.5 30s13.334 27.5 17.001 44.5
s5.5 35.167 5.5 54.5c0 42 -7.66699 76 -23 102s-39 39 -71 39c-32.667 0 -55.667 -12.833 -69 -38.5s-20 -58.5 -20 -98.5c0 -48 7.66699 -84 23 -108s37 -36 65 -36z" />
    <glyph glyph-name="ampersand" unicode="&#x26;" horiz-adv-x="701" 
d="M669 427l-0.00292969 -62.0029l-134 -12c20.667 -38 31 -77.333 31 -118c0 -43.333 -11.333 -84 -34 -122l110 -113h-84l-64 65c-23.333 -23.333 -51.833 -42 -85.5 -56s-71.834 -21 -114.501 -21c-38 0 -71.5 5.16699 -100.5 15.5s-53.167 24.333 -72.5 42
s-33.833 37.834 -43.5 60.501s-14.5 46 -14.5 70c0 18 2.83301 36.5 8.5 55.5s14 37.167 25 54.5s25 33.333 42 48s36.5 26.667 58.5 36c-19.333 22.667 -34.333 45.334 -45 68.001s-16 48.667 -16 78c0 24.667 3.83301 46.167 11.5 64.5s18.334 33.833 32.001 46.5
s29.5 22.167 47.5 28.5s37 9.5 57 9.5c22.667 0 45.834 -3.83301 69.501 -11.5s46.834 -18.5 69.501 -32.5l-20 -71c-15.333 14.667 -33.666 26.667 -54.999 36s-42 14 -62 14c-22 0 -40.833 -6.83301 -56.5 -20.5s-23.5 -36.5 -23.5 -68.5c0 -22 4.33301 -42 13 -60
s21.334 -35.667 38.001 -53l228 -236c10.667 25.333 16 51 16 77c0 20 -2.83301 38.833 -8.5 56.5s-13.834 34.834 -24.501 51.501l-50 -4v47zM302.997 53.9971c32 0 60 5.16992 84 15.5029s44.667 24.166 62 41.499l-208 213
c-31.333 -10.667 -56.166 -28.334 -74.499 -53.001s-27.5 -53.334 -27.5 -86.001c0 -21.333 4.16699 -40 12.5 -56s19.666 -29.667 33.999 -41s31.5 -19.833 51.5 -25.5s42 -8.5 66 -8.5z" />
    <glyph glyph-name="quotesingle" unicode="'" horiz-adv-x="197" 
d="M80 516l-21 216h81l-24 -216h-36z" />
    <glyph glyph-name="parenleft" unicode="(" horiz-adv-x="311" 
d="M290 758c-27.333 -30.667 -50.5 -61.999 -69.5 -93.999s-34.5 -65.5 -46.5 -100.5s-20.667 -72 -26 -111s-8 -80.833 -8 -125.5c0 -27.333 1.16699 -57.5 3.5 -90.5s8.5 -68 18.5 -105s25 -75.333 45 -115s47.333 -79.834 82 -120.501l-37 -13
c-64 57.333 -113.667 124.333 -149 201s-53 157.667 -53 243s17.667 166 53 242s85 143.333 149 202z" />
    <glyph glyph-name="parenright" unicode=")" horiz-adv-x="311" 
d="M59 771c64 -58.667 113.667 -126.001 149 -202.001s53 -156.667 53 -242s-17.667 -166.333 -53 -243s-85 -143.667 -149 -201l-37 13c34.667 40.667 62 80.834 82 120.501s35 78 45 115s16.167 72 18.5 105s3.5 63.167 3.5 90.5c0 44.667 -2.66699 86.5 -8 125.5
s-14 76 -26 111s-27.5 68.5 -46.5 100.5s-42.167 63.333 -69.5 94z" />
    <glyph glyph-name="asterisk" unicode="*" horiz-adv-x="439" 
d="M237 568l108 81l33 -58l-123 -54l123 -53l-32 -57l-109 79l15 -132h-65l14 132l-108 -79l-32 57l123 53l-123 54l33 58l107 -81l-14 134h66z" />
    <glyph glyph-name="plus" unicode="+" horiz-adv-x="497" 
d="M274 265h172v-52h-172v-172h-52v172h-171v52h171v162h52v-162z" />
    <glyph glyph-name="comma" unicode="," horiz-adv-x="243" 
d="M68 -78l39 73h-25v90h79v-105l-73 -77z" />
    <glyph glyph-name="hyphen" unicode="-" horiz-adv-x="486" 
d="M412 265v-52h-338v52h338z" />
    <glyph glyph-name="period" unicode="." horiz-adv-x="235" 
d="M71 35c0 12.667 4.33301 23.834 13 33.501s19.667 14.5 33 14.5c12.667 0 23.834 -4.83301 33.501 -14.5s14.5 -20.834 14.5 -33.501s-4.83301 -23.5 -14.5 -32.5s-20.834 -13.5 -33.501 -13.5c-13.333 0 -24.333 4.5 -33 13.5s-13 19.833 -13 32.5z" />
    <glyph glyph-name="slash" unicode="/" horiz-adv-x="424" 
d="M111 -57h-75l278 759h75z" />
    <glyph glyph-name="zero" unicode="0" horiz-adv-x="649" 
d="M325 665c42.667 0 80.4971 -8.99902 113.497 -26.999s60.833 -42.5 83.5 -73.5s39.834 -66.833 51.501 -107.5s17.5 -83.334 17.5 -128.001c0 -44 -6 -86.5 -18 -127.5s-29.5 -77.333 -52.5 -109s-51.5 -57 -85.5 -76s-73 -28.5 -117 -28.5
c-43.333 0 -81.166 9 -113.499 27s-59.166 42.333 -80.499 73s-37.5 66.167 -48.5 106.5s-16.5 82.833 -16.5 127.5c0 47.333 6 91.833 18 133.5s29.333 78 52 109s50.5 55.5 83.5 73.5s70.5 27 112.5 27zM319.997 54.001c32.667 0 61.001 7.00098 85.001 21.001
s43.667 33.333 59 58s26.666 53.5 33.999 86.5s11 68.5 11 106.5c0 40.667 -3.83301 77.667 -11.5 111s-19.334 62 -35.001 86s-35.167 42.667 -58.5 56s-50.666 20 -81.999 20c-32 0 -59.5 -6.5 -82.5 -19.5s-41.667 -31.333 -56 -55s-24.833 -51.834 -31.5 -84.501
s-10 -68.667 -10 -108c0 -92 15.5 -161.333 46.5 -208s74.833 -70 131.5 -70z" />
    <glyph glyph-name="one" unicode="1" horiz-adv-x="317" 
d="M218 0h-75v526l-96 -46l-22 70l193 110v-660z" />
    <glyph glyph-name="two" unicode="2" horiz-adv-x="509" 
d="M56 616c12.667 6.66699 26.999 13 42.999 19s32.5 11.333 49.5 16s34.333 8.16699 52 10.5s34.5 3.5 50.5 3.5c28.667 0 55 -4 79 -12s44.5 -19 61.5 -33s30.167 -31 39.5 -51s14 -42 14 -66c0 -37.333 -10.333 -74 -31 -110s-46.5 -71.833 -77.5 -107.5
s-64.833 -71.5 -101.5 -107.5s-71 -72 -103 -108h320v-70h-405v70c30 38.667 63.333 76.5 100 113.5l103 108.5c32 35.333 58.667 70.333 80 105s32 69.667 32 105c0 13.333 -1.83301 25.833 -5.5 37.5s-10 22 -19 31s-20.667 16 -35 21s-32.166 7.5 -53.499 7.5
c-14.667 0 -30.167 -1.16699 -46.5 -3.5s-32.5 -5.83301 -48.5 -10.5s-31 -10 -45 -16s-25.667 -12.333 -35 -19z" />
    <glyph glyph-name="three" unicode="3" horiz-adv-x="535" 
d="M77 616c11.333 6.66699 24.1709 13 38.5039 19s29.166 11.333 44.499 16s30.666 8.16699 45.999 10.5s29.666 3.5 42.999 3.5c59.333 0 107 -14.5 143 -43.5s54 -71.833 54 -128.5c0 -28 -9.16699 -53.833 -27.5 -77.5s-40.833 -42.5 -67.5 -56.5
c40 -13.333 71.167 -33.333 93.5 -60s33.5 -62 33.5 -106c0 -28 -5 -54.333 -15 -79s-25.333 -46.334 -46 -65.001s-46.334 -33.5 -77.001 -44.5s-66.667 -16.5 -108 -16.5c-38.667 0 -74.5 5.5 -107.5 16.5s-62.167 26.167 -87.5 45.5l20 67
c23.333 -19.333 49.333 -34.666 78 -45.999s60 -17 94 -17c54 0 95.167 12.5 123.5 37.5s42.5 61.5 42.5 109.5c0 38 -12.833 68.167 -38.5 90.5s-68.834 33.5 -129.501 33.5h-27v57h31c42 0 74.5 10.667 97.5 32s34.5 50.333 34.5 87c0 29.333 -8 53 -24 71s-44 27 -84 27
c-15.333 0 -30.666 -1.33301 -45.999 -4s-30 -6.16699 -44 -10.5s-27.167 -9.5 -39.5 -15.5s-22.5 -12.333 -30.5 -19z" />
    <glyph glyph-name="four" unicode="4" horiz-adv-x="508" 
d="M459 210h-69v-210h-75v210h-284v70l279 380h80v-380h69v-70zM315 280v271l-199 -271h199z" />
    <glyph glyph-name="five" unicode="5" horiz-adv-x="538" 
d="M77 317l37 347.999h339v-70h-276l-26 -213c20.667 4.66699 42.334 8.5 65.001 11.5s43.667 4.5 63 4.5c30 0 57.833 -4.16699 83.5 -12.5s47.667 -20.5 66 -36.5s32.666 -35.833 42.999 -59.5s15.5 -50.834 15.5 -81.501c0 -29.333 -5 -57.333 -15 -84
s-25.167 -50 -45.5 -70s-45.833 -36 -76.5 -48s-66.667 -18 -108 -18c-38.667 0 -74.5 5.5 -107.5 16.5s-62.167 26.167 -87.5 45.5l21 70c24.667 -19.333 50.667 -35.166 78 -47.499s59.666 -18.5 96.999 -18.5c50.667 0 90.334 12.5 119.001 37.5s43 61.5 43 109.5
c0 18.667 -2.5 35.834 -7.5 51.501s-13.667 29 -26 40s-28.5 19.5 -48.5 25.5s-45 9 -75 9c-23.333 0 -47.333 -2 -72 -6s-48 -10.333 -70 -19z" />
    <glyph glyph-name="six" unicode="6" horiz-adv-x="551" 
d="M137 327c8 14.667 18.002 26.666 30.002 35.999s25.333 16.833 40 22.5s30 9.66699 46 12s32 3.5 48 3.5c42 0 76 -7.16699 102 -21.5s46.167 -31.833 60.5 -52.5s24.166 -42.834 29.499 -66.501s8 -44.5 8 -62.5c0 -24 -3.83301 -48.5 -11.5 -73.5s-20 -47.667 -37 -68
s-39 -36.833 -66 -49.5s-59.5 -19 -97.5 -19c-42 0 -77.333 7.33301 -106 22s-51.834 35.667 -69.501 63s-30.5 60 -38.5 98s-12 80.667 -12 128c0 46 3.83301 90.833 11.5 134.5s21 82.5 40 116.5s44.5 61.5 76.5 82.5s72 31.5 120 31.5c10.667 0 23 -0.666992 37 -2
s28.333 -3.83301 43 -7.5s28.834 -8.66699 42.501 -15s25.5 -14.166 35.5 -23.499l-17 -66c-22.667 18.667 -46.667 31.5 -72 38.5s-48 10.5 -68 10.5c-34.667 0 -63.5 -7.16699 -86.5 -21.5s-41.333 -33 -55 -56s-23.334 -49 -29.001 -78s-8.5 -57.833 -8.5 -86.5v-14.5
c0 -4.33301 0.333008 -9.16602 1 -14.499zM423.002 198.999c0 18 -2.16699 35.501 -6.5 52.501s-11.333 32 -21 45s-22.667 23.5 -39 31.5s-36.5 12 -60.5 12c-50 0 -86.667 -14 -110 -42s-35 -63 -35 -105c0 -44 12 -79 36 -105s58 -39 102 -39c41.333 0 74 13.167 98 39.5
s36 63.166 36 110.499z" />
    <glyph glyph-name="seven" unicode="7" horiz-adv-x="457" 
d="M80 0c-0.666992 6 -1.00098 12.502 -1.00098 19.502v19.5c0 42 8.83301 88 26.5 138s40.167 100.167 67.5 150.5s57.833 98.666 91.5 144.999s66.167 87.166 97.5 122.499h-322v70h405v-70c-33.333 -33.333 -66.666 -73.833 -99.999 -121.5s-63.333 -97.5 -90 -149.5
s-48.167 -103 -64.5 -153s-24.5 -93.667 -24.5 -131v-21c0 -6.66699 0.333008 -13 1 -19h-87z" />
    <glyph glyph-name="eight" unicode="8" horiz-adv-x="558" 
d="M379 362c38.667 -8.66699 68.5 -28.668 89.5 -60.001s31.5 -69.333 31.5 -114c0 -28 -4.33301 -54.167 -13 -78.5s-22.167 -45.5 -40.5 -63.5s-41.5 -32.167 -69.5 -42.5s-61 -15.5 -99 -15.5c-40 0 -74 5.5 -102 16.5s-50.667 25.667 -68 44s-30 39.5 -38 63.5
s-12 48.667 -12 74c0 44 10.667 81.333 32 112s51 51.667 89 63v4c-23.333 8.66699 -43.833 25 -61.5 49s-26.5 54.333 -26.5 91c0 48 16.333 86.667 49 116s79 44 139 44c58.667 0 104.667 -14.167 138 -42.5s50 -66.5 50 -114.5c0 -35.333 -8.5 -65.166 -25.5 -89.499
s-37.833 -41.833 -62.5 -52.5v-4zM417 180.999c0 18.667 -2.49902 36.834 -7.49902 54.501s-13.167 33.334 -24.5 47.001s-25.833 24.667 -43.5 33s-38.834 12.5 -63.501 12.5c-25.333 0 -46.833 -4.16699 -64.5 -12.5s-32 -19.333 -43 -33s-19 -29.334 -24 -47.001
s-7.5 -35.834 -7.5 -54.501c0 -42 11.833 -74.5 35.5 -97.5s58.167 -34.5 103.5 -34.5s79.833 11.5 103.5 34.5s35.5 55.5 35.5 97.5zM385.001 500.999c0 28 -7.83301 51.833 -23.5 71.5s-43.5 29.5 -83.5 29.5c-39.333 0 -67 -9.5 -83 -28.5s-24 -43.167 -24 -72.5
c0 -33.333 9.16699 -60.5 27.5 -81.5s44.833 -31.5 79.5 -31.5s61.167 10.5 79.5 31.5s27.5 48.167 27.5 81.5z" />
    <glyph glyph-name="nine" unicode="9" horiz-adv-x="552" 
d="M415 325c-8 -14.667 -18.002 -26.667 -30.002 -36s-25.333 -16.833 -40 -22.5s-30 -9.66699 -46 -12s-32 -3.5 -48 -3.5c-42 0 -76 7.16699 -102 21.5s-46.167 31.833 -60.5 52.5s-24.166 42.834 -29.499 66.501s-8 44.5 -8 62.5c0 24 3.83301 48.5 11.5 73.5
s20 47.667 37 68s39 36.833 66 49.5s59.5 19 97.5 19c42 0 77.333 -7.33301 106 -22s51.834 -35.667 69.501 -63s30.5 -60.166 38.5 -98.499s12 -80.833 12 -127.5c0 -46 -3.83301 -90.833 -11.5 -134.5s-21 -82.5 -40 -116.5s-44.5 -61.5 -76.5 -82.5s-72 -31.5 -120 -31.5
c-10.667 0 -23 0.666992 -37 2s-28.333 3.83301 -43 7.5s-28.834 8.66699 -42.501 15s-25.5 14.166 -35.5 23.499l17 66c22.667 -18.667 46.667 -31.5 72 -38.5s48 -10.5 68 -10.5c34.667 0 63.5 7.16699 86.5 21.5s41.333 33 55 56s23.334 49 29.001 78
s8.5 57.833 8.5 86.5v14.5c0 4.33301 -0.333008 9.16602 -1 14.499zM128.998 453c0 -18 2.16699 -35.501 6.5 -52.501s11.333 -32 21 -45s22.667 -23.5 39 -31.5s36.5 -12 60.5 -12c50 0 86.667 14 110 42s35 63 35 105c0 44 -12 79 -36 105s-58 39 -102 39
c-41.333 0 -74 -13.167 -98 -39.5s-36 -63.166 -36 -110.499z" />
    <glyph glyph-name="colon" unicode=":" horiz-adv-x="242" 
d="M74 35c0 12.667 4.33301 23.834 13 33.501s19.667 14.5 33 14.5c12.667 0 23.834 -4.83301 33.501 -14.5s14.5 -20.834 14.5 -33.501s-4.83301 -23.5 -14.5 -32.5s-20.834 -13.5 -33.501 -13.5c-13.333 0 -24.333 4.5 -33 13.5s-13 19.833 -13 32.5zM74 408
c0 12.667 4.33301 23.667 13 33s19.667 14 33 14c12.667 0 23.834 -4.66699 33.501 -14s14.5 -20.333 14.5 -33c0 -13.333 -4.83301 -24.5 -14.5 -33.5s-20.834 -13.5 -33.501 -13.5c-13.333 0 -24.333 4.5 -33 13.5s-13 20.167 -13 33.5z" />
    <glyph glyph-name="semicolon" unicode=";" horiz-adv-x="254" 
d="M83 408c0 12.667 4.33301 23.667 13 33s19.667 14 33 14c12.667 0 23.834 -4.66699 33.501 -14s14.5 -20.333 14.5 -33c0 -13.333 -4.83301 -24.5 -14.5 -33.5s-20.834 -13.5 -33.501 -13.5c-13.333 0 -24.333 4.5 -33 13.5s-13 20.167 -13 33.5zM75 -78l39 73h-25v90h79
v-105l-73 -77z" />
    <glyph glyph-name="less" unicode="&#x3c;" horiz-adv-x="408" 
d="M144 238l198 -133l-18 -64l-286 197v5l285 194l18 -63l-197 -131v-5z" />
    <glyph glyph-name="equal" unicode="=" horiz-adv-x="490" 
d="M414 189v-52h-338v52h338zM414 341v-52h-338v52h338z" />
    <glyph glyph-name="greater" unicode="&#x3e;" horiz-adv-x="408" 
d="M264 243l-197 131l18 63l285 -194v-5l-286 -197l-18 64l198 133v5z" />
    <glyph glyph-name="question" unicode="?" horiz-adv-x="412" 
d="M137 36c0 13.333 4.5 24.5 13.5 33.5s19.833 13.5 32.5 13.5s23.834 -4.5 33.501 -13.5s14.5 -20.167 14.5 -33.5c0 -12.667 -4.83301 -23.667 -14.5 -33s-20.834 -14 -33.501 -14s-23.5 4.66699 -32.5 14s-13.5 20.333 -13.5 33zM40 637c18 14 40.332 25.667 66.999 35
s52.667 14 78 14c26.667 0 50.834 -4 72.501 -12s40 -19 55 -33s26.5 -31 34.5 -51s12 -42 12 -66c0 -20 -3.5 -38.833 -10.5 -56.5s-16 -35.334 -27 -53.001s-22.667 -35.5 -35 -53.5s-24 -37.5 -35 -58.5s-20.167 -43.833 -27.5 -68.5s-11 -52.334 -11 -83.001h-64
c0 33.333 3.33301 63 10 89s15.167 49.5 25.5 70.5s21.5 40.167 33.5 57.5l33.5 50.5c10.333 16.333 18.833 33 25.5 50s10 35.833 10 56.5c0 26.667 -8.5 49.334 -25.5 68.001s-42.833 28 -77.5 28c-10.667 0 -22 -1.33301 -34 -4s-23.667 -6.16699 -35 -10.5
s-22 -9.66602 -32 -15.999s-18.333 -12.833 -25 -19.5z" />
    <glyph glyph-name="at" unicode="@" horiz-adv-x="723" 
d="M441 350c-4 4 -12.335 6.00195 -25.002 6.00195c-22 0 -40.833 -6 -56.5 -18s-28.5 -26.833 -38.5 -44.5s-17.333 -36.834 -22 -57.501s-7 -39.334 -7 -56.001c0 -22 3 -38.167 9 -48.5s13.667 -15.5 23 -15.5c8.66699 0 17.834 3.5 27.501 10.5s18.834 16 27.501 27
s16.5 23.167 23.5 36.5s11.833 26.333 14.5 39zM577.998 -22.998c-6.66699 -6 -17.1611 -13.501 -31.4941 -22.501s-31.5 -17.667 -51.5 -26s-42.333 -15.333 -67 -21s-50.667 -8.5 -78 -8.5c-40 0 -77.667 6.66699 -113 20s-66.333 32.166 -93 56.499
s-47.834 53.833 -63.501 88.5s-23.5 73.334 -23.5 116.001c0 38 6.83301 78.5 20.5 121.5s34.834 82.833 63.501 119.5s65.167 67 109.5 91s97.166 36 158.499 36c46.667 0 87.167 -7.33301 121.5 -22s62.666 -33.667 84.999 -57s38.833 -49.666 49.5 -78.999s16 -59 16 -89
c0 -29.333 -4.83301 -57.666 -14.5 -84.999s-23.5 -51.5 -41.5 -72.5s-39.5 -37.833 -64.5 -50.5s-52.833 -19 -83.5 -19c-16 0 -28.833 1.83301 -38.5 5.5s-17 8.66699 -22 15s-8.33301 14 -10 23s-2.5 18.833 -2.5 29.5c-11.333 -22.667 -25.5 -40.667 -42.5 -54
s-34.167 -20 -51.5 -20c-10 0 -20 2.5 -30 7.5s-19 12.5 -27 22.5s-14.5 22.5 -19.5 37.5s-7.5 32.5 -7.5 52.5c0 30 5.66699 57 17 81s26.166 44.5 44.499 61.5s38.833 30.167 61.5 39.5s45.334 14 68.001 14c16 0 33.5 -2.66699 52.5 -8s34.167 -13.666 45.5 -24.999
l-37 -178c-1.33301 -7.33301 -2.33301 -13.833 -3 -19.5s-1 -10.834 -1 -15.501c0 -9.33301 2 -16.333 6 -21s11.667 -7 23 -7c17.333 0 33.166 5.16699 47.499 15.5s26.666 24 36.999 41s18.333 36.5 24 58.5s8.5 44.333 8.5 67c0 24.667 -4 49.167 -12 73.5
s-20.5 46.166 -37.5 65.499s-38.833 35 -65.5 47s-59 18 -97 18c-47.333 0 -89 -9.5 -125 -28.5s-66 -43.833 -90 -74.5s-42.167 -65 -54.5 -103s-18.5 -76.333 -18.5 -115c0 -41.333 6.5 -76.666 19.5 -105.999s30.5 -53.5 52.5 -72.5s47.5 -32.833 76.5 -41.5
s59.5 -13 91.5 -13c27.333 0 52.666 2.83301 75.999 8.5s44.333 12.667 63 21s34.667 17.166 48 26.499s23.666 17.333 30.999 24v-50z" />
    <glyph glyph-name="A" unicode="A" 
d="M650 0h-85l-97 222h-295l-88 -222h-80l264 660h91zM201 292h236l-124 284z" />
    <glyph glyph-name="B" unicode="B" horiz-adv-x="559" 
d="M99 660c21.333 1.33301 46.334 2.50293 75.001 3.50293s55 1.5 79 1.5c59.333 0 107 -14.5 143 -43.5s54 -71.833 54 -128.5c0 -26.667 -5.5 -50.834 -16.5 -72.501s-28.167 -40.167 -51.5 -55.5c40 -13.333 71.333 -34.333 94 -63s34 -65 34 -109
c0 -28 -5 -54.333 -15 -79s-25.333 -46.334 -46 -65.001s-46.334 -33.5 -77.001 -44.5s-66.667 -16.5 -108 -16.5c-32.667 0 -63 1.16699 -91 3.5s-52.667 5.16602 -74 8.49902v660zM261.001 54.0029c54 0 95.167 12.5 123.5 37.5s42.5 61.5 42.5 109.5
c0 38 -12.833 68.167 -38.5 90.5s-68.834 33.5 -129.501 33.5c-14.667 0 -29.167 -0.166992 -43.5 -0.5s-28.166 -0.833008 -41.499 -1.5v-266c26 -2 55 -3 87 -3zM235.001 382.003c42 0 74.5 10.667 97.5 32s34.5 50.333 34.5 87c0 29.333 -8 53 -24 71s-44 27 -84 27
c-14.667 0 -29.167 -0.166992 -43.5 -0.5s-28.166 -0.833008 -41.499 -1.5v-214c9.33301 -0.666992 19.166 -1 29.499 -1h31.5z" />
    <glyph glyph-name="C" unicode="C" 
d="M567 550c-21.333 14 -47.6641 25.6689 -78.9971 35.002s-67 14 -107 14c-44.667 0 -82.334 -6.5 -113.001 -19.5s-55.5 -31.167 -74.5 -54.5s-32.667 -51.5 -41 -84.5s-12.5 -69.5 -12.5 -109.5c0 -91.333 20 -160.333 60 -207s99.667 -70 179 -70c42 0 80.667 6 116 18
s63.666 26.667 84.999 44l20 -67c-26.667 -16 -58.834 -30.167 -96.501 -42.5s-80.167 -18.5 -127.5 -18.5c-54.667 0 -102 9 -142 27s-73.167 42.333 -99.5 73s-45.833 66.167 -58.5 106.5s-19 83.166 -19 128.499c0 47.333 7 91.666 21 132.999s34.833 77.5 62.5 108.5
s62 55.5 103 73.5s88.833 27 143.5 27c36 0 72 -3.83301 108 -11.5s67 -18.167 93 -31.5z" />
    <glyph glyph-name="D" unicode="D" horiz-adv-x="704" 
d="M99 660l5.00098 -0.000976562c32 1.33301 66.667 2.5 104 3.5s73.666 1.5 108.999 1.5c47.333 0 90.5 -6.66699 129.5 -20s72.167 -31.666 99.5 -54.999c35.333 -32 61 -71 77 -117s24 -96 24 -150c0 -45.333 -6.33301 -88.166 -19 -128.499
s-32.167 -75.833 -58.5 -106.5s-59.5 -55 -99.5 -73s-87.333 -27 -142 -27c-47.333 0 -89.833 1.16699 -127.5 3.5s-71.5 5.16602 -101.5 8.49902v660zM323.001 598.999c-26.667 0 -52.832 -0.167969 -78.499 -0.500977s-49.167 -1.16602 -70.5 -2.49902v-536
c42 -4 92.333 -6 151 -6c79.333 0 139 23.333 179 70s60 115.667 60 207c0 40 -4.16699 76.5 -12.5 109.5s-22 61.167 -41 84.5s-43.833 41.5 -74.5 54.5s-68.334 19.5 -113.001 19.5z" />
    <glyph glyph-name="E" unicode="E" horiz-adv-x="522" 
d="M481 0h-382v660h362v-70h-287v-205h220v-70h-220v-245h307v-70z" />
    <glyph glyph-name="F" unicode="F" horiz-adv-x="480" 
d="M383 315h-209v-315h-75v660h357v-70h-282v-205h209v-70z" />
    <glyph glyph-name="G" unicode="G" horiz-adv-x="672" 
d="M607 55c-30 -20 -64.1689 -36.165 -102.502 -48.498s-81.166 -18.5 -128.499 -18.5c-54.667 0 -102 9 -142 27s-73.167 42.333 -99.5 73s-45.833 66.167 -58.5 106.5s-19 83.166 -19 128.499c0 47.333 7 91.666 21 132.999s34.833 77.5 62.5 108.5s62 55.5 103 73.5
s88.833 27 143.5 27c38.667 0 76.334 -3.83301 113.001 -11.5s69.334 -18.167 98.001 -31.5l-21 -72c-21.333 14 -48.833 25.667 -82.5 35s-71.5 14 -113.5 14c-44.667 0 -82.334 -6.5 -113.001 -19.5s-55.5 -31.167 -74.5 -54.5s-32.667 -51.5 -41 -84.5
s-12.5 -69.5 -12.5 -109.5c0 -91.333 20 -160.333 60 -207s99.667 -70 179 -70c29.333 0 56.833 3 82.5 9s49.167 13.667 70.5 23v186h75v-217z" />
    <glyph glyph-name="H" unicode="H" horiz-adv-x="704" 
d="M174 375h356v285h75v-660h-75v305h-356v-305h-75v660h75v-285z" />
    <glyph glyph-name="I" unicode="I" horiz-adv-x="273" 
d="M174 0h-75v660h75v-660z" />
    <glyph glyph-name="J" unicode="J" horiz-adv-x="272" 
d="M174 101c0 -35.333 -3.49902 -68.501 -10.499 -99.501s-17.667 -58.167 -32 -81.5s-32.333 -41.833 -54 -55.5s-47.5 -20.5 -77.5 -20.5l-14 55c26 0 46.667 6.33301 62 19s26.666 28.834 33.999 48.501s12 41.5 14 65.5s3 47.333 3 70v558h75v-559z" />
    <glyph glyph-name="K" unicode="K" horiz-adv-x="598" 
d="M174 348c18.667 12.667 35.5 25.3311 50.5 37.998s32.167 28.334 51.5 47.001c32.667 32 65.667 67.833 99 107.5s64 79.5 92 119.5h86c-16 -23.333 -33.5 -47.166 -52.5 -71.499l-58.5 -72l-59.5 -67.5l-55.5 -58l-20.5 -20l-18.5 -17l306 -354h-93l-268 306l-59 -45
v-261h-75v660h75v-312z" />
    <glyph glyph-name="L" unicode="L" horiz-adv-x="486" 
d="M469 0h-370v660h75v-590h295v-70z" />
    <glyph glyph-name="M" unicode="M" horiz-adv-x="843" 
d="M424 94l224 566h96v-660h-75v499l-202 -499h-90l-203 500v-500h-75v660h101z" />
    <glyph glyph-name="N" unicode="N" horiz-adv-x="704" 
d="M174 540v-540h-75v660h91l340 -541v541h75v-660h-91z" />
    <glyph glyph-name="O" unicode="O" horiz-adv-x="756" 
d="M378 665c52 0 98.001 -8.99902 138.001 -26.999s73.667 -42.5 101 -73.5s48 -66.833 62 -107.5s21 -83.334 21 -128.001c0 -44 -6.83301 -86.5 -20.5 -127.5s-34.334 -77.333 -62.001 -109s-62 -57 -103 -76s-88.833 -28.5 -143.5 -28.5c-53.333 0 -99.666 9 -138.999 27
s-72 42.333 -98 73s-45.5 66.167 -58.5 106.5s-19.5 82.833 -19.5 127.5c0 47.333 7.16699 91.833 21.5 133.5s35.166 78 62.499 109s61 55.5 101 73.5s85.667 27 137 27zM373.001 54.001c43.333 0 80.5029 7.00098 111.503 21.001s56.333 33.333 76 58
s34.167 53.5 43.5 86.5s14 68.5 14 106.5c0 40.667 -4.83301 77.667 -14.5 111s-24.334 62 -44.001 86s-44.834 42.667 -75.501 56s-67 20 -109 20c-42.667 0 -79 -6.5 -109 -19.5s-54.333 -31.333 -73 -55s-32.334 -51.834 -41.001 -84.501s-13 -68.667 -13 -108
c0 -92 20 -161.333 60 -208s98 -70 174 -70z" />
    <glyph glyph-name="P" unicode="P" horiz-adv-x="529" 
d="M99 660l4 0.000976562c21.333 1.33301 45 2.5 71 3.5s50.667 1.5 74 1.5c36 0 68.667 -4.5 98 -13.5s54.5 -22.5 75.5 -40.5s37.333 -40.167 49 -66.5s17.5 -56.833 17.5 -91.5c0 -28 -4.66699 -54.333 -14 -79s-23.333 -46.334 -42 -65.001s-42.5 -33.5 -71.5 -44.5
s-62.833 -16.5 -101.5 -16.5c-32 0 -60.333 1 -85 3v-251h-75v660zM254 599.001c-14 0 -27.833 -0.166992 -41.5 -0.5s-26.5 -0.833008 -38.5 -1.5v-280c24 -2 51.333 -3 82 -3c49.333 0 86.5 12.5 111.5 37.5s37.5 61.5 37.5 109.5c0 20.667 -2.66699 39.5 -8 56.5
s-13.833 31.5 -25.5 43.5s-27.167 21.333 -46.5 28s-43 10 -71 10z" />
    <glyph glyph-name="Q" unicode="Q" horiz-adv-x="759" 
d="M380 665c52 0 98.0068 -8.99805 138.007 -26.998s73.667 -42.5 101 -73.5s48 -66.833 62 -107.5s21 -83.334 21 -128.001c0 -42.667 -6.5 -84 -19.5 -124s-32.333 -75.5 -58 -106.5s-57.834 -56.333 -96.501 -76s-83.667 -30.834 -135 -33.501
c23.333 -2.66699 46.166 -8.16699 68.499 -16.5l67.5 -25.5c22.667 -8.66699 45.667 -16.5 69 -23.5s47.666 -10.5 72.999 -10.5c26.667 0 55 6.33301 85 19l-19 -64c-12.667 -6.66699 -25.334 -11 -38.001 -13s-24.667 -3 -36 -3c-28 0 -55.333 4.66699 -82 14
s-52.5 19.5 -77.5 30.5s-49.333 21.167 -73 30.5s-46.5 14 -68.5 14c-16 0 -35.333 -3 -58 -9s-44.334 -16.667 -65.001 -32l-14 47c17.333 13.333 36.333 23.333 57 30s40.667 10.667 60 12c-48 3.33301 -89.667 14.666 -125 33.999s-64.833 44 -88.5 74
s-41.334 64.333 -53.001 103s-17.5 79.334 -17.5 122.001c0 47.333 7.16699 91.833 21.5 133.5s35.166 78 62.499 109s61 55.5 101 73.5s85.667 27 137 27zM377.007 54.002c42.667 0 79.5039 6.99805 110.504 20.998s56.167 33.333 75.5 58s33.666 53.834 42.999 87.501
s14 69.834 14 108.501c0 40 -4.83301 76.5 -14.5 109.5s-24.5 61.333 -44.5 85s-45.333 42.167 -76 55.5s-67.334 20 -110.001 20c-42 0 -77.833 -6.5 -107.5 -19.5s-53.834 -31.5 -72.501 -55.5s-32.334 -52.5 -41.001 -85.5s-13 -69.5 -13 -109.5
c0 -90.667 20.167 -159.167 60.5 -205.5s98.833 -69.5 175.5 -69.5z" />
    <glyph glyph-name="R" unicode="R" horiz-adv-x="595" 
d="M99 660c23.333 1.33301 48.168 2.5 74.501 3.5s51.166 1.5 74.499 1.5c36 0 68.667 -4.16699 98 -12.5s54.5 -20.5 75.5 -36.5s37.333 -35.833 49 -59.5s17.5 -50.834 17.5 -81.501c0 -42.667 -12 -80.667 -36 -114s-61 -56.666 -111 -69.999l253 -291h-93l-247 282
c-29.333 0 -56 1 -80 3v-285h-75v660zM254.002 599c-14 0 -27.833 -0.166992 -41.5 -0.5s-26.5 -0.833008 -38.5 -1.5v-247c12 -1.33301 24.833 -2 38.5 -2h43.5c49.333 0 86.5 11.5 111.5 34.5s37.5 56.5 37.5 100.5c0 34.667 -11.167 62.667 -33.5 84s-61.5 32 -117.5 32z
" />
    <glyph glyph-name="S" unicode="S" horiz-adv-x="551" 
d="M138 501c0 -16.667 3.16504 -30.5 9.49805 -41.5s16.333 -20.833 30 -29.5s31 -16.834 52 -24.501l75.5 -26.5c24.667 -8 49 -17.167 73 -27.5s45.5 -23 64.5 -38s34.167 -33.667 45.5 -56s17 -49.5 17 -81.5c0 -34 -6.66699 -63 -20 -87s-31 -43.5 -53 -58.5
s-47.333 -25.833 -76 -32.5s-58.334 -10 -89.001 -10c-43.333 0 -83.666 5.33301 -120.999 16s-69.666 23.667 -96.999 39l21 73c12.667 -8.66699 25.334 -16.834 38.001 -24.501s26.5 -14.167 41.5 -19.5s31.5 -9.66602 49.5 -12.999s38.667 -5 62 -5
c30 0 55.667 2.66699 77 8s38.666 12.833 51.999 22.5s23 21.167 29 34.5s9 27.666 9 42.999c0 22.667 -5.33301 41.834 -16 57.501s-24.5 29.167 -41.5 40.5s-35.667 20.833 -56 28.5s-40.5 14.834 -60.5 21.501c-28.667 9.33301 -54.667 19.333 -78 30
s-43.166 23.334 -59.499 38.001s-29 31.667 -38 51s-13.5 42.333 -13.5 69c0 30 5.5 55.5 16.5 76.5s26 38.167 45 51.5s41.5 23.166 67.5 29.499s54 9.5 84 9.5c36 0 70.667 -3.66699 104 -11s61.666 -16.333 84.999 -27l-21 -77
c-10.667 9.33301 -23.167 17.166 -37.5 23.499s-29.333 11.333 -45 15s-31.167 6.33398 -46.5 8.00098s-29.666 2.5 -42.999 2.5c-42 0 -75.167 -7.83301 -99.5 -23.5s-36.5 -40.5 -36.5 -74.5z" />
    <glyph glyph-name="T" unicode="T" horiz-adv-x="533" 
d="M515 590h-211v-590h-75v590h-211v70h497v-70z" />
    <glyph glyph-name="U" unicode="U" horiz-adv-x="688" 
d="M167 256c0 -72 15.833 -123.667 47.5 -155s75.5 -47 131.5 -47s100 15.667 132 47s48 83 48 155v404h70v-438c0 -32.667 -5 -63.167 -15 -91.5s-25.333 -53 -46 -74s-46.667 -37.5 -78 -49.5s-68.333 -18 -111 -18c-46.667 0 -86.167 6 -118.5 18s-58.5 28.5 -78.5 49.5
s-34.5 45.667 -43.5 74s-13.5 58.833 -13.5 91.5v438h75v-404z" />
    <glyph glyph-name="V" unicode="V" horiz-adv-x="644" 
d="M-7 660h85l251 -576l229 576h80l-262 -660h-95z" />
    <glyph glyph-name="W" unicode="W" horiz-adv-x="1081" 
d="M540 546l-186 -546h-95l-260 660h85l222 -565l193 565h85l205 -563l201 563h80l-235 -660h-95z" />
    <glyph glyph-name="X" unicode="X" horiz-adv-x="646" 
d="M320 285l-219 -285h-86l262 341l-247 319h89l206 -267l206 267h86l-249 -323l262 -337h-89z" />
    <glyph glyph-name="Y" unicode="Y" horiz-adv-x="566" 
d="M-11 660h89l209 -317l202 317h87l-255 -389v-271h-75v267z" />
    <glyph glyph-name="Z" unicode="Z" horiz-adv-x="554" 
d="M511 0h-468v70l368 520h-353v70h438v-70l-368 -520h383v-70z" />
    <glyph glyph-name="bracketleft" unicode="[" horiz-adv-x="286" 
d="M250 -95h-160v844h160v-42h-95v-760h95v-42z" />
    <glyph glyph-name="backslash" unicode="\" horiz-adv-x="422" 
d="M35 702h73l278 -759h-73z" />
    <glyph glyph-name="bracketright" unicode="]" horiz-adv-x="286" 
d="M36 749h160v-844h-160v42h95v760h-95v42z" />
    <glyph glyph-name="asciicircum" unicode="^" horiz-adv-x="348" 
d="M178 673l110 -99l3 -7l-6 -19l-7 -3l-104 61l-104 -61l-7 3l-6 19l3 7l110 99h8z" />
    <glyph glyph-name="underscore" unicode="_" horiz-adv-x="489" 
d="M461 0v-52h-433v52h433z" />
    <glyph glyph-name="grave" unicode="`" horiz-adv-x="219" 
d="M205 549l-201 76.999c-2.66699 6 -4 12.333 -4 19c0 9.33301 3 17.333 9 24s14.667 10.334 26 11.001l181 -101l3 -7l-6 -20z" />
    <glyph glyph-name="a" unicode="a" horiz-adv-x="498" 
d="M370 0l-8 82.002h-4c-8 -12.667 -18.667 -24.667 -32 -36s-28.166 -21.333 -44.499 -30s-34 -15.5 -53 -20.5s-37.833 -7.5 -56.5 -7.5c-44 0 -77 12.833 -99 38.5s-33 57.834 -33 96.501c0 38 9.66699 68.333 29 91s43 39.667 71 51s57.5 18.666 88.5 21.999
s58.167 5 81.5 5h45v12c0 25.333 -3.5 44.666 -10.5 57.999s-17.167 24.666 -30.5 33.999c-11.333 7.33301 -23.5 12.5 -36.5 15.5s-30.167 4.5 -51.5 4.5c-28 0 -52.667 -3.66699 -74 -11s-42 -17 -62 -29l-16 60c44.667 26 98 39 160 39c24.667 0 48 -2.16699 70 -6.5
s41.333 -11.833 58 -22.5c19.333 -12 34.666 -29 45.999 -51s17 -49.333 17 -82v-313h-55zM193 47.002c27.333 0 56.3311 8.66699 86.998 26s55.667 42.333 75 75v93h-9c-27.333 0 -54.666 -1 -81.999 -3s-52.166 -7 -74.499 -15s-40.5 -19.5 -54.5 -34.5
s-21 -35.5 -21 -61.5s7.16699 -45.833 21.5 -59.5s33.5 -20.5 57.5 -20.5z" />
    <glyph glyph-name="b" unicode="b" horiz-adv-x="575" 
d="M325 -12c-42.667 0 -79.333 9.49902 -110 28.499s-54 40.833 -70 65.5h-4l-8 -82h-55v740h70v-366c8.66699 28.667 27.667 52.667 57 72s65.666 29 108.999 29c35.333 0 66.333 -6.66699 93 -20s48.834 -31.166 66.501 -53.499s31 -48.5 40 -78.5s13.5 -61.333 13.5 -94
c0 -32 -4.16699 -62.5 -12.5 -91.5s-20.833 -54.5 -37.5 -76.5s-37.667 -39.667 -63 -53s-55 -20 -89 -20zM317.001 46.999c25.333 0 46.667 5.33398 64 16.001s31.333 24.5 42 41.5s18.334 36.167 23.001 57.5s7 42.666 7 63.999c0 28 -3.5 53.667 -10.5 77
s-16.833 43.333 -29.5 60s-28.334 29.667 -47.001 39s-39.334 14 -62.001 14c-35.333 0 -67.166 -10.667 -95.499 -32s-48.5 -51 -60.5 -89v-147c19.333 -32 44.333 -56.833 75 -74.5s62 -26.5 94 -26.5z" />
    <glyph glyph-name="c" unicode="c" horiz-adv-x="500" 
d="M437 376c-15.333 11.333 -37.334 21.5029 -66.001 30.5029s-57.334 13.5 -86.001 13.5c-29.333 0 -54.166 -5 -74.499 -15s-37.166 -23.333 -50.499 -40s-23 -35.834 -29 -57.501s-9 -44.167 -9 -67.5c0 -26 3.66699 -51 11 -75s18.166 -45 32.499 -63s32 -32.333 53 -43
s45.5 -16 73.5 -16c26.667 0 54.167 5.66699 82.5 17s51.833 25.666 70.5 42.999l14 -65c-18.667 -12 -44.167 -23.333 -76.5 -34s-66.833 -16 -103.5 -16c-38.667 0 -72.5 6.66699 -101.5 20s-53 31.166 -72 53.499s-33.333 48.333 -43 78s-14.5 61.167 -14.5 94.5
c0 32 4.5 62.5 13.5 91.5s23.167 54.667 42.5 77s44 40 74 53s66 19.5 108 19.5c32 0 63.333 -3.66699 94 -11s55.334 -17 74.001 -29z" />
    <glyph glyph-name="d" unicode="d" horiz-adv-x="575" 
d="M250 -12c-34 0 -63.6689 6.66797 -89.002 20.001s-46.333 31 -63 53s-29.167 47.5 -37.5 76.5s-12.5 59.5 -12.5 91.5c0 32.667 4.5 64 13.5 94s22.333 56.167 40 78.5s39.834 40.166 66.501 53.499s57.667 20 93 20c44.667 0 81.334 -9.66699 110.001 -29
s47.334 -43.333 56.001 -72v366h70v-740h-55l-8 82h-4c-16 -24.667 -39.333 -46.5 -70 -65.5s-67.334 -28.5 -110.001 -28.5zM257.998 47.001c32 0 63.498 8.66602 94.498 25.999s55.833 42.333 74.5 75v147c-12 38 -32.167 67.667 -60.5 89s-60.166 32 -95.499 32
c-23.333 0 -44.166 -4.66699 -62.499 -14s-33.833 -22.333 -46.5 -39s-22.5 -36.667 -29.5 -60s-10.5 -49 -10.5 -77c0 -21.333 2.33301 -42.666 7 -63.999s12.334 -40.5 23.001 -57.5s24.667 -30.833 42 -41.5s38.666 -16 63.999 -16z" />
    <glyph glyph-name="e" unicode="e" horiz-adv-x="517" 
d="M284 475c58.667 0 104 -14.8398 136 -44.5068s48 -71.5 48 -125.5c0 -11.333 -0.666992 -22.833 -2 -34.5s-3.66602 -20.167 -6.99902 -25.5h-337v-10c0 -25.333 3.33301 -49.666 10 -72.999s16.667 -44 30 -62s30.166 -32.333 50.499 -43s44.5 -16 72.5 -16
c16 0 31.667 1.83301 47 5.5s30 8.33398 44 14.001s27 11.834 39 18.501s22.667 13.334 32 20.001l12 -57c-8.66699 -5.33301 -19.334 -11.166 -32.001 -17.499s-26.667 -12.166 -42 -17.499s-32.166 -9.83301 -50.499 -13.5s-37.5 -5.5 -57.5 -5.5
c-37.333 0 -70.333 6.5 -99 19.5s-52.667 30.667 -72 53s-34 48.166 -44 77.499s-15 60 -15 92c0 32.667 5.16699 63.834 15.5 93.501s25.5 55.834 45.5 78.501s44.833 40.5 74.5 53.5s63.5 19.5 101.5 19.5zM281 418.993c-44 0 -78.167 -11.5 -102.5 -34.5
s-40.833 -51.833 -49.5 -86.5h273c0.666992 3.33301 1 6.33301 1 9v9c0 16.667 -3.33301 31.5 -10 44.5s-15.667 23.833 -27 32.5s-24.333 15.167 -39 19.5s-30 6.5 -46 6.5z" />
    <glyph glyph-name="f" unicode="f" horiz-adv-x="298" 
d="M102 413l-77 -0.000976562v37l77 9c0 37.333 1.16699 69.333 3.5 96s5.5 49.167 9.5 67.5s8.5 33.333 13.5 45s9.83301 21.167 14.5 28.5c12.667 18.667 28.334 31.5 47.001 38.5s38 10.5 58 10.5c2.66699 0 7.33398 -0.166992 14.001 -0.5s14.167 -1 22.5 -2
s16.833 -2.66699 25.5 -5s17 -5.5 25 -9.5l-17 -59c-2 0 -6.66699 1.16699 -14 3.5l-24.5 8c-9 3 -18.667 5.83301 -29 8.5s-19.5 4 -27.5 4c-10 0 -18.333 -2.83301 -25 -8.5s-11.834 -15 -15.501 -28s-6.33398 -30.167 -8.00098 -51.5s-2.5 -47.666 -2.5 -78.999v-66h108
v-47h-108v-413h-70v413z" />
    <glyph glyph-name="g" unicode="g" horiz-adv-x="508" 
d="M141 142c-32 12.667 -55 32.8301 -69 60.4971s-21 57.5 -21 89.5c0 26 4.33301 50 13 72s21.167 41.333 37.5 58s36 29.667 59 39s49.167 14 78.5 14c17.333 0 34.5 -1.66699 51.5 -5s31.833 -8.33301 44.5 -15c28 0.666992 54.167 2.33398 78.5 5.00098
s47.166 7 68.499 13l5 -4l-7 -55l-5 -5l-91 4l-1 -3c17.333 -14 30 -32.333 38 -55s12 -44.667 12 -66c0 -22 -4.16699 -43 -12.5 -63s-20.5 -37.5 -36.5 -52.5s-35.833 -27 -59.5 -36s-50.834 -13.5 -81.501 -13.5c-7.33301 0 -13.666 0.166992 -18.999 0.5
s-10.333 0.5 -15 0.5c-14 -4.66699 -24.5 -11 -31.5 -19s-10.5 -14.667 -10.5 -20c0 -6.66699 4.5 -12.5 13.5 -17.5s23.5 -8.5 43.5 -10.5l97 -10c22 -2 42.5 -6.5 61.5 -13.5s35.5 -16 49.5 -27s25.167 -24.333 33.5 -40s12.5 -33.5 12.5 -53.5
c0 -19.333 -4.33301 -39.166 -13 -59.499s-21.667 -37.833 -39 -52.5s-41.333 -26.667 -72 -36s-66 -14 -106 -14c-34 0 -64.5 3.5 -91.5 10.5s-49.667 16.667 -68 29s-32.333 26.5 -42 42.5s-14.5 33 -14.5 51c0 13.333 2.66699 26.5 8 39.5s12.333 25.167 21 36.5
s18.834 21.333 30.501 30s23.834 15.334 36.501 20.001v4c-27.333 12.667 -41 30 -41 52c0 14 5.16699 26.667 15.5 38s23.166 22.333 38.499 33v4zM243 173.996c18.667 0 35.165 3.16992 49.498 9.50293s26.5 14.666 36.5 24.999s17.667 22.5 23 36.5s8 28.667 8 44
s-2.66699 31 -8 47s-13.166 30.5 -23.499 43.5s-23.166 23.5 -38.499 31.5s-33 12 -53 12c-19.333 0 -36.166 -3.83301 -50.499 -11.5s-26.333 -17.5 -36 -29.5s-16.834 -25.333 -21.501 -40s-7 -29.334 -7 -44.001c0 -15.333 2.5 -30.333 7.5 -45
s12.667 -27.834 23 -39.501s23 -21.167 38 -28.5s32.5 -11 52.5 -11zM210.998 -5.00098c-15.333 0 -29.499 -3.00098 -42.499 -9.00098s-24.333 -13.667 -34 -23s-17.334 -19.833 -23.001 -31.5s-8.5 -23.167 -8.5 -34.5c0 -25.333 13.5 -45.5 40.5 -60.5
s63.5 -22.5 109.5 -22.5c22 0 42.5 1.83301 61.5 5.5s35.333 9.33398 49 17.001s24.5 17 32.5 28s12 24.167 12 39.5c0 30 -16.167 51.5 -48.5 64.5s-81.833 21.833 -148.5 26.5z" />
    <glyph glyph-name="h" unicode="h" horiz-adv-x="545" 
d="M401 0v304.001c0 40.667 -9 69.5 -27 86.5s-41 25.5 -69 25.5c-16.667 0 -33.167 -2.66699 -49.5 -8s-31.5 -13.166 -45.5 -23.499s-26.333 -23 -37 -38s-19 -32.167 -25 -51.5v-295h-70v740h70v-366c8.66699 28 27.5 51.833 56.5 71.5s65.833 29.5 110.5 29.5
c21.333 0 41.5 -2.83301 60.5 -8.5s35.5 -14.834 49.5 -27.501s25.167 -29.334 33.5 -50.001s12.5 -46 12.5 -76v-313h-70z" />
    <glyph glyph-name="i" unicode="i" horiz-adv-x="226" 
d="M148 0h-70v460h70v-460zM63 628c0 13.333 4.83301 25.333 14.5 36s21.5 16 35.5 16c13.333 0 25.333 -5.33301 36 -16s16 -22.667 16 -36c0 -14 -5.33301 -25.833 -16 -35.5s-22.667 -14.5 -36 -14.5c-14 0 -25.833 4.83301 -35.5 14.5s-14.5 21.5 -14.5 35.5z" />
    <glyph glyph-name="j" unicode="j" horiz-adv-x="226" 
d="M148 -3c0 -34 -3.16895 -66.499 -9.50195 -97.499s-15.833 -58.167 -28.5 -81.5s-28.667 -41.833 -48 -55.5s-41.666 -20.5 -66.999 -20.5c-10.667 0 -18 1 -22 3l-16 58c4 -2 11.333 -3 22 -3c22.667 0 40.667 6.5 54 19.5s23.333 29.167 30 48.5
s10.834 40.666 12.501 63.999s2.5 45.333 2.5 66v462h70v-463zM62.998 628.001c0 13.333 4.83301 25.333 14.5 36s21.5 16 35.5 16c13.333 0 25.333 -5.33301 36 -16s16 -22.667 16 -36c0 -14 -5.33301 -25.833 -16 -35.5s-22.667 -14.5 -36 -14.5
c-14 0 -25.833 4.83301 -35.5 14.5s-14.5 21.5 -14.5 35.5z" />
    <glyph glyph-name="k" unicode="k" horiz-adv-x="474" 
d="M266 298l196 -298h-80l-165 250l-69 -69v-181h-70v740h70v-474l202 194h80z" />
    <glyph glyph-name="l" unicode="l" horiz-adv-x="238" 
d="M154 0h-70v740h70v-740z" />
    <glyph glyph-name="m" unicode="m" horiz-adv-x="859" 
d="M397 0l-0.000976562 304.002c0 40.667 -9.33301 69.5 -28 86.5s-42 25.5 -70 25.5c-34 0 -64.667 -10.5 -92 -31.5s-47 -50.833 -59 -89.5v-295h-70v460h55l8 -86h4c8.66699 28 26.834 51.833 54.501 71.5s63.5 29.5 107.5 29.5c40 0 73.5 -8.83301 100.5 -26.5
s44.167 -42.5 51.5 -74.5c6.66699 13.333 15 26 25 38s22 22.667 36 32s30 16.833 48 22.5s38.333 8.5 61 8.5c20.667 0 40.5 -2.83301 59.5 -8.5s35.667 -14.834 50 -27.501s25.833 -29.334 34.5 -50.001s13 -46 13 -76v-313h-70v304c0 40.667 -9.33301 69.5 -28 86.5
s-42 25.5 -70 25.5c-34 0 -64.667 -10.5 -92 -31.5s-47 -50.833 -59 -89.5v-295h-70z" />
    <glyph glyph-name="n" unicode="n" horiz-adv-x="545" 
d="M401 0v304.001c0 40 -9 68.667 -27 86s-41 26 -69 26c-16.667 0 -33.167 -2.66699 -49.5 -8s-31.5 -13.166 -45.5 -23.499s-26.333 -23 -37 -38s-19 -32.167 -25 -51.5v-295h-70v460h55l8 -86h4c8.66699 28 28 51.833 58 71.5s67.333 29.5 112 29.5
c21.333 0 41.5 -2.83301 60.5 -8.5s35.5 -14.834 49.5 -27.501s25.167 -29.334 33.5 -50.001s12.5 -46 12.5 -76v-313h-70z" />
    <glyph glyph-name="o" unicode="o" horiz-adv-x="561" 
d="M280 475c40.667 0 75.668 -6.82812 105.001 -20.4951s53.5 -32 72.5 -55s33 -49.333 42 -79s13.5 -60.834 13.5 -93.501s-4.5 -63.5 -13.5 -92.5s-22.833 -54.333 -41.5 -76s-42.5 -38.834 -71.5 -51.501s-63.167 -19 -102.5 -19c-40.667 0 -75.834 6.66699 -105.501 20
s-54.167 31.166 -73.5 53.499s-33.666 48.166 -42.999 77.499s-14 60.333 -14 93s4.66699 63.667 14 93s23.5 55.166 42.5 77.499s43.167 40 72.5 53s63.666 19.5 102.999 19.5zM283.001 41.0049c26.667 0 49.8301 4.99902 69.4971 14.999s36 23.5 49 40.5
s22.5 36.667 28.5 59s9 45.833 9 70.5c0 25.333 -3.16699 49.666 -9.5 72.999s-16.166 43.833 -29.499 61.5s-30.166 31.834 -50.499 42.501s-44.5 16 -72.5 16c-27.333 0 -50.666 -5 -69.999 -15s-35.333 -23.333 -48 -40s-22 -36.167 -28 -58.5s-9 -45.833 -9 -70.5
c0 -25.333 3.16699 -49.666 9.5 -72.999s16 -44 29 -62s29.667 -32.333 50 -43s44.5 -16 72.5 -16z" />
    <glyph glyph-name="p" unicode="p" horiz-adv-x="575" 
d="M325 475c34 0 63.6719 -6.66699 89.0049 -20s46.333 -31 63 -53s29.167 -47.5 37.5 -76.5s12.5 -59.5 12.5 -91.5c0 -33.333 -4.5 -64.833 -13.5 -94.5s-22.333 -55.667 -40 -78s-39.834 -40.166 -66.501 -53.499s-57.667 -20 -93 -20
c-44.667 0 -81.334 9.66699 -110.001 29s-47.334 43.333 -56.001 72v-349h-70v720h55l8 -86h4c8 12 17.833 24.167 29.5 36.5s25.167 23.166 40.5 32.499s32.166 17 50.499 23s38.166 9 59.499 9zM307.005 416c-32 0 -61.832 -8.66504 -89.499 -25.998
s-50.834 -42.333 -69.501 -75v-147c6 -19.333 14.667 -36.333 26 -51s24.5 -27.334 39.5 -38.001s31 -18.667 48 -24s34.167 -8 51.5 -8c23.333 0 43.666 4.66699 60.999 14s31.833 22.333 43.5 39s20.5 36 26.5 58s9 45.667 9 71c0 24 -2.83301 47.333 -8.5 70
s-14.5 42.667 -26.5 60s-27.167 31.166 -45.5 41.499s-40.166 15.5 -65.499 15.5z" />
    <glyph glyph-name="q" unicode="q" horiz-adv-x="575" 
d="M247 475c22 0 42.502 -3 61.502 -9s36 -13.667 51 -23s28.5 -20 40.5 -32s22 -24.333 30 -37h4l8 86h55v-720h-70v349c-8.66699 -28.667 -27.334 -52.667 -56.001 -72s-65.334 -29 -110.001 -29c-35.333 0 -66.333 6.66699 -93 20s-48.834 31.166 -66.501 53.499
s-31 48.333 -40 78s-13.5 60.834 -13.5 93.501c0 32 4.16699 62.667 12.5 92s20.833 55 37.5 77s37.334 39.667 62.001 53s53.667 20 87 20zM268.002 416c-25.333 0 -47.165 -5.16895 -65.498 -15.502s-33.5 -24.166 -45.5 -41.499s-20.833 -37.333 -26.5 -60
s-8.5 -46 -8.5 -70c0 -25.333 3 -49 9 -71s14.833 -41.333 26.5 -58s26.167 -29.667 43.5 -39s37.666 -14 60.999 -14c17.333 0 34.5 2.66699 51.5 8s33 13.333 48 24s28.167 23.334 39.5 38.001s20 31.667 26 51v147c-18.667 32.667 -41.834 57.667 -69.501 75
s-57.5 26 -89.5 26z" />
    <glyph glyph-name="r" unicode="r" horiz-adv-x="357" 
d="M326 386c-10.667 6 -21.334 10.834 -32.001 14.501s-21 5.5 -31 5.5c-13.333 0 -26 -3.66699 -38 -11s-23 -17.333 -33 -30s-18.833 -27.334 -26.5 -44.001s-13.5 -34 -17.5 -52v-269h-70v460h55l8 -101h4c4.66699 15.333 10.834 30 18.501 44s17 26.333 28 37
s23.5 19.167 37.5 25.5s30 9.5 48 9.5c12.667 0 26 -2.16699 40 -6.5s24 -9.83301 30 -16.5z" />
    <glyph glyph-name="s" unicode="s" horiz-adv-x="441" 
d="M213 419c-32 0 -55.167 -5.83301 -69.5 -17.5s-21.5 -27.5 -21.5 -47.5c0 -6.66699 1 -13.667 3 -21s5.83301 -14.166 11.5 -20.499s13.334 -12.333 23.001 -18s22.5 -10.167 38.5 -13.5l71 -16c28 -6 50.5 -14.167 67.5 -24.5s30.167 -21.5 39.5 -33.5
s15.5 -24.167 18.5 -36.5s4.5 -23.833 4.5 -34.5c0 -20.667 -4.16699 -40 -12.5 -58s-20.333 -33.667 -36 -47s-34.834 -23.833 -57.501 -31.5s-48 -11.5 -76 -11.5c-35.333 0 -68 5.16699 -98 15.5s-54 21.833 -72 34.5l18 65c24 -22 50.667 -38 80 -48
s55.666 -15 78.999 -15c33.333 0 58.666 8.16699 75.999 24.5s26 33.5 26 51.5c0 6 -0.333008 12.833 -1 20.5s-3.33398 15.5 -8.00098 23.5s-11.667 15.5 -21 22.5s-22.666 12.5 -39.999 16.5l-96 24c-22 5.33301 -40 12.333 -54 21s-25 18.167 -33 28.5
s-13.667 21.333 -17 33s-5 23.5 -5 35.5c0 40.667 15.167 73.167 45.5 97.5s70.833 36.5 121.5 36.5c26 0 54 -3.5 84 -10.5s55.333 -17.167 76 -30.5l-19 -60c-13.333 11.333 -33.166 21.666 -59.499 30.999s-55.166 14 -86.499 14z" />
    <glyph glyph-name="t" unicode="t" horiz-adv-x="313" 
d="M99 413l-77 -0.00195312v37l79 10l15 139h53v-139h108v-47h-108v-319c0 -21.333 3.16699 -35.333 9.5 -42s16.166 -10 29.499 -10c15.333 0 29 2.33301 41 7s22.667 10.334 32 17.001l14 -53c-11.333 -5.33301 -26.166 -10.666 -44.499 -15.999s-38.5 -8 -60.5 -8
c-21.333 0 -38 3 -50 9s-21 14 -27 24s-9.83301 21.167 -11.5 33.5s-2.5 24.5 -2.5 36.5v321z" />
    <glyph glyph-name="u" unicode="u" horiz-adv-x="544" 
d="M143 460v-303.998c0 -20.667 2.5 -38 7.5 -52s11.667 -25.167 20 -33.5s18.333 -14.333 30 -18s24.5 -5.5 38.5 -5.5c16.667 0 33.167 2.5 49.5 7.5s31.5 12.5 45.5 22.5s26.333 22.333 37 37s19 31.667 25 51v295h70v-460h-55l-8 86h-4
c-8.66699 -28 -28 -51.333 -58 -70s-67.333 -28 -112 -28c-21.333 0 -41.5 2.66699 -60.5 8s-35.5 14.166 -49.5 26.499s-25.167 28.666 -33.5 48.999s-12.5 45.5 -12.5 75.5v313h70z" />
    <glyph glyph-name="v" unicode="v" horiz-adv-x="521" 
d="M305 0h-89l-209 460h76l179 -394l179 394h73z" />
    <glyph glyph-name="w" unicode="w" horiz-adv-x="822" 
d="M632 0h-95l-125 360l-132 -360h-95l-169 460h74l144 -392l144 392h74l135 -392l153 392h71z" />
    <glyph glyph-name="x" unicode="x" horiz-adv-x="517" 
d="M259 285l145 175h85l-189 -223l199 -237h-85l-157 187l-154 -187h-85l198 235l-188 225h85z" />
    <glyph glyph-name="y" unicode="y" horiz-adv-x="519" 
d="M296 -4l-36.001 -75.498c-14 -29 -30.667 -56.5 -50 -82.5s-42 -48.167 -68 -66.5s-55.333 -27.5 -88 -27.5c-5.33301 0 -9.33301 0.166992 -12 0.5s-5.66699 1.16602 -9 2.49902l-13 66c2 -0.666992 4.33301 -1.33398 7 -2.00098s7.33398 -1 14.001 -1
c13.333 0 25.833 1.33301 37.5 4s23.167 8 34.5 16c23.333 16.667 44.5 41 63.5 73s36.167 69.333 51.5 112l-230 445h83l183 -383l164 383h79z" />
    <glyph glyph-name="z" unicode="z" horiz-adv-x="417" 
d="M42 60l243 341h-233v59h314v-58l-245 -343h255v-59h-334v60z" />
    <glyph glyph-name="braceleft" unicode="{" horiz-adv-x="285" 
d="M242 739c-14.667 -1.33301 -26.3359 -4.99707 -35.0029 -10.9971s-15.167 -13.5 -19.5 -22.5s-7.16602 -19.5 -8.49902 -31.5s-2 -24.333 -2 -37c0 -6 0.166992 -15.333 0.5 -28s0.5 -26 0.5 -40s0.166992 -27.833 0.5 -41.5s0.5 -24.834 0.5 -33.501
c0 -20.667 -1.5 -40.167 -4.5 -58.5s-8 -34.833 -15 -49.5s-16.5 -27.167 -28.5 -37.5s-27.333 -17.5 -46 -21.5c18.667 -4 34 -11.167 46 -21.5s21.5 -22.833 28.5 -37.5s12 -31.167 15 -49.5s4.5 -37.833 4.5 -58.5c0 -8.66699 -0.166992 -19.834 -0.5 -33.501
s-0.5 -27.5 -0.5 -41.5s-0.166992 -27.333 -0.5 -40s-0.5 -22 -0.5 -28c0 -13.333 0.666992 -25.833 2 -37.5s4.16602 -22 8.49902 -31s10.833 -16.5 19.5 -22.5s20.334 -9.66699 35.001 -11l-2 -21c-28.667 0 -51.834 3.5 -69.501 10.5s-31.167 16.667 -40.5 29
s-15.666 27.166 -18.999 44.499s-5 36.666 -5 57.999c0 7.33301 0.166992 17.333 0.5 30s0.5 26.167 0.5 40.5s0.166992 28.5 0.5 42.5s0.5 25.667 0.5 35c0 12 -0.5 25.333 -1.5 40s-3.66699 28.334 -8 41.001s-11.333 23.5 -21 32.5s-23.5 13.833 -41.5 14.5v30
c18 0.666992 31.833 5.66699 41.5 15s16.834 20.666 21.501 33.999s7.33398 27.333 8.00098 42s1 28 1 40c0 10 -0.166992 21.833 -0.5 35.5s-0.5 27.5 -0.5 41.5s-0.166992 27 -0.5 39s-0.5 21.667 -0.5 29c0 20.667 1.66699 39.834 5 57.501s9.66602 32.667 18.999 45
s22.833 22 40.5 29s40.834 10.5 69.501 10.5z" />
    <glyph glyph-name="bar" unicode="|" horiz-adv-x="240" 
d="M151 -114h-62v882h62v-882z" />
    <glyph glyph-name="braceright" unicode="}" horiz-adv-x="285" 
d="M45 760c28.667 0 51.832 -3.50293 69.499 -10.5029s31.167 -16.667 40.5 -29s15.666 -27.333 18.999 -45s5 -36.834 5 -57.501c0 -7.33301 -0.166992 -17 -0.5 -29s-0.5 -25 -0.5 -39s-0.166992 -27.833 -0.5 -41.5s-0.5 -25.5 -0.5 -35.5c0 -12 0.333008 -25.333 1 -40
s3.33398 -28.667 8.00098 -42s11.834 -24.666 21.501 -33.999s23.5 -14.333 41.5 -15v-30c-18 -0.666992 -31.833 -5.5 -41.5 -14.5s-16.667 -19.833 -21 -32.5s-7 -26.334 -8 -41.001s-1.5 -28 -1.5 -40c0 -9.33301 0.166992 -21 0.5 -35s0.5 -28.167 0.5 -42.5
s0.166992 -27.833 0.5 -40.5s0.5 -22.667 0.5 -30c0 -21.333 -1.66699 -40.666 -5 -57.999s-9.66602 -32.166 -18.999 -44.499s-22.833 -22 -40.5 -29s-40.834 -10.5 -69.501 -10.5l-2 21c14.667 1.33301 26.334 5 35.001 11s15.167 13.5 19.5 22.5
s7.16602 19.333 8.49902 31s2 24.167 2 37.5c0 6 -0.166992 15.333 -0.5 28s-0.5 26 -0.5 40s-0.166992 27.833 -0.5 41.5s-0.5 24.834 -0.5 33.501c0 20.667 1.5 40.167 4.5 58.5s8 34.833 15 49.5s16.5 27.167 28.5 37.5s27.333 17.5 46 21.5
c-18.667 4 -34 11.167 -46 21.5s-21.5 22.833 -28.5 37.5s-12 31.167 -15 49.5s-4.5 37.833 -4.5 58.5c0 8.66699 0.166992 19.834 0.5 33.501s0.5 27.5 0.5 41.5s0.166992 27.333 0.5 40s0.5 22 0.5 28c0 12.667 -0.666992 25 -2 37s-4.16602 22.5 -8.49902 31.5
s-10.833 16.5 -19.5 22.5s-20.334 9.66699 -35.001 11z" />
    <glyph glyph-name="asciitilde" unicode="~" horiz-adv-x="496" 
d="M422 288c0 -2 -1.66406 -7.16895 -4.99707 -15.502s-8.5 -17 -15.5 -26s-16 -17.167 -27 -24.5s-24.5 -11 -40.5 -11c-7.33301 0 -19.333 0.5 -36 1.5s-34.834 2 -54.501 3l-57 3c-18.333 1 -32.833 1.5 -43.5 1.5c-16.667 0 -28.334 -2.16699 -35.001 -6.5
s-13.334 -10.5 -20.001 -18.5l-13 7c0 4.66699 2 11.334 6 20.001s10 17.334 18 26.001s17.667 16 29 22s24 9 38 9c8.66699 0 20.167 -0.5 34.5 -1.5s29.666 -2 45.999 -3l50.5 -3c17.333 -1 33.333 -1.5 48 -1.5c11.333 0 22.833 1.33301 34.5 4s21.834 10 30.501 22z" />
    <glyph glyph-name="uni00A0" unicode="&#xa0;" horiz-adv-x="245" 
 />
    <glyph glyph-name="exclamdown" unicode="&#xa1;" horiz-adv-x="240" 
d="M74 429c0 12.667 4.5 23.5 13.5 32.5s20.167 13.5 33.5 13.5c12 0 22.833 -4.5 32.5 -13.5s14.5 -19.833 14.5 -32.5s-4.83301 -23.834 -14.5 -33.501s-20.5 -14.5 -32.5 -14.5c-13.333 0 -24.5 4.83301 -33.5 14.5s-13.5 20.834 -13.5 33.501zM143 314l26 -532h-97
l24 532h47z" />
    <glyph glyph-name="cent" unicode="&#xa2;" horiz-adv-x="506" 
d="M317 443c26.667 -2 52.166 -6.33008 76.499 -12.9971s44.166 -15 59.499 -25l-17 -59c-12.667 9.33301 -29.834 17.666 -51.501 24.999s-44.167 12.666 -67.5 15.999v-343c23.333 3.33301 46.5 10.166 69.5 20.499s42.167 23.166 57.5 38.499l14 -65
c-15.333 -10 -35.333 -19.667 -60 -29s-51.667 -15.666 -81 -18.999v-127h-60v126c-35.333 2.66699 -66.166 10.5 -92.499 23.5s-48.166 30 -65.499 51s-30.333 44.833 -39 71.5s-13 54.667 -13 84c0 28 4 55 12 81s20.5 49.167 37.5 69.5s38.833 37 65.5 50
s58.334 21.167 95.001 24.5v133h60v-134zM120.999 225.003c0 -22 2.83203 -42.999 8.49902 -62.999s14.334 -38 26.001 -54s26 -29.333 43 -40s36.5 -18 58.5 -22v342c-24 -3.33301 -44.667 -9.83301 -62 -19.5s-31.5 -21.834 -42.5 -36.501s-19 -31.167 -24 -49.5
s-7.5 -37.5 -7.5 -57.5z" />
    <glyph glyph-name="sterling" unicode="&#xa3;" horiz-adv-x="567" 
d="M181 51c20.667 -1.33301 41.5 -4.16504 62.5 -8.49805s42.167 -9 63.5 -14s42.666 -9.5 63.999 -13.5s43 -6 65 -6c16.667 0 31.834 1.5 45.501 4.5s28.167 7.83301 43.5 14.5l-19 -73c-16.667 -8.66699 -30.667 -14.167 -42 -16.5s-24.333 -3.5 -39 -3.5
c-24 0 -47.667 3.5 -71 10.5s-46.5 14.5 -69.5 22.5s-46.333 15.5 -70 22.5s-48.5 10.5 -74.5 10.5c-6.66699 0 -19 -1.5 -37 -4.5s-36.333 -12.167 -55 -27.5l-14 47c26 11.333 48 25.333 66 42s32.5 35.167 43.5 55.5s19 42.166 24 65.499s7.5 47 7.5 71v15h-98v52h94
c-3.33301 30.667 -7.33301 60.667 -12 90s-7 55.666 -7 78.999c0 32.667 5.66699 60.334 17 83.001s26.166 41.167 44.499 55.5s38.833 24.666 61.5 30.999s45 9.5 67 9.5c30.667 0 60 -4.83301 88 -14.5s50.667 -21.167 68 -34.5l-18 -66
c-13.333 13.333 -32.666 24.833 -57.999 34.5s-51.333 14.5 -78 14.5c-20 0 -36.5 -2.83301 -49.5 -8.5s-23.333 -13.5 -31 -23.5s-13.167 -21.833 -16.5 -35.5s-5 -28.167 -5 -43.5c0 -22.667 2.16699 -48.5 6.5 -77.5s7.5 -60.167 9.5 -93.5h139v-52h-137
c-1.33301 -34 -8.5 -69.833 -21.5 -107.5s-32.833 -72.167 -59.5 -103.5z" />
    <glyph glyph-name="currency" unicode="&#xa4;" horiz-adv-x="581" 
d="M136 107c-29.333 36 -44 77.0029 -44 123.003c0 21.333 3.33301 41.666 10 60.999s18.334 39.333 35.001 60l-82 80l30 30l80 -79c21.333 15.333 41.666 26.5 60.999 33.5s40.333 10.5 63 10.5c23.333 0 44.833 -3.5 64.5 -10.5s39.167 -18.167 58.5 -33.5l81 78l30 -29
l-79 -80c15.333 -20.667 26.5 -40.667 33.5 -60s10.5 -40.333 10.5 -63c0 -22 -3.33301 -42.667 -10 -62s-17.667 -39 -33 -59l80 -80l-31 -30l-81 79c-19.333 -14.667 -39 -25.834 -59 -33.501s-41 -11.5 -63 -11.5c-21.333 0 -41.833 3.66699 -61.5 11
s-40.5 18.666 -62.5 33.999l-80 -79l-29 30zM290 378.003c-20 0 -39.001 -3.83398 -57.001 -11.501s-33.833 -18.167 -47.5 -31.5s-24.334 -29.166 -32.001 -47.499s-11.5 -37.833 -11.5 -58.5s3.83301 -40 11.5 -58s18.334 -33.833 32.001 -47.5s29.5 -24.334 47.5 -32.001
s37.333 -11.5 58 -11.5s39.834 3.83301 57.501 11.5s33.167 18.334 46.5 32.001s23.833 29.5 31.5 47.5s11.5 37.333 11.5 58s-3.83301 40 -11.5 58s-18.167 33.667 -31.5 47s-29 24 -47 32s-37.333 12 -58 12z" />
    <glyph glyph-name="yen" unicode="&#xa5;" horiz-adv-x="649" 
d="M288 255v12l-27 41h-145v52h111l-196 300h89l209 -317l202 317h87l-197 -300h114v-52h-148l-24 -37v-16h172v-52h-172v-203h-75v203h-172v52h172z" />
    <glyph glyph-name="brokenbar" unicode="&#xa6;" horiz-adv-x="244" 
d="M153 274v-388h-62v388h62zM91 380v388h62v-388h-62z" />
    <glyph glyph-name="section" unicode="&#xa7;" horiz-adv-x="440" 
d="M276 72c0 19.333 -5.66602 36.6631 -16.999 51.9961s-25.5 30 -42.5 44s-35.5 28 -55.5 42s-38.5 28.833 -55.5 44.5s-31.167 33 -42.5 52s-17 40.833 -17 65.5c0 25.333 5.83301 49.5 17.5 72.5s27.167 41.833 46.5 56.5c-8 18 -12 38.667 -12 62
c0 24.667 4.5 46.167 13.5 64.5s20.667 33.5 35 45.5s30.166 21 47.499 27s34.333 9 51 9c19.333 0 39.666 -3.66699 60.999 -11s39.333 -16.333 54 -27l-25 -67c-12 13.333 -26.5 23.666 -43.5 30.999s-33.833 11 -50.5 11c-20 0 -37.833 -6.16699 -53.5 -18.5
s-23.5 -30.166 -23.5 -53.499c0 -19.333 5.66699 -36.666 17 -51.999s25.5 -30 42.5 -44s35.5 -28 55.5 -42s38.5 -28.833 55.5 -44.5s31.167 -33 42.5 -52s17 -40.833 17 -65.5c0 -25.333 -5.83301 -49.666 -17.5 -72.999s-27.167 -42 -46.5 -56
c3.33301 -9.33301 6.16602 -19.166 8.49902 -29.499s3.5 -21.166 3.5 -32.499c0 -24.667 -4.5 -46.167 -13.5 -64.5s-20.667 -33.5 -35 -45.5s-30.166 -21 -47.499 -27s-34.333 -9 -51 -9c-19.333 0 -39.666 3.66699 -60.999 11s-39.333 16.333 -54 27l25 67
c12 -13.333 26.5 -23.666 43.5 -30.999s33.833 -11 50.5 -11c20 0 37.833 6.16699 53.5 18.5s23.5 30.166 23.5 53.499zM332.001 249.997c0 21.333 -7.33301 40.334 -22 57.001s-32.334 32.834 -53.001 48.501l-65 48c-22.667 16.333 -42 35.166 -58 56.499
c-9.33301 -8.66699 -16 -18.834 -20 -30.501s-6 -22.834 -6 -33.501c0 -22 7.16699 -41.333 21.5 -58s31.833 -32.667 52.5 -48l65 -48c22.667 -16.667 42.334 -35.667 59.001 -57c9.33301 8.66699 16 18.834 20 30.501s6 23.167 6 34.5z" />
    <glyph glyph-name="dieresis" unicode="&#xa8;" horiz-adv-x="220" 
d="M0 631c0 12 4 22.5 12 31.5s17.667 13.5 29 13.5s21.166 -4.5 29.499 -13.5s12.5 -19.5 12.5 -31.5c0 -12.667 -4.16699 -23.167 -12.5 -31.5s-18.166 -12.5 -29.499 -12.5s-21 4.16699 -29 12.5s-12 18.833 -12 31.5zM137 631c0 12 4 22.5 12 31.5s17.667 13.5 29 13.5
s21.166 -4.5 29.499 -13.5s12.5 -19.5 12.5 -31.5c0 -12.667 -4.16699 -23.167 -12.5 -31.5s-18.166 -12.5 -29.499 -12.5s-21 4.16699 -29 12.5s-12 18.833 -12 31.5z" />
    <glyph glyph-name="copyright" unicode="&#xa9;" horiz-adv-x="725" 
d="M362 654c42 0 81.499 -7.83301 118.499 -23.5s69.167 -37.167 96.5 -64.5s49 -59.166 65 -95.499s24 -75.166 24 -116.499c0 -42 -8 -81.5 -24 -118.5s-37.833 -69 -65.5 -96s-60.334 -48.333 -98.001 -64s-78.167 -23.5 -121.5 -23.5c-40.667 0 -79.167 8 -115.5 24
s-68 37.667 -95 65s-48.333 59.333 -64 96s-23.5 75.667 -23.5 117s7.83301 80.166 23.5 116.499s37.334 68.166 65.001 95.499s59.834 48.833 96.501 64.5s76 23.5 118 23.5zM361.999 613c-36 0 -69.665 -6.66406 -100.998 -19.9971s-58.5 -31.833 -81.5 -55.5
s-41 -51.167 -54 -82.5s-19.5 -65 -19.5 -101c0 -36.667 6.5 -70.834 19.5 -102.501s31 -59.334 54 -83.001s49.667 -42.167 80 -55.5s63.166 -20 98.499 -20c37.333 0 71.833 6.66699 103.5 20s59.167 31.666 82.5 54.999s41.666 50.833 54.999 82.5s20 66.167 20 103.5
c0 36 -6.66699 69.667 -20 101s-31.5 58.833 -54.5 82.5s-50.167 42.167 -81.5 55.5s-65 20 -101 20zM468.001 442.003c-10.667 8 -26.168 15 -46.501 21s-40.166 9 -59.499 9c-18.667 0 -34.5 -3 -47.5 -9s-23.5 -14 -31.5 -24s-13.833 -21.833 -17.5 -35.5
s-5.5 -28.167 -5.5 -43.5c0 -34 8.83301 -63 26.5 -87s44.167 -36 79.5 -36c19.333 0 38.833 3.83301 58.5 11.5s36.167 17.834 49.5 30.501l9 -56c-13.333 -8.66699 -31.333 -16.667 -54 -24s-46.667 -11 -72 -11c-27.333 0 -50.833 4.5 -70.5 13.5s-36 21 -49 36
s-22.667 32.667 -29 53s-9.5 42.166 -9.5 65.499c0 22.667 3 44 9 64s15.5 37.5 28.5 52.5s29.833 26.833 50.5 35.5s45.667 13 75 13c22 0 43.833 -2.5 65.5 -7.5s39.167 -11.833 52.5 -20.5z" />
    <glyph glyph-name="ordfeminine" unicode="&#xaa;" horiz-adv-x="373" 
d="M258 369l-5.00391 48.999h-4c-9.33301 -15.333 -24.166 -28.666 -44.499 -39.999s-42.166 -17 -65.499 -17c-26 0 -45.667 7.66699 -59 23s-20 34.666 -20 57.999c0 22.667 5.83301 41 17.5 55s25.834 24.5 42.501 31.5s34.334 11.667 53.001 14s35 3.5 49 3.5h27v7
c0 22.667 -7 39.5 -21 50.5s-32.667 16.5 -56 16.5c-17.333 0 -32.333 -2.16699 -45 -6.5s-25 -10.166 -37 -17.499l-10 36c13.333 8 28 14.333 44 19s33.333 7 52 7c15.333 0 30.333 -1.83301 45 -5.5s27.667 -9.5 39 -17.5s20.5 -18.333 27.5 -31s10.5 -28 10.5 -46v-189
h-40zM151.996 401.999c16 0 33.333 5.49902 52 16.499s33.667 26.167 45 45.5v48h-5c-16 0 -32.167 -0.666992 -48.5 -2s-31 -4.16602 -44 -8.49902s-23.5 -11 -31.5 -20s-12 -21.167 -12 -36.5s3.66699 -26.333 11 -33s18.333 -10 33 -10z" />
    <glyph glyph-name="guillemotleft" unicode="&#xab;" horiz-adv-x="484" 
d="M121 238l144 -177h-80l-133 177v5l134 177h79l-144 -177v-5zM283 238l144 -177h-80l-133 177v5l134 177h79l-144 -177v-5z" />
    <glyph glyph-name="logicalnot" unicode="&#xac;" horiz-adv-x="632" 
d="M556 341v-224h-53v172h-427v52h480z" />
    <glyph glyph-name="uni00AD" unicode="&#xad;" horiz-adv-x="487" 
d="M412 265l-2 -52h-336l2 52h336z" />
    <glyph glyph-name="registered" unicode="&#xae;" horiz-adv-x="725" 
d="M362 654c42 0 81.499 -7.83301 118.499 -23.5s69.167 -37.167 96.5 -64.5s49 -59.166 65 -95.499s24 -75.166 24 -116.499c0 -42 -8 -81.5 -24 -118.5s-37.833 -69 -65.5 -96s-60.334 -48.333 -98.001 -64s-78.167 -23.5 -121.5 -23.5c-40.667 0 -79.167 8 -115.5 24
s-68 37.667 -95 65s-48.333 59.333 -64 96s-23.5 75.667 -23.5 117s7.83301 80.166 23.5 116.499s37.334 68.166 65.001 95.499s59.834 48.833 96.501 64.5s76 23.5 118 23.5zM361.999 613c-36 0 -69.665 -6.66406 -100.998 -19.9971s-58.5 -31.833 -81.5 -55.5
s-41 -51.167 -54 -82.5s-19.5 -65 -19.5 -101c0 -36.667 6.5 -70.834 19.5 -102.501s31 -59.334 54 -83.001s49.667 -42.167 80 -55.5s63.166 -20 98.499 -20c37.333 0 71.833 6.66699 103.5 20s59.167 31.666 82.5 54.999s41.666 50.833 54.999 82.5s20 66.167 20 103.5
c0 36 -6.66699 69.667 -20 101s-31.5 58.833 -54.5 82.5s-50.167 42.167 -81.5 55.5s-65 20 -101 20zM262.001 530.003c11.333 0.666992 25.333 1.16699 42 1.5s31 0.5 43 0.5c18 0 34.667 -1.5 50 -4.5s28.5 -8 39.5 -15s19.5 -16.5 25.5 -28.5s9 -27 9 -45
c0 -20.667 -7 -39.167 -21 -55.5s-33.333 -27.833 -58 -34.5l101 -148h-55l-99 145h-29v-145h-48v329zM349.001 494.003c-7.33301 0 -14.167 -0.166016 -20.5 -0.499023s-12.5 -0.5 -18.5 -0.5v-111c6 -0.666992 12.333 -1 19 -1h21c22 0 39.333 5.33301 52 16s19 26 19 46
c0 15.333 -5.5 27.666 -16.5 36.999s-29.5 14 -55.5 14z" />
    <glyph glyph-name="degree" unicode="&#xb0;" horiz-adv-x="358" 
d="M178 658c40.667 0 71.335 -11.6709 92.002 -35.0039s31 -51 31 -83c0 -14.667 -2.5 -28.667 -7.5 -42s-12.5 -25.166 -22.5 -35.499s-22.833 -18.5 -38.5 -24.5s-33.834 -9 -54.501 -9c-21.333 0 -39.666 3.16699 -54.999 9.5s-27.833 14.833 -37.5 25.5
s-16.834 22.834 -21.501 36.501s-7 27.834 -7 42.501c0 16 2.66699 30.833 8 44.5s13.166 25.834 23.499 36.501s23 19 38 25s32.167 9 51.5 9zM178.001 466.996c25.333 0 43.833 6.83301 55.5 20.5s17.5 31.167 17.5 52.5s-6 39.5 -18 54.5s-30.667 22.5 -56 22.5
c-26 0 -44.667 -7.16699 -56 -21.5s-17 -31.5 -17 -51.5c0 -21.333 6.16699 -39.5 18.5 -54.5s30.833 -22.5 55.5 -22.5z" />
    <glyph glyph-name="plusminus" unicode="&#xb1;" horiz-adv-x="483" 
d="M267 351h134v-53h-134v-115h-52v115h-133v53h133v104h52v-104zM401 123v-53h-319v53h319z" />
    <glyph glyph-name="twosuperior" unicode="&#xb2;" horiz-adv-x="375" 
d="M80 616c15.333 14 32.3301 25.667 50.9971 35s37.667 14 57 14c35.333 0 62.333 -9 81 -27s28 -41.333 28 -70c0 -22 -5.16699 -42.5 -15.5 -61.5s-23.666 -37.5 -39.999 -55.5s-34.666 -35.833 -54.999 -53.5s-40.5 -36.5 -60.5 -56.5h175v-42h-236v42
c16 20 34.333 39.167 55 57.5s40.167 36.666 58.5 54.999s34 36.833 47 55.5s19.5 38 19.5 58c0 6 -0.833008 12.333 -2.5 19s-4.66699 12.834 -9 18.501s-10.166 10.5 -17.499 14.5s-17 6 -29 6c-17.333 0 -34.833 -5.16699 -52.5 -15.5s-32.167 -22.833 -43.5 -37.5z" />
    <glyph glyph-name="threesuperior" unicode="&#xb3;" horiz-adv-x="357" 
d="M80 635c13.333 8.66699 27.1641 15.8311 41.4971 21.498s29.5 8.5 45.5 8.5c36 0 63.667 -8 83 -24s29 -39.333 29 -70c0 -14.667 -5.66699 -28.167 -17 -40.5s-24.666 -22.166 -39.999 -29.499c23.333 -7.33301 41.833 -18.166 55.5 -32.499s20.5 -33.5 20.5 -57.5
c0 -15.333 -2.66699 -30 -8 -44s-13.833 -26.5 -25.5 -37.5s-26.334 -19.667 -44.001 -26s-38.834 -9.5 -63.501 -9.5c-23.333 0 -42.166 3.33301 -56.499 10s-29.166 16 -44.499 28l12 40c14 -11.333 27 -20.5 39 -27.5s28 -10.5 48 -10.5
c32.667 0 56.334 7.33301 71.001 22s22 34.667 22 60c0 20 -6.5 35.833 -19.5 47.5s-37.833 17.5 -74.5 17.5h-12v34h15c24.667 0 42.834 5.33301 54.501 16s17.5 25.667 17.5 45c0 14.667 -3.66699 26.5 -11 35.5s-23 13.5 -47 13.5c-18 0 -33.333 -2.83301 -46 -8.5
s-24 -12.5 -34 -20.5z" />
    <glyph glyph-name="acute" unicode="&#xb4;" horiz-adv-x="219" 
d="M6 552l-5.99902 20.001l3 7l180 101c11.333 -0.666992 20.166 -4.33398 26.499 -11.001s9.5 -14.667 9.5 -24c0 -6.66699 -1.33301 -13 -4 -19l-202 -77z" />
    <glyph glyph-name="mu" unicode="&#xb5;" horiz-adv-x="577" 
d="M186 460v-304c0 -20.667 2.5 -38 7.5 -52s11.667 -25.167 20 -33.5s18.333 -14.333 30 -18s24.5 -5.5 38.5 -5.5c16.667 0 33.167 2.5 49.5 7.5s31.5 12.5 45.5 22.5s26.333 22.333 37 37s19 31.667 25 51v295h70v-460h-55l-8 86h-4c-8.66699 -28 -28 -51.333 -58 -70
s-67.333 -28 -112 -28c-21.333 0 -41.666 2.66699 -60.999 8s-36 14.333 -50 27l-3 -13c-11.333 -49.333 -29.333 -99.333 -54 -150l-64 29c12 22.667 22.667 44.167 32 64.5s17.166 40.833 23.499 61.5s11.333 41.667 15 63s5.5 44.333 5.5 69v313h70z" />
    <glyph glyph-name="paragraph" unicode="&#xb6;" horiz-adv-x="533" 
d="M285 248l-20.999 -0.000976562c-39.333 0 -73.333 5.5 -102 16.5s-52.334 25.833 -71.001 44.5s-32.667 40.334 -42 65.001s-14 51 -14 79c0 34.667 5.66699 65.167 17 91.5s27.5 48.5 48.5 66.5s46.333 31.5 76 40.5s62.5 13.5 98.5 13.5c23.333 0 48.5 -0.5 75.5 -1.5
s54.833 -2.16699 83.5 -3.5v-746h-45v685h-54v-685h-50v334z" />
    <glyph glyph-name="periodcentered" unicode="&#xb7;" horiz-adv-x="242" 
d="M74 243c0 12.667 4.5 23.834 13.5 33.501s20.167 14.5 33.5 14.5c12 0 22.833 -4.83301 32.5 -14.5s14.5 -20.834 14.5 -33.501s-4.83301 -23.5 -14.5 -32.5s-20.5 -13.5 -32.5 -13.5c-13.333 0 -24.5 4.5 -33.5 13.5s-13.5 19.833 -13.5 32.5z" />
    <glyph glyph-name="cedilla" unicode="&#xb8;" horiz-adv-x="202" 
d="M0 -178l12.999 23.001h7c8 -3.33301 18.333 -6.16602 31 -8.49902s25.334 -3.5 38.001 -3.5c14.667 0 27.334 2.83301 38.001 8.5s16 16.167 16 31.5c0 18 -5.16699 30.167 -15.5 36.5s-22.5 9.5 -36.5 9.5c-8 0 -16.167 -0.666992 -24.5 -2s-16.166 -3 -23.499 -5l-9 11
l51 77h34l-30 -51c11.333 2.66699 22.666 4 33.999 4c23.333 0 42.333 -6.83301 57 -20.5s22 -30.834 22 -51.501c0 -11.333 -2.83301 -22 -8.5 -32s-13.334 -18.833 -23.001 -26.5s-21.167 -13.834 -34.5 -18.501s-28 -7 -44 -7s-31.833 1.83301 -47.5 5.5
s-30.167 8.16699 -43.5 13.5z" />
    <glyph glyph-name="onesuperior" unicode="&#xb9;" horiz-adv-x="248" 
d="M167 299h-54v286l-57 -28l-13 42l124 66v-366z" />
    <glyph glyph-name="ordmasculine" unicode="&#xba;" horiz-adv-x="390" 
d="M194 658c22.667 0 42.666 -3.99902 59.999 -11.999s32 -18.833 44 -32.5s21 -29.5 27 -47.5s9 -36.667 9 -56c0 -18 -2.83301 -35.5 -8.5 -52.5s-14.334 -32 -26.001 -45s-26.167 -23.5 -43.5 -31.5s-37.666 -12 -60.999 -12c-24 0 -44.667 4 -62 12
s-31.666 18.833 -42.999 32.5s-19.833 29.167 -25.5 46.5s-8.5 35 -8.5 53c0 20 3.16699 38.667 9.5 56s15.5 32.666 27.5 45.999s26.5 23.833 43.5 31.5s36.167 11.5 57.5 11.5zM194.999 410.001c31.333 0 53.666 9.33301 66.999 28s20 42.667 20 72
c0 28.667 -7.16699 53.167 -21.5 73.5s-37.166 30.5 -68.499 30.5s-53.333 -9.5 -66 -28.5s-19 -42.833 -19 -71.5c0 -29.333 7.16699 -54 21.5 -74s36.5 -30 66.5 -30z" />
    <glyph glyph-name="guillemotright" unicode="&#xbb;" horiz-adv-x="484" 
d="M363 243l-144 177h79l134 -177v-5l-133 -177h-80l144 177v5zM201 243l-144 177h79l134 -177v-5l-133 -177h-80l144 177v5z" />
    <glyph glyph-name="onequarter" unicode="&#xbc;" horiz-adv-x="711" 
d="M668 110h-36v-111h-45v111h-150v42l147 213h48v-213h36v-42zM587 152v154l-99 -154h99zM144 -24h-65l463 715h65zM159 299h-54v286l-57 -28l-13 42l124 66v-366z" />
    <glyph glyph-name="onehalf" unicode="&#xbd;" horiz-adv-x="715" 
d="M161 299h-54v286l-57 -28l-13 42l124 66v-366zM126 -24h-65l463 715h65zM449 315c15.333 14 32.3301 25.667 50.9971 35s37.667 14 57 14c35.333 0 62.333 -9 81 -27s28 -41.333 28 -70c0 -22 -5.16699 -42.5 -15.5 -61.5s-23.666 -37.5 -39.999 -55.5
s-34.666 -35.833 -54.999 -53.5s-40.5 -36.5 -60.5 -56.5h175v-42h-236v42c16 20 34.333 39.167 55 57.5s40.167 36.666 58.5 54.999s34 36.833 47 55.5s19.5 38 19.5 58c0 6 -0.833008 12.333 -2.5 19s-4.66699 12.834 -9 18.501s-10.166 10.5 -17.499 14.5s-17 6 -29 6
c-17.333 0 -34.833 -5.16699 -52.5 -15.5s-32.167 -22.833 -43.5 -37.5z" />
    <glyph glyph-name="threequarters" unicode="&#xbe;" horiz-adv-x="750" 
d="M61 634c13.333 8.66699 27.1641 15.8311 41.4971 21.498s29.5 8.5 45.5 8.5c36 0 63.667 -8 83 -24s29 -39.333 29 -70c0 -14.667 -5.66699 -28.167 -17 -40.5s-24.666 -22.166 -39.999 -29.499c23.333 -7.33301 41.833 -18.166 55.5 -32.499s20.5 -33.5 20.5 -57.5
c0 -15.333 -2.66699 -30 -8 -44s-13.833 -26.5 -25.5 -37.5s-26.334 -19.667 -44.001 -26s-38.834 -9.5 -63.501 -9.5c-23.333 0 -42.166 3.33301 -56.499 10s-29.166 16 -44.499 28l12 40c14 -11.333 27 -20.5 39 -27.5s28 -10.5 48 -10.5
c32.667 0 56.334 7.33301 71.001 22s22 34.667 22 60c0 20 -6.5 35.833 -19.5 47.5s-37.833 17.5 -74.5 17.5h-12v34h15c24.667 0 42.834 5.33301 54.501 16s17.5 25.667 17.5 45c0 14.667 -3.66699 26.5 -11 35.5s-23 13.5 -47 13.5c-18 0 -33.333 -2.83301 -46 -8.5
s-24 -12.5 -34 -20.5zM706.998 109.997h-36v-111h-45v111h-150v42l147 213h48v-213h36v-42zM625.998 151.997v154l-99 -154h99zM196.998 -24.0029h-65l463 715h65z" />
    <glyph glyph-name="questiondown" unicode="&#xbf;" horiz-adv-x="402" 
d="M268 428c0 -13.333 -4.5 -24.5 -13.5 -33.5s-19.833 -13.5 -32.5 -13.5s-23.834 4.5 -33.501 13.5s-14.5 20.167 -14.5 33.5c0 12.667 4.83301 23.667 14.5 33s20.834 14 33.501 14s23.5 -4.66699 32.5 -14s13.5 -20.333 13.5 -33zM365 -173
c-18 -14 -40.332 -25.6689 -66.999 -35.002s-52.667 -14 -78 -14c-26.667 0 -50.834 4 -72.501 12s-40 19 -55 33s-26.5 31 -34.5 51s-12 42 -12 66c0 20 3.5 38.833 10.5 56.5s16 35.334 27 53.001s22.667 35.5 35 53.5s24 37.5 35 58.5s20.167 43.833 27.5 68.5
s11 52.334 11 83.001h64c0 -33.333 -3.33301 -63 -10 -89s-15.167 -49.5 -25.5 -70.5s-21.5 -40.167 -33.5 -57.5l-33.5 -50.5c-10.333 -16.333 -18.833 -33.166 -25.5 -50.499s-10 -36 -10 -56c0 -26.667 8.5 -49.334 25.5 -68.001s42.833 -28 77.5 -28
c10.667 0 22 1.33301 34 4s23.667 6.16699 35 10.5s21.833 9.5 31.5 15.5s18.167 12.667 25.5 20z" />
    <glyph glyph-name="Agrave" unicode="&#xc0;" 
d="M650 0h-85l-97 222h-295l-88 -222h-80l264 660h91zM201 292h236l-124 284zM419 718l-201 77.001c-2.66699 6 -4 12.333 -4 19c0 9.33301 3 17.166 9 23.499s14.667 9.83301 26 10.5l181 -100l2 -7l-5 -20z" />
    <glyph glyph-name="Aacute" unicode="&#xc1;" 
d="M650 0h-85l-97 222h-295l-88 -222h-80l264 660h91zM201 292h236l-124 284zM220 721l-6.00098 19.999l3 7l180 100c11.333 -0.666992 20 -4.16699 26 -10.5s9 -14.166 9 -23.499c0 -3.33301 -0.166992 -6.5 -0.5 -9.5s-1.16602 -6.16699 -2.49902 -9.5l-202 -77z" />
    <glyph glyph-name="Acircumflex" unicode="&#xc2;" 
d="M650 0h-85l-97 222h-295l-88 -222h-80l264 660h91zM201 292h236l-124 284zM330 842l110 -99l3 -7l-6 -20l-7 -3l-104 62l-104 -62l-7 3l-6 20l3 7l110 99h8z" />
    <glyph glyph-name="Atilde" unicode="&#xc3;" 
d="M650 0h-85l-97 222h-295l-88 -222h-80l264 660h91zM201 292h236l-124 284zM479 832c-2 -9.33301 -5.16309 -18.5 -9.49609 -27.5s-10 -17.167 -17 -24.5s-15.5 -13.333 -25.5 -18s-22 -7 -36 -7c-26.667 0 -53.834 2.33301 -81.501 7s-52.167 7 -73.5 7
c-16.667 0 -28.334 -2.16699 -35.001 -6.5s-13.334 -10.5 -20.001 -18.5l-13 8c2.66699 8.66699 6.33398 17.667 11.001 27s10.5 17.5 17.5 24.5s15.667 12.833 26 17.5s22.5 7 36.5 7c16.667 0 31.167 -0.666992 43.5 -2s23.833 -3 34.5 -5s21 -3.66699 31 -5
s21.333 -2 34 -2c11.333 0 22.666 1.33301 33.999 4s21.666 10 30.999 22z" />
    <glyph glyph-name="Adieresis" unicode="&#xc4;" 
d="M650 0h-85l-97 222h-295l-88 -222h-80l264 660h91zM201 292h236l-124 284zM204 794c0 12 4 22.5 12 31.5s17.667 13.5 29 13.5s21.166 -4.5 29.499 -13.5s12.5 -19.5 12.5 -31.5c0 -12.667 -4.16699 -23.167 -12.5 -31.5s-18.166 -12.5 -29.499 -12.5
s-21 4.16699 -29 12.5s-12 18.833 -12 31.5zM361 794c0 12 4 22.5 12 31.5s17.667 13.5 29 13.5c10.667 0 20.167 -4.5 28.5 -13.5s12.5 -19.5 12.5 -31.5c0 -12.667 -4.16699 -23.167 -12.5 -31.5s-17.833 -12.5 -28.5 -12.5c-11.333 0 -21 4.16699 -29 12.5
s-12 18.833 -12 31.5z" />
    <glyph glyph-name="Aring" unicode="&#xc5;" 
d="M314 782c26 0 46.832 -8.00098 62.499 -24.001s23.5 -34.333 23.5 -55c0 -12.667 -3.16699 -24 -9.5 -34s-14.5 -18 -24.5 -24l284 -645h-85l-97 222h-295l-88 -222h-80l258 645c-11.333 6 -20.166 14.333 -26.499 25s-9.5 22.334 -9.5 35.001c0 20.667 8 38.667 24 54
s37 23 63 23zM200.999 291.999h236l-124 284zM314.999 653.999c13.333 0 24.167 5 32.5 15s12.5 21.333 12.5 34c0 13.333 -4.5 24.833 -13.5 34.5s-20.167 14.5 -33.5 14.5c-14.667 0 -26.167 -4.33301 -34.5 -13s-12.5 -19.667 -12.5 -33s4.83301 -25.333 14.5 -36
s21.167 -16 34.5 -16z" />
    <glyph glyph-name="AE" unicode="&#xc6;" horiz-adv-x="759" 
d="M719 0h-332v222h-195l-117 -222h-82l352 660h354v-70h-237v-205h170v-70h-170v-245h257v-70zM387 292v296l-158 -296h158z" />
    <glyph glyph-name="Ccedilla" unicode="&#xc7;" 
d="M274 -178l13.001 23.002h7c8 -3.33301 18.167 -6.16602 30.5 -8.49902s25.166 -3.5 38.499 -3.5c14.667 0 27.167 2.83301 37.5 8.5s15.5 16.167 15.5 31.5c0 18 -5 30.167 -15 36.5s-22 9.5 -36 9.5c-8 0 -16.333 -0.666992 -25 -2s-16.667 -3 -24 -5l-8 11l43 66
c-50 2.66699 -93.5 13.5 -130.5 32.5s-67.667 43.667 -92 74s-42.333 65 -54 104s-17.5 80.167 -17.5 123.5c0 47.333 7 91.666 21 132.999s34.833 77.5 62.5 108.5s62 55.5 103 73.5s88.833 27 143.5 27c36 0 72 -3.83301 108 -11.5s67 -18.167 93 -31.5l-21 -72
c-21.333 14 -47.666 25.667 -78.999 35s-67 14 -107 14c-44.667 0 -82.334 -6.5 -113.001 -19.5s-55.5 -31.167 -74.5 -54.5s-32.667 -51.5 -41 -84.5s-12.5 -69.5 -12.5 -109.5c0 -91.333 20 -160.333 60 -207s99.667 -70 179 -70c42 0 80.667 6 116 18
s63.666 26.667 84.999 44l20 -67c-25.333 -15.333 -56 -29 -92 -41s-76.333 -18.667 -121 -20l-24 -39c6 1.33301 11.833 2.33301 17.5 3s10.834 1 15.501 1c23.333 0 42.333 -6.83301 57 -20.5s22 -30.834 22 -51.501c0 -11.333 -2.66699 -22 -8 -32
s-12.833 -18.833 -22.5 -26.5s-21.167 -13.834 -34.5 -18.501s-28 -7 -44 -7s-32 1.83301 -48 5.5s-30.333 8.16699 -43 13.5z" />
    <glyph glyph-name="Egrave" unicode="&#xc8;" horiz-adv-x="522" 
d="M481 0h-382v660h362v-70h-287v-205h220v-70h-220v-245h307v-70zM373 718l-201 77.001c-2.66699 6 -4 12.333 -4 19c0 9.33301 3 17.166 9 23.499s14.667 9.83301 26 10.5l181 -100l3 -7l-6 -20z" />
    <glyph glyph-name="Eacute" unicode="&#xc9;" horiz-adv-x="522" 
d="M481 0h-382v660h362v-70h-287v-205h220v-70h-220v-245h307v-70zM184 721l-6 19.999l3 7l181 100c11.333 -0.666992 20 -4.16699 26 -10.5s9 -14.166 9 -23.499c0 -6.66699 -1.33301 -13 -4 -19l-202 -77z" />
    <glyph glyph-name="Ecircumflex" unicode="&#xca;" horiz-adv-x="522" 
d="M481 0h-382v660h362v-70h-287v-205h220v-70h-220v-245h307v-70zM291 842l110 -99l3 -7l-6 -20l-7 -3l-104 62l-104 -62l-7 3l-6 20l3 7l110 99h8z" />
    <glyph glyph-name="Edieresis" unicode="&#xcb;" horiz-adv-x="522" 
d="M481 0h-382v660h362v-70h-287v-205h220v-70h-220v-245h307v-70zM315 794c0 12 4 22.5 12 31.5s17.667 13.5 29 13.5s21.166 -4.5 29.499 -13.5s12.5 -19.5 12.5 -31.5c0 -12.667 -4.16699 -23.167 -12.5 -31.5s-18.166 -12.5 -29.499 -12.5s-21 4.16699 -29 12.5
s-12 18.833 -12 31.5zM158 794c0 12 4 22.5 12 31.5s17.667 13.5 29 13.5s21.166 -4.5 29.499 -13.5s12.5 -19.5 12.5 -31.5c0 -12.667 -4.16699 -23.167 -12.5 -31.5s-18.166 -12.5 -29.499 -12.5s-21 4.16699 -29 12.5s-12 18.833 -12 31.5z" />
    <glyph glyph-name="Igrave" unicode="&#xcc;" horiz-adv-x="273" 
d="M221 718l-202 77.001c-2.66699 6 -4 12.333 -4 19c0 9.33301 3 17.166 9 23.499s14.667 9.83301 26 10.5l181 -100l3 -7l-6 -20zM174 0.000976562h-75v660h75v-660z" />
    <glyph glyph-name="Iacute" unicode="&#xcd;" horiz-adv-x="273" 
d="M41 721l-6 19.999l3 7l181 100c11.333 -0.666992 20 -4.16699 26 -10.5s9 -14.166 9 -23.499c0 -6.66699 -1.33301 -13 -4 -19l-201 -77zM174 -0.000976562h-75v660h75v-660z" />
    <glyph glyph-name="Icircumflex" unicode="&#xce;" horiz-adv-x="273" 
d="M138 842l111 -99l3 -7l-6 -20l-8 -3l-103 62l-104 -62l-8 3l-5 20l3 7l110 99h7zM174 0h-75v660h75v-660z" />
    <glyph glyph-name="Idieresis" unicode="&#xcf;" horiz-adv-x="273" 
d="M19 794c0 12 4 22.5 12 31.5s17.667 13.5 29 13.5s21.166 -4.5 29.499 -13.5s12.5 -19.5 12.5 -31.5c0 -12.667 -4.16699 -23.167 -12.5 -31.5s-18.166 -12.5 -29.499 -12.5s-21 4.16699 -29 12.5s-12 18.833 -12 31.5zM176 794c0 12 4 22.5 12 31.5s17.667 13.5 29 13.5
s21.166 -4.5 29.499 -13.5s12.5 -19.5 12.5 -31.5c0 -12.667 -4.16699 -23.167 -12.5 -31.5s-18.166 -12.5 -29.499 -12.5s-21 4.16699 -29 12.5s-12 18.833 -12 31.5zM174 0h-75v660h75v-660z" />
    <glyph glyph-name="Eth" unicode="&#xd0;" horiz-adv-x="706" 
d="M14 326l0.000976562 43.999h87v290h5c32 1.33301 66.667 2.5 104 3.5s73.666 1.5 108.999 1.5c47.333 0 90.5 -6.66699 129.5 -20s72.167 -31.666 99.5 -54.999c35.333 -32 61 -71 77 -117s24 -96 24 -150c0 -45.333 -6.33301 -88.166 -19 -128.499
s-32.167 -75.833 -58.5 -106.5s-59.5 -55 -99.5 -73s-87.333 -27 -142 -27c-47.333 0 -89.833 1.16699 -127.5 3.5s-71.5 5.16602 -101.5 8.49902v326h-87zM351.001 369.999l0.00195312 -44.001h-175v-266c42 -4 92.333 -6 151 -6c79.333 0 139 23.333 179 70
s60 115.667 60 207c0 40 -4.16699 76.5 -12.5 109.5s-22 61.167 -41 84.5s-43.833 41.5 -74.5 54.5s-68.334 19.5 -113.001 19.5c-26.667 0 -52.834 -0.166992 -78.501 -0.5s-49.167 -1.16602 -70.5 -2.49902v-226h175z" />
    <glyph glyph-name="Ntilde" unicode="&#xd1;" horiz-adv-x="704" 
d="M530 117v543h75v-660h-85l-346 542v-542h-75v660h85zM494 832c-2 -9.33301 -5.16309 -18.5 -9.49609 -27.5s-10 -17.167 -17 -24.5s-15.5 -13.333 -25.5 -18s-22 -7 -36 -7c-26.667 0 -53.834 2.33301 -81.501 7s-52.167 7 -73.5 7
c-16.667 0 -28.334 -2.16699 -35.001 -6.5s-13.334 -10.5 -20.001 -18.5l-13 8c2.66699 8.66699 6.33398 17.667 11.001 27s10.5 17.5 17.5 24.5s15.667 12.833 26 17.5s22.5 7 36.5 7c16.667 0 31.167 -0.666992 43.5 -2s23.833 -3 34.5 -5s21 -3.66699 31 -5
s21.333 -2 34 -2c11.333 0 22.666 1.33301 33.999 4s21.666 10 30.999 22z" />
    <glyph glyph-name="Ograve" unicode="&#xd2;" horiz-adv-x="756" 
d="M445 718l-201 77.001c-2.66699 6 -4 12.333 -4 19c0 9.33301 3 17.166 9 23.499s14.667 9.83301 26 10.5l180 -100l3 -7l-5 -20zM378 665.001c52 0 98.001 -8.99902 138.001 -26.999s73.667 -42.5 101 -73.5s48 -66.833 62 -107.5s21 -83.334 21 -128.001
c0 -44 -6.83301 -86.5 -20.5 -127.5s-34.334 -77.333 -62.001 -109s-62 -57 -103 -76s-88.833 -28.5 -143.5 -28.5c-53.333 0 -99.666 9 -138.999 27s-72 42.333 -98 73s-45.5 66.167 -58.5 106.5s-19.5 82.833 -19.5 127.5c0 47.333 7.16699 91.833 21.5 133.5
s35.166 78 62.499 109s61 55.5 101 73.5s85.667 27 137 27zM373.001 54.002c43.333 0 80.5029 7.00098 111.503 21.001s56.333 33.333 76 58s34.167 53.5 43.5 86.5s14 68.5 14 106.5c0 40.667 -4.83301 77.667 -14.5 111s-24.334 62 -44.001 86s-44.834 42.667 -75.501 56
s-67 20 -109 20c-42.667 0 -79 -6.5 -109 -19.5s-54.333 -31.333 -73 -55s-32.334 -51.834 -41.001 -84.501s-13 -68.667 -13 -108c0 -92 20 -161.333 60 -208s98 -70 174 -70z" />
    <glyph glyph-name="Oacute" unicode="&#xd3;" horiz-adv-x="756" 
d="M312 721l-5 19.999l3 7l180 100c11.333 -0.666992 20 -4.16699 26 -10.5s9 -14.166 9 -23.499c0 -6 -1 -12.333 -3 -19l-202 -77zM378 664.999c52 0 98.001 -8.99902 138.001 -26.999s73.667 -42.5 101 -73.5s48 -66.833 62 -107.5s21 -83.334 21 -128.001
c0 -44 -6.83301 -86.5 -20.5 -127.5s-34.334 -77.333 -62.001 -109s-62 -57 -103 -76s-88.833 -28.5 -143.5 -28.5c-53.333 0 -99.666 9 -138.999 27s-72 42.333 -98 73s-45.5 66.167 -58.5 106.5s-19.5 82.833 -19.5 127.5c0 47.333 7.16699 91.833 21.5 133.5
s35.166 78 62.499 109s61 55.5 101 73.5s85.667 27 137 27zM373.001 54c43.333 0 80.5029 7.00098 111.503 21.001s56.333 33.333 76 58s34.167 53.5 43.5 86.5s14 68.5 14 106.5c0 40.667 -4.83301 77.667 -14.5 111s-24.334 62 -44.001 86s-44.834 42.667 -75.501 56
s-67 20 -109 20c-42.667 0 -79 -6.5 -109 -19.5s-54.333 -31.333 -73 -55s-32.334 -51.834 -41.001 -84.501s-13 -68.667 -13 -108c0 -92 20 -161.333 60 -208s98 -70 174 -70z" />
    <glyph glyph-name="Ocircumflex" unicode="&#xd4;" horiz-adv-x="756" 
d="M392 842l110 -99l3 -7l-6 -20l-7 -3l-104 62l-104 -62l-7 3l-6 20l3 7l110 99h8zM378 665c52 0 98.001 -8.99902 138.001 -26.999s73.667 -42.5 101 -73.5s48 -66.833 62 -107.5s21 -83.334 21 -128.001c0 -44 -6.83301 -86.5 -20.5 -127.5s-34.334 -77.333 -62.001 -109
s-62 -57 -103 -76s-88.833 -28.5 -143.5 -28.5c-53.333 0 -99.666 9 -138.999 27s-72 42.333 -98 73s-45.5 66.167 -58.5 106.5s-19.5 82.833 -19.5 127.5c0 47.333 7.16699 91.833 21.5 133.5s35.166 78 62.499 109s61 55.5 101 73.5s85.667 27 137 27zM373.001 54.001
c43.333 0 80.5029 7.00098 111.503 21.001s56.333 33.333 76 58s34.167 53.5 43.5 86.5s14 68.5 14 106.5c0 40.667 -4.83301 77.667 -14.5 111s-24.334 62 -44.001 86s-44.834 42.667 -75.501 56s-67 20 -109 20c-42.667 0 -79 -6.5 -109 -19.5s-54.333 -31.333 -73 -55
s-32.334 -51.834 -41.001 -84.501s-13 -68.667 -13 -108c0 -92 20 -161.333 60 -208s98 -70 174 -70z" />
    <glyph glyph-name="Otilde" unicode="&#xd5;" horiz-adv-x="756" 
d="M535 832c-2 -9.33301 -5.16309 -18.5 -9.49609 -27.5s-10 -17.167 -17 -24.5s-15.5 -13.333 -25.5 -18s-22 -7 -36 -7c-26.667 0 -53.834 2.33301 -81.501 7s-52.167 7 -73.5 7c-16.667 0 -28.334 -2.16699 -35.001 -6.5s-13.334 -10.5 -20.001 -18.5l-13 8
c2.66699 8.66699 6.33398 17.667 11.001 27s10.5 17.5 17.5 24.5s15.667 12.833 26 17.5s22.5 7 36.5 7c16.667 0 31.167 -0.666992 43.5 -2s23.833 -3 34.5 -5s21 -3.66699 31 -5s21.333 -2 34 -2c11.333 0 22.666 1.33301 33.999 4s21.666 10 30.999 22zM378.004 665
c52 0 98.001 -8.99902 138.001 -26.999s73.667 -42.5 101 -73.5s48 -66.833 62 -107.5s21 -83.334 21 -128.001c0 -44 -6.83301 -86.5 -20.5 -127.5s-34.334 -77.333 -62.001 -109s-62 -57 -103 -76s-88.833 -28.5 -143.5 -28.5c-53.333 0 -99.666 9 -138.999 27
s-72 42.333 -98 73s-45.5 66.167 -58.5 106.5s-19.5 82.833 -19.5 127.5c0 47.333 7.16699 91.833 21.5 133.5s35.166 78 62.499 109s61 55.5 101 73.5s85.667 27 137 27zM373.005 54.001c43.333 0 80.5029 7.00098 111.503 21.001s56.333 33.333 76 58
s34.167 53.5 43.5 86.5s14 68.5 14 106.5c0 40.667 -4.83301 77.667 -14.5 111s-24.334 62 -44.001 86s-44.834 42.667 -75.501 56s-67 20 -109 20c-42.667 0 -79 -6.5 -109 -19.5s-54.333 -31.333 -73 -55s-32.334 -51.834 -41.001 -84.501s-13 -68.667 -13 -108
c0 -92 20 -161.333 60 -208s98 -70 174 -70z" />
    <glyph glyph-name="Odieresis" unicode="&#xd6;" horiz-adv-x="756" 
d="M259 794c0 12 4 22.5 12 31.5s17.667 13.5 29 13.5s21.166 -4.5 29.499 -13.5s12.5 -19.5 12.5 -31.5c0 -12.667 -4.16699 -23.167 -12.5 -31.5s-18.166 -12.5 -29.499 -12.5s-21 4.16699 -29 12.5s-12 18.833 -12 31.5zM416 794c0 12 4 22.5 12 31.5
s17.667 13.5 29 13.5s21.166 -4.5 29.499 -13.5s12.5 -19.5 12.5 -31.5c0 -12.667 -4.16699 -23.167 -12.5 -31.5s-18.166 -12.5 -29.499 -12.5s-21 4.16699 -29 12.5s-12 18.833 -12 31.5zM378 665c52 0 98.001 -8.99902 138.001 -26.999s73.667 -42.5 101 -73.5
s48 -66.833 62 -107.5s21 -83.334 21 -128.001c0 -44 -6.83301 -86.5 -20.5 -127.5s-34.334 -77.333 -62.001 -109s-62 -57 -103 -76s-88.833 -28.5 -143.5 -28.5c-53.333 0 -99.666 9 -138.999 27s-72 42.333 -98 73s-45.5 66.167 -58.5 106.5s-19.5 82.833 -19.5 127.5
c0 47.333 7.16699 91.833 21.5 133.5s35.166 78 62.499 109s61 55.5 101 73.5s85.667 27 137 27zM373.001 54.001c43.333 0 80.5029 7.00098 111.503 21.001s56.333 33.333 76 58s34.167 53.5 43.5 86.5s14 68.5 14 106.5c0 40.667 -4.83301 77.667 -14.5 111
s-24.334 62 -44.001 86s-44.834 42.667 -75.501 56s-67 20 -109 20c-42.667 0 -79 -6.5 -109 -19.5s-54.333 -31.333 -73 -55s-32.334 -51.834 -41.001 -84.501s-13 -68.667 -13 -108c0 -92 20 -161.333 60 -208s98 -70 174 -70z" />
    <glyph glyph-name="multiply" unicode="&#xd7;" horiz-adv-x="458" 
d="M228 202l-120 -121l-37 37l120 121l-120 120l37 37l120 -120l122 121l37 -37l-122 -121l122 -122l-37 -37z" />
    <glyph glyph-name="Oslash" unicode="&#xd8;" horiz-adv-x="756" 
d="M130 93c-24.667 30.667 -43 65.5 -55 104.5s-18 80.5 -18 124.5c0 47.333 7.16699 91.833 21.5 133.5s35.166 78 62.499 109s61 55.5 101 73.5s85.667 27 137 27c37.333 0 71.5 -4.66699 102.5 -14s58.833 -22.666 83.5 -39.999l65 76l51 -39l-67 -80
c28.667 -31.333 50.334 -67.5 65.001 -108.5s22 -84.5 22 -130.5c0 -44 -6.83301 -86.5 -20.5 -127.5s-34.334 -77.333 -62.001 -109s-62 -57 -103 -76s-88.833 -28.5 -143.5 -28.5c-40.667 0 -77.167 5.16699 -109.5 15.5s-61.166 25.166 -86.499 44.499l-70 -83l-48 43z
M374 54c43.333 0 80.5 7 111.5 21s56.333 33.333 76 58s34.167 53.5 43.5 86.5s14 68.5 14 106.5c0 77.333 -17 140 -51 188l-346 -412c38 -32 88.667 -48 152 -48zM140 332c0 -74.667 13.334 -134.332 40.001 -178.999l342 406c-38 26.667 -86.667 40 -146 40
c-42.667 0 -79 -6.5 -109 -19.5s-54.333 -31.333 -73 -55s-32.334 -51.834 -41.001 -84.501s-13 -68.667 -13 -108z" />
    <glyph glyph-name="Ugrave" unicode="&#xd9;" horiz-adv-x="688" 
d="M426 718l-201 77.001c-2.66699 6 -4 12.333 -4 19c0 9.33301 3 17.166 9 23.499s14.667 9.83301 26 10.5l181 -100l2 -7l-5 -20zM167 256.001c0 -72 15.833 -123.667 47.5 -155s75.5 -47 131.5 -47s100 15.667 132 47s48 83 48 155v404h70v-438
c0 -32.667 -5 -63.167 -15 -91.5s-25.333 -53 -46 -74s-46.667 -37.5 -78 -49.5s-68.333 -18 -111 -18c-46.667 0 -86.167 6 -118.5 18s-58.5 28.5 -78.5 49.5s-34.5 45.667 -43.5 74s-13.5 58.833 -13.5 91.5v438h75v-404z" />
    <glyph glyph-name="Uacute" unicode="&#xda;" horiz-adv-x="688" 
d="M255 721l-6 19.999l3 7l181 100c11.333 -0.666992 20 -4.16699 26 -10.5s9 -14.166 9 -23.499c0 -6.66699 -1.33301 -13 -4 -19l-201 -77zM167 255.999c0 -72 15.833 -123.667 47.5 -155s75.5 -47 131.5 -47s100 15.667 132 47s48 83 48 155v404h70v-438
c0 -32.667 -5 -63.167 -15 -91.5s-25.333 -53 -46 -74s-46.667 -37.5 -78 -49.5s-68.333 -18 -111 -18c-46.667 0 -86.167 6 -118.5 18s-58.5 28.5 -78.5 49.5s-34.5 45.667 -43.5 74s-13.5 58.833 -13.5 91.5v438h75v-404z" />
    <glyph glyph-name="Ucircumflex" unicode="&#xdb;" horiz-adv-x="688" 
d="M344 842l111 -99l2 -7l-5 -20l-8 -3l-103 62l-104 -62l-8 3l-5 20l2 7l111 99h7zM167 256c0 -72 15.833 -123.667 47.5 -155s75.5 -47 131.5 -47s100 15.667 132 47s48 83 48 155v404h70v-438c0 -32.667 -5 -63.167 -15 -91.5s-25.333 -53 -46 -74
s-46.667 -37.5 -78 -49.5s-68.333 -18 -111 -18c-46.667 0 -86.167 6 -118.5 18s-58.5 28.5 -78.5 49.5s-34.5 45.667 -43.5 74s-13.5 58.833 -13.5 91.5v438h75v-404z" />
    <glyph glyph-name="Udieresis" unicode="&#xdc;" horiz-adv-x="688" 
d="M236 794c0 12 4 22.5 12 31.5s17.667 13.5 29 13.5s21.166 -4.5 29.499 -13.5s12.5 -19.5 12.5 -31.5c0 -12.667 -4.16699 -23.167 -12.5 -31.5s-18.166 -12.5 -29.499 -12.5s-21 4.16699 -29 12.5s-12 18.833 -12 31.5zM393 794c0 12 4 22.5 12 31.5
s17.667 13.5 29 13.5s21.166 -4.5 29.499 -13.5s12.5 -19.5 12.5 -31.5c0 -12.667 -4.16699 -23.167 -12.5 -31.5s-18.166 -12.5 -29.499 -12.5s-21 4.16699 -29 12.5s-12 18.833 -12 31.5zM167 256c0 -72 15.833 -123.667 47.5 -155s75.5 -47 131.5 -47s100 15.667 132 47
s48 83 48 155v404h70v-438c0 -32.667 -5 -63.167 -15 -91.5s-25.333 -53 -46 -74s-46.667 -37.5 -78 -49.5s-68.333 -18 -111 -18c-46.667 0 -86.167 6 -118.5 18s-58.5 28.5 -78.5 49.5s-34.5 45.667 -43.5 74s-13.5 58.833 -13.5 91.5v438h75v-404z" />
    <glyph glyph-name="Yacute" unicode="&#xdd;" horiz-adv-x="566" 
d="M220 721l-5 19.999l3 7l180 100c11.333 -0.666992 20 -4.16699 26 -10.5s9 -14.166 9 -23.499c0 -6 -1 -12.333 -3 -19l-202 -77zM-11 659.999h89l209 -317l202 317h87l-255 -389v-271h-75v267z" />
    <glyph glyph-name="Thorn" unicode="&#xde;" horiz-adv-x="519" 
d="M169 533c13.333 0.666992 26.6641 1.16797 39.9971 1.50098s24.333 0.5 33 0.5c72 0 129.167 -17.167 171.5 -51.5s63.5 -83.833 63.5 -148.5c0 -27.333 -4.16699 -52.833 -12.5 -76.5s-21.666 -44.5 -39.999 -62.5s-42.166 -32.167 -71.499 -42.5
s-64.666 -15.5 -105.999 -15.5c-9.33301 0 -21.333 0.166992 -36 0.5s-28.667 1.16602 -42 2.49902v-141h-70v660h70v-127zM243.998 469.001c-8.66699 0 -20.167 -0.166992 -34.5 -0.5s-27.833 -0.833008 -40.5 -1.5v-259c12.667 -1.33301 26.167 -2.33301 40.5 -3
s25.5 -1 33.5 -1c52 0 90.167 11.167 114.5 33.5s36.5 56.833 36.5 103.5c0 20 -2.5 37.833 -7.5 53.5s-13.333 29 -25 40s-27 19.5 -46 25.5s-42.833 9 -71.5 9z" />
    <glyph glyph-name="germandbls" unicode="&#xdf;" horiz-adv-x="544" 
d="M148 0l-70.0029 -0.000976562v486c0 37.333 3.83301 71.333 11.5 102s19.334 57 35.001 79s35 39 58 51s49.833 18 80.5 18c24.667 0 47 -3.83301 67 -11.5s37 -17.667 51 -30s24.833 -26.666 32.5 -42.999s11.5 -33.166 11.5 -50.499
c0 -22.667 -5.33301 -43.5 -16 -62.5s-22.334 -37 -35.001 -54l-35 -49c-10.667 -15.667 -16 -30.834 -16 -45.501c0 -14 4.66699 -26.167 14 -36.5s21 -20.5 35 -30.5l45 -31c16 -10.667 31 -23.167 45 -37.5s25.667 -30.833 35 -49.5s14 -41 14 -67
c0 -27.333 -5.16699 -50.5 -15.5 -69.5s-23 -34.5 -38 -46.5s-31.333 -20.667 -49 -26s-33.834 -8 -48.501 -8c-22 0 -42.333 4.5 -61 13.5s-34 19.167 -46 30.5l20 71c10 -20 23.667 -35.5 41 -46.5s35 -16.5 53 -16.5c19.333 0 35.833 7.16699 49.5 21.5
s20.5 36.166 20.5 65.499c0 23.333 -4.5 43 -13.5 59s-20.167 29.833 -33.5 41.5s-27.666 22.334 -42.999 32.001s-29.666 20 -42.999 31s-24.5 23.667 -33.5 38s-13.5 32.5 -13.5 54.5c0 23.333 4.83301 44 14.5 62s20.334 35 32.001 51s22.334 32 32.001 48
s14.5 33.333 14.5 52c0 21.333 -7.5 39.833 -22.5 55.5s-37.833 23.5 -68.5 23.5c-24 0 -43.333 -5.33301 -58 -16s-26 -24.667 -34 -42s-13.167 -37.5 -15.5 -60.5s-3.5 -46.5 -3.5 -70.5v-486z" />
    <glyph glyph-name="agrave" unicode="&#xe0;" horiz-adv-x="498" 
d="M310 549l-202 76.999c-2 6.66699 -3 13 -3 19c0 9.33301 3 17.333 9 24s14.667 10.334 26 11.001l180 -101l3 -7l-5 -20zM370 -0.000976562l-8 82.002h-4c-8 -12.667 -18.667 -24.667 -32 -36s-28.166 -21.333 -44.499 -30s-34 -15.5 -53 -20.5s-37.833 -7.5 -56.5 -7.5
c-44 0 -77 12.833 -99 38.5s-33 57.834 -33 96.501c0 38 9.66699 68.333 29 91s43 39.667 71 51s57.5 18.666 88.5 21.999s58.167 5 81.5 5h45v12c0 25.333 -3.5 44.666 -10.5 57.999s-17.167 24.666 -30.5 33.999c-11.333 7.33301 -23.5 12.5 -36.5 15.5
s-30.167 4.5 -51.5 4.5c-28 0 -52.667 -3.66699 -74 -11s-42 -17 -62 -29l-16 60c44.667 26 98 39 160 39c24.667 0 48 -2.16699 70 -6.5s41.333 -11.833 58 -22.5c19.333 -12 34.666 -29 45.999 -51s17 -49.333 17 -82v-313h-55zM193 47.001
c27.333 0 56.3311 8.66699 86.998 26s55.667 42.333 75 75v93h-9c-27.333 0 -54.666 -1 -81.999 -3s-52.166 -7 -74.499 -15s-40.5 -19.5 -54.5 -34.5s-21 -35.5 -21 -61.5s7.16699 -45.833 21.5 -59.5s33.5 -20.5 57.5 -20.5z" />
    <glyph glyph-name="aacute" unicode="&#xe1;" horiz-adv-x="498" 
d="M185 552l-5.99902 20.001l3 7l180 101c11.333 -0.666992 20.166 -4.33398 26.499 -11.001s9.5 -14.667 9.5 -24c0 -6.66699 -1.33301 -13 -4 -19l-202 -77zM370.001 0.000976562l-8 82.002h-4c-8 -12.667 -18.667 -24.667 -32 -36s-28.166 -21.333 -44.499 -30
s-34 -15.5 -53 -20.5s-37.833 -7.5 -56.5 -7.5c-44 0 -77 12.833 -99 38.5s-33 57.834 -33 96.501c0 38 9.66699 68.333 29 91s43 39.667 71 51s57.5 18.666 88.5 21.999s58.167 5 81.5 5h45v12c0 25.333 -3.5 44.666 -10.5 57.999s-17.167 24.666 -30.5 33.999
c-11.333 7.33301 -23.5 12.5 -36.5 15.5s-30.167 4.5 -51.5 4.5c-28 0 -52.667 -3.66699 -74 -11s-42 -17 -62 -29l-16 60c44.667 26 98 39 160 39c24.667 0 48 -2.16699 70 -6.5s41.333 -11.833 58 -22.5c19.333 -12 34.666 -29 45.999 -51s17 -49.333 17 -82v-313h-55z
M193.001 47.0029c27.333 0 56.3311 8.66699 86.998 26s55.667 42.333 75 75v93h-9c-27.333 0 -54.666 -1 -81.999 -3s-52.166 -7 -74.499 -15s-40.5 -19.5 -54.5 -34.5s-21 -35.5 -21 -61.5s7.16699 -45.833 21.5 -59.5s33.5 -20.5 57.5 -20.5z" />
    <glyph glyph-name="acircumflex" unicode="&#xe2;" horiz-adv-x="498" 
d="M244 673l110 -99l3 -7l-6 -19l-7 -3l-104 61l-103 -61l-8 3l-6 19l3 7l110 99h8zM370 0l-8 82.002h-4c-8 -12.667 -18.667 -24.667 -32 -36s-28.166 -21.333 -44.499 -30s-34 -15.5 -53 -20.5s-37.833 -7.5 -56.5 -7.5c-44 0 -77 12.833 -99 38.5s-33 57.834 -33 96.501
c0 38 9.66699 68.333 29 91s43 39.667 71 51s57.5 18.666 88.5 21.999s58.167 5 81.5 5h45v12c0 25.333 -3.5 44.666 -10.5 57.999s-17.167 24.666 -30.5 33.999c-11.333 7.33301 -23.5 12.5 -36.5 15.5s-30.167 4.5 -51.5 4.5c-28 0 -52.667 -3.66699 -74 -11
s-42 -17 -62 -29l-16 60c44.667 26 98 39 160 39c24.667 0 48 -2.16699 70 -6.5s41.333 -11.833 58 -22.5c19.333 -12 34.666 -29 45.999 -51s17 -49.333 17 -82v-313h-55zM193 47.002c27.333 0 56.3311 8.66699 86.998 26s55.667 42.333 75 75v93h-9
c-27.333 0 -54.666 -1 -81.999 -3s-52.166 -7 -74.499 -15s-40.5 -19.5 -54.5 -34.5s-21 -35.5 -21 -61.5s7.16699 -45.833 21.5 -59.5s33.5 -20.5 57.5 -20.5z" />
    <glyph glyph-name="atilde" unicode="&#xe3;" horiz-adv-x="498" 
d="M406 668c0 -2 -1.66016 -7.16797 -4.99316 -15.501s-8.5 -17 -15.5 -26s-16 -17.167 -27 -24.5s-24.5 -11 -40.5 -11c-7.33301 0 -17.833 0.5 -31.5 1.5s-28.334 2 -44.001 3l-46.5 3c-15.333 1 -28.333 1.5 -39 1.5c-16.667 0 -28.334 -2.16699 -35.001 -6.5
s-13.334 -10.5 -20.001 -18.5l-13 8c0 4.66699 2 11.334 6 20.001s10 17.167 18 25.5s17.667 15.5 29 21.5s24 9 38 9c17.333 0 39.166 -1.5 65.499 -4.5s54.166 -4.5 83.499 -4.5c11.333 0 22.666 1.33301 33.999 4s21.666 10 30.999 22zM370.007 -0.000976562l-8 82.002
h-4c-8 -12.667 -18.667 -24.667 -32 -36s-28.166 -21.333 -44.499 -30s-34 -15.5 -53 -20.5s-37.833 -7.5 -56.5 -7.5c-44 0 -77 12.833 -99 38.5s-33 57.834 -33 96.501c0 38 9.66699 68.333 29 91s43 39.667 71 51s57.5 18.666 88.5 21.999s58.167 5 81.5 5h45v12
c0 25.333 -3.5 44.666 -10.5 57.999s-17.167 24.666 -30.5 33.999c-11.333 7.33301 -23.5 12.5 -36.5 15.5s-30.167 4.5 -51.5 4.5c-28 0 -52.667 -3.66699 -74 -11s-42 -17 -62 -29l-16 60c44.667 26 98 39 160 39c24.667 0 48 -2.16699 70 -6.5s41.333 -11.833 58 -22.5
c19.333 -12 34.666 -29 45.999 -51s17 -49.333 17 -82v-313h-55zM193.007 47.001c27.333 0 56.3311 8.66699 86.998 26s55.667 42.333 75 75v93h-9c-27.333 0 -54.666 -1 -81.999 -3s-52.166 -7 -74.499 -15s-40.5 -19.5 -54.5 -34.5s-21 -35.5 -21 -61.5
s7.16699 -45.833 21.5 -59.5s33.5 -20.5 57.5 -20.5z" />
    <glyph glyph-name="adieresis" unicode="&#xe4;" horiz-adv-x="498" 
d="M130 626c0 12 4 22.5 12 31.5s17.667 13.5 29 13.5c10.667 0 20.167 -4.5 28.5 -13.5s12.5 -19.5 12.5 -31.5c0 -12.667 -4.16699 -23.167 -12.5 -31.5s-17.833 -12.5 -28.5 -12.5c-11.333 0 -21 4.16699 -29 12.5s-12 18.833 -12 31.5zM287 626
c0 12 3.83301 22.5 11.5 31.5s17.167 13.5 28.5 13.5s21.166 -4.5 29.499 -13.5s12.5 -19.5 12.5 -31.5c0 -12.667 -4.16699 -23.167 -12.5 -31.5s-18.166 -12.5 -29.499 -12.5s-20.833 4.16699 -28.5 12.5s-11.5 18.833 -11.5 31.5zM370 0l-8 82.002h-4
c-8 -12.667 -18.667 -24.667 -32 -36s-28.166 -21.333 -44.499 -30s-34 -15.5 -53 -20.5s-37.833 -7.5 -56.5 -7.5c-44 0 -77 12.833 -99 38.5s-33 57.834 -33 96.501c0 38 9.66699 68.333 29 91s43 39.667 71 51s57.5 18.666 88.5 21.999s58.167 5 81.5 5h45v12
c0 25.333 -3.5 44.666 -10.5 57.999s-17.167 24.666 -30.5 33.999c-11.333 7.33301 -23.5 12.5 -36.5 15.5s-30.167 4.5 -51.5 4.5c-28 0 -52.667 -3.66699 -74 -11s-42 -17 -62 -29l-16 60c44.667 26 98 39 160 39c24.667 0 48 -2.16699 70 -6.5s41.333 -11.833 58 -22.5
c19.333 -12 34.666 -29 45.999 -51s17 -49.333 17 -82v-313h-55zM193 47.002c27.333 0 56.3311 8.66699 86.998 26s55.667 42.333 75 75v93h-9c-27.333 0 -54.666 -1 -81.999 -3s-52.166 -7 -74.499 -15s-40.5 -19.5 -54.5 -34.5s-21 -35.5 -21 -61.5
s7.16699 -45.833 21.5 -59.5s33.5 -20.5 57.5 -20.5z" />
    <glyph glyph-name="aring" unicode="&#xe5;" horiz-adv-x="498" 
d="M254 683c26 0 46.333 -7.83203 61 -23.499s22 -32.834 22 -51.501c0 -17.333 -7 -33.333 -21 -48s-34.333 -22 -61 -22c-14 0 -26.167 2.16699 -36.5 6.5s-19 10 -26 17s-12.167 14.667 -15.5 23s-5 16.833 -5 25.5c0 18.667 7.33301 35.5 22 50.5s34.667 22.5 60 22.5z
M255 562.001c13.333 0 24 4.83203 32 14.499s12 20.167 12 31.5c0 12 -4.16699 23.5 -12.5 34.5s-19.5 16.5 -33.5 16.5s-24.833 -5.16699 -32.5 -15.5s-11.5 -21.166 -11.5 -32.499c0 -12 4.33301 -23.167 13 -33.5s19.667 -15.5 33 -15.5zM370 0l-8 82.002h-4
c-8 -12.667 -18.667 -24.667 -32 -36s-28.166 -21.333 -44.499 -30s-34 -15.5 -53 -20.5s-37.833 -7.5 -56.5 -7.5c-44 0 -77 12.833 -99 38.5s-33 57.834 -33 96.501c0 38 9.66699 68.333 29 91s43 39.667 71 51s57.5 18.666 88.5 21.999s58.167 5 81.5 5h45v12
c0 25.333 -3.5 44.666 -10.5 57.999s-17.167 24.666 -30.5 33.999c-11.333 7.33301 -23.5 12.5 -36.5 15.5s-30.167 4.5 -51.5 4.5c-28 0 -52.667 -3.66699 -74 -11s-42 -17 -62 -29l-16 60c44.667 26 98 39 160 39c24.667 0 48 -2.16699 70 -6.5s41.333 -11.833 58 -22.5
c19.333 -12 34.666 -29 45.999 -51s17 -49.333 17 -82v-313h-55zM193 47.002c27.333 0 56.3311 8.66699 86.998 26s55.667 42.333 75 75v93h-9c-27.333 0 -54.666 -1 -81.999 -3s-52.166 -7 -74.499 -15s-40.5 -19.5 -54.5 -34.5s-21 -35.5 -21 -61.5
s7.16699 -45.833 21.5 -59.5s33.5 -20.5 57.5 -20.5z" />
    <glyph glyph-name="ae" unicode="&#xe6;" horiz-adv-x="819" 
d="M407 396c19.333 22.667 44.6641 41.5 75.9971 56.5s66 22.5 104 22.5c58.667 0 104 -14.833 136 -44.5s48 -71.5 48 -125.5c0 -11.333 -0.666992 -22.833 -2 -34.5s-3.66602 -20.167 -6.99902 -25.5h-337v-18c0.666992 -24.667 4.33398 -48.334 11.001 -71.001
s16.834 -42.5 30.501 -59.5s30.5 -30.5 50.5 -40.5s43.667 -15 71 -15c32 0 62.167 5.66699 90.5 17s51.833 23.666 70.5 36.999l13 -53c-8.66699 -5.33301 -19.334 -11.166 -32.001 -17.499s-26.667 -12.166 -42 -17.499s-32.166 -9.83301 -50.499 -13.5
s-37.5 -5.5 -57.5 -5.5c-44.667 0 -83 9.16699 -115 27.5s-57.667 42.5 -77 72.5h-4c-26.667 -36.667 -59.167 -62.5 -97.5 -77.5s-76.5 -22.5 -114.5 -22.5c-44 0 -77 12.833 -99 38.5s-33 57.834 -33 96.501c0 38 9.66699 68.333 29 91s43 39.667 71 51
s57.5 18.666 88.5 21.999s58.167 5 81.5 5h45v12c0 25.333 -3.5 44.666 -10.5 57.999s-17.167 24.666 -30.5 33.999c-11.333 7.33301 -23.5 12.5 -36.5 15.5s-30.167 4.5 -51.5 4.5c-28 0 -52.667 -3.66699 -74 -11s-42 -17 -62 -29l-16 60c44.667 26 98 39 160 39
c24.667 0 48 -2.16699 70 -6.5s41.333 -11.833 58 -22.5c8 -5.33301 16 -12.666 24 -21.999s13.667 -18.666 17 -27.999h4zM192.998 47c27.333 0 56.3311 8.66699 86.998 26s55.667 42.333 75 75v93h-9c-27.333 0 -54.666 -1 -81.999 -3s-52.166 -7 -74.499 -15
s-40.5 -19.5 -54.5 -34.5s-21 -35.5 -21 -61.5s7.16699 -45.833 21.5 -59.5s33.5 -20.5 57.5 -20.5zM583.996 419c-44 0 -78.167 -11.5 -102.5 -34.5s-40.833 -51.833 -49.5 -86.5h273c0.666992 3.33301 1 6.33301 1 9v9c0 16.667 -3.33301 31.5 -10 44.5
s-15.667 23.833 -27 32.5s-24.333 15.167 -39 19.5s-30 6.5 -46 6.5z" />
    <glyph glyph-name="ccedilla" unicode="&#xe7;" horiz-adv-x="500" 
d="M438 376c-15.333 11.333 -37.3359 21.502 -66.0029 30.502s-57.334 13.5 -86.001 13.5c-29.333 0 -54.166 -5 -74.499 -15s-37.166 -23.333 -50.499 -40s-23 -35.834 -29 -57.501s-9 -44.167 -9 -67.5c0 -26 3.66699 -51 11 -75s18.166 -45 32.499 -63s32 -32.333 53 -43
s45.5 -16 73.5 -16c26.667 0 53.834 5.16699 81.501 15.5s50.834 24.166 69.501 41.499l16 -62c-17.333 -11.333 -41.166 -22.166 -71.499 -32.499s-62.833 -16.166 -97.5 -17.499l-24 -39c6 1.33301 11.833 2.33301 17.5 3s10.834 1 15.501 1
c23.333 0 42.333 -6.83301 57 -20.5s22 -30.834 22 -51.501c0 -11.333 -2.66699 -22 -8 -32s-12.833 -18.833 -22.5 -26.5s-21.167 -13.834 -34.5 -18.501s-28 -7 -44 -7s-32 1.83301 -48 5.5s-30.333 8.16699 -43 13.5l-1 6l13 23h7
c8 -3.33301 18.167 -6.16602 30.5 -8.49902s25.166 -3.5 38.499 -3.5c14.667 0 27.167 2.83301 37.5 8.5s15.5 16.167 15.5 31.5c0 18 -5 30.167 -15 36.5s-22 9.5 -36 9.5c-8 0 -16.333 -0.666992 -25 -2s-16.667 -3 -24 -5l-8 11l43 66
c-34.667 2.66699 -64.834 11.167 -90.501 25.5s-47 32.5 -64 54.5s-29.833 47.167 -38.5 75.5s-13 58.166 -13 89.499c0 32 4.5 62.5 13.5 91.5s23.167 54.667 42.5 77s44 40 74 53s66 19.5 108 19.5c32 0 63.333 -3.66699 94 -11s55.334 -17 74.001 -29z" />
    <glyph glyph-name="egrave" unicode="&#xe8;" horiz-adv-x="516" 
d="M284 475c58.667 0 104 -14.8359 136 -44.5029s48 -71.5 48 -125.5c0 -11.333 -0.666992 -22.833 -2 -34.5s-3.66602 -20.167 -6.99902 -25.5h-337v-10c0 -25.333 3.33301 -49.666 10 -72.999s16.667 -44 30 -62s30.166 -32.333 50.499 -43s44.5 -16 72.5 -16
c32 0 62.167 5.66699 90.5 17s51.833 23.666 70.5 36.999l13 -53c-8.66699 -5.33301 -19.334 -11.166 -32.001 -17.499s-26.667 -12.166 -42 -17.499s-32.166 -9.83301 -50.499 -13.5s-37.5 -5.5 -57.5 -5.5c-37.333 0 -70.333 6.5 -99 19.5s-52.667 30.667 -72 53
s-34 48.166 -44 77.499s-15 60 -15 92c0 32.667 5.16699 63.834 15.5 93.501s25.5 55.834 45.5 78.501s44.833 40.5 74.5 53.5s63.5 19.5 101.5 19.5zM281 418.997c-44 0 -78.167 -11.5 -102.5 -34.5s-40.833 -51.833 -49.5 -86.5h273c0.666992 3.33301 1 6.33301 1 9v9
c0 16.667 -3.33301 31.5 -10 44.5s-15.667 23.833 -27 32.5s-24.333 15.167 -39 19.5s-30 6.5 -46 6.5zM343 548.997l-202 76.999c-2 6.66699 -3 13 -3 19c0 9.33301 3 17.333 9 24s14.667 10.334 26 11.001l180 -101l3 -7l-5 -20z" />
    <glyph glyph-name="eacute" unicode="&#xe9;" horiz-adv-x="516" 
d="M284 475c58.667 0 104 -14.8359 136 -44.5029s48 -71.5 48 -125.5c0 -11.333 -0.666992 -22.833 -2 -34.5s-3.66602 -20.167 -6.99902 -25.5h-337v-10c0 -25.333 3.33301 -49.666 10 -72.999s16.667 -44 30 -62s30.166 -32.333 50.499 -43s44.5 -16 72.5 -16
c32 0 62.167 5.66699 90.5 17s51.833 23.666 70.5 36.999l13 -53c-8.66699 -5.33301 -19.334 -11.166 -32.001 -17.499s-26.667 -12.166 -42 -17.499s-32.166 -9.83301 -50.499 -13.5s-37.5 -5.5 -57.5 -5.5c-37.333 0 -70.333 6.5 -99 19.5s-52.667 30.667 -72 53
s-34 48.166 -44 77.499s-15 60 -15 92c0 32.667 5.16699 63.834 15.5 93.501s25.5 55.834 45.5 78.501s44.833 40.5 74.5 53.5s63.5 19.5 101.5 19.5zM281 418.997c-44 0 -78.167 -11.5 -102.5 -34.5s-40.833 -51.833 -49.5 -86.5h273c0.666992 3.33301 1 6.33301 1 9v9
c0 16.667 -3.33301 31.5 -10 44.5s-15.667 23.833 -27 32.5s-24.333 15.167 -39 19.5s-30 6.5 -46 6.5zM199 551.997l-6.00098 20l3 7l180 101c11.333 -0.666992 20 -4.33398 26 -11.001s9 -14.667 9 -24c0 -2.66699 -0.166992 -5.66699 -0.5 -9
s-1.16602 -6.66602 -2.49902 -9.99902l-202 -77z" />
    <glyph glyph-name="ecircumflex" unicode="&#xea;" horiz-adv-x="516" 
d="M284 475c58.667 0 104 -14.8359 136 -44.5029s48 -71.5 48 -125.5c0 -11.333 -0.666992 -22.833 -2 -34.5s-3.66602 -20.167 -6.99902 -25.5h-337v-10c0 -25.333 3.33301 -49.666 10 -72.999s16.667 -44 30 -62s30.166 -32.333 50.499 -43s44.5 -16 72.5 -16
c32 0 62.167 5.66699 90.5 17s51.833 23.666 70.5 36.999l13 -53c-8.66699 -5.33301 -19.334 -11.166 -32.001 -17.499s-26.667 -12.166 -42 -17.499s-32.166 -9.83301 -50.499 -13.5s-37.5 -5.5 -57.5 -5.5c-37.333 0 -70.333 6.5 -99 19.5s-52.667 30.667 -72 53
s-34 48.166 -44 77.499s-15 60 -15 92c0 32.667 5.16699 63.834 15.5 93.501s25.5 55.834 45.5 78.501s44.833 40.5 74.5 53.5s63.5 19.5 101.5 19.5zM281 418.997c-44 0 -78.167 -11.5 -102.5 -34.5s-40.833 -51.833 -49.5 -86.5h273c0.666992 3.33301 1 6.33301 1 9v9
c0 16.667 -3.33301 31.5 -10 44.5s-15.667 23.833 -27 32.5s-24.333 15.167 -39 19.5s-30 6.5 -46 6.5zM275 672.997l111 -99l2 -7l-5 -19l-8 -3l-103 61l-104 -61l-8 3l-5 19l2 7l111 99h7z" />
    <glyph glyph-name="edieresis" unicode="&#xeb;" horiz-adv-x="516" 
d="M284 475c58.667 0 104 -14.8359 136 -44.5029s48 -71.5 48 -125.5c0 -11.333 -0.666992 -22.833 -2 -34.5s-3.66602 -20.167 -6.99902 -25.5h-337v-10c0 -25.333 3.33301 -49.666 10 -72.999s16.667 -44 30 -62s30.166 -32.333 50.499 -43s44.5 -16 72.5 -16
c32 0 62.167 5.66699 90.5 17s51.833 23.666 70.5 36.999l13 -53c-8.66699 -5.33301 -19.334 -11.166 -32.001 -17.499s-26.667 -12.166 -42 -17.499s-32.166 -9.83301 -50.499 -13.5s-37.5 -5.5 -57.5 -5.5c-37.333 0 -70.333 6.5 -99 19.5s-52.667 30.667 -72 53
s-34 48.166 -44 77.499s-15 60 -15 92c0 32.667 5.16699 63.834 15.5 93.501s25.5 55.834 45.5 78.501s44.833 40.5 74.5 53.5s63.5 19.5 101.5 19.5zM281 418.997c-44 0 -78.167 -11.5 -102.5 -34.5s-40.833 -51.833 -49.5 -86.5h273c0.666992 3.33301 1 6.33301 1 9v9
c0 16.667 -3.33301 31.5 -10 44.5s-15.667 23.833 -27 32.5s-24.333 15.167 -39 19.5s-30 6.5 -46 6.5zM306 625.997c0 12 4 22.5 12 31.5s17.667 13.5 29 13.5s21.166 -4.5 29.499 -13.5s12.5 -19.5 12.5 -31.5c0 -12.667 -4.16699 -23.167 -12.5 -31.5
s-18.166 -12.5 -29.499 -12.5s-21 4.16699 -29 12.5s-12 18.833 -12 31.5zM149 625.997c0 12 4 22.5 12 31.5s17.667 13.5 29 13.5s21.166 -4.5 29.499 -13.5s12.5 -19.5 12.5 -31.5c0 -12.667 -4.16699 -23.167 -12.5 -31.5s-18.166 -12.5 -29.499 -12.5
s-21 4.16699 -29 12.5s-12 18.833 -12 31.5z" />
    <glyph glyph-name="igrave" unicode="&#xec;" horiz-adv-x="226" 
d="M171 549l-201 76.999c-2.66699 6 -4 12.333 -4 19c0 9.33301 3 17.333 9 24s14.667 10.334 26 11.001l181 -101l3 -7l-6 -20zM148 -0.000976562h-70v460h70v-460z" />
    <glyph glyph-name="iacute" unicode="&#xed;" horiz-adv-x="226" 
d="M21 552l-5.99902 20.001l3 7l180 101c11.333 -0.666992 20.166 -4.33398 26.499 -11.001s9.5 -14.667 9.5 -24c0 -6.66699 -1.33301 -13 -4 -19l-202 -77zM148.001 0.000976562h-70v460h70v-460z" />
    <glyph glyph-name="icircumflex" unicode="&#xee;" horiz-adv-x="226" 
d="M114 673l110 -99l3 -7l-6 -19l-7 -3l-104 61l-103 -61l-8 3l-6 19l3 7l110 99h8zM148 0h-70v460h70v-460z" />
    <glyph glyph-name="idieresis" unicode="&#xef;" horiz-adv-x="226" 
d="M-8 626c0 12 4 22.5 12 31.5s17.667 13.5 29 13.5s21.166 -4.5 29.499 -13.5s12.5 -19.5 12.5 -31.5c0 -12.667 -4.16699 -23.167 -12.5 -31.5s-18.166 -12.5 -29.499 -12.5s-21 4.16699 -29 12.5s-12 18.833 -12 31.5zM149 626c0 12 4 22.5 12 31.5s17.667 13.5 29 13.5
s21.166 -4.5 29.499 -13.5s12.5 -19.5 12.5 -31.5c0 -12.667 -4.16699 -23.167 -12.5 -31.5s-18.166 -12.5 -29.499 -12.5s-21 4.16699 -29 12.5s-12 18.833 -12 31.5zM148 0h-70v460h70v-460z" />
    <glyph glyph-name="eth" unicode="&#xf0;" horiz-adv-x="564" 
d="M344 740c26.667 -24 51.3301 -55.3291 73.9971 -93.9961l117 31l18 -48l-112 -29c20.667 -44 37 -92.833 49 -146.5s18 -108.5 18 -164.5c0 -38.667 -3.5 -76.167 -10.5 -112.5s-19.333 -68.5 -37 -96.5s-41.167 -50.333 -70.5 -67s-66.333 -25 -111 -25
c-41.333 0 -76.666 7 -105.999 21s-53.166 32.667 -71.499 56s-31.833 49.666 -40.5 78.999s-13 59.666 -13 90.999c0 32 4.5 62.5 13.5 91.5s23 54.5 42 76.5s43.167 39.5 72.5 52.5s64.333 19.5 105 19.5c36.667 0 69.334 -6.16699 98.001 -18.5s49.667 -32.5 63 -60.5
l3 1c-9.33301 40 -18.666 75.167 -27.999 105.5s-20 58.166 -32 83.499l-125 -32l-17 46l118 31c-12 19.333 -25.333 37.666 -40 54.999s-31.334 35.333 -50.001 54h73zM278.996 41.0039c27.333 0 50.832 5.49805 70.499 16.498s36 25.667 49 44s22.667 39.333 29 63
s9.5 48.5 9.5 74.5c0 60 -14.833 105.167 -44.5 135.5s-68.167 45.5 -115.5 45.5c-28 0 -51.833 -5.16699 -71.5 -15.5s-35.5 -24 -47.5 -41s-20.833 -36.5 -26.5 -58.5s-8.5 -44.667 -8.5 -68c0 -25.333 3 -49.666 9 -72.999s15.333 -44.166 28 -62.499
s28.834 -33 48.501 -44s43.167 -16.5 70.5 -16.5z" />
    <glyph glyph-name="ntilde" unicode="&#xf1;" horiz-adv-x="545" 
d="M431 663c-2 -9.33301 -5.16309 -18.5 -9.49609 -27.5s-10 -17.167 -17 -24.5s-15.5 -13.333 -25.5 -18s-22 -7 -36 -7c-26.667 0 -53.834 2.33301 -81.501 7s-52.167 7 -73.5 7c-16.667 0 -28.334 -2.16699 -35.001 -6.5s-13.334 -10.5 -20.001 -18.5l-13 8
c2.66699 8.66699 6.33398 17.667 11.001 27s10.5 17.5 17.5 24.5s15.667 12.833 26 17.5s22.5 7 36.5 7c16.667 0 31.167 -0.666992 43.5 -2s23.833 -3 34.5 -5s21 -3.66699 31 -5s21.333 -2 34 -2c11.333 0 22.666 1.33301 33.999 4s21.666 10 30.999 22zM401.004 0
v304.001c0 40.667 -9 69.5 -27 86.5s-41 25.5 -69 25.5c-16.667 0 -33.167 -2.66699 -49.5 -8s-31.5 -13.166 -45.5 -23.499s-26.333 -23 -37 -38s-19 -32.167 -25 -51.5v-295h-70v460h55l8 -86h4c8.66699 28 28 51.833 58 71.5s67.333 29.5 112 29.5
c21.333 0 41.5 -2.83301 60.5 -8.5s35.5 -14.834 49.5 -27.501s25.167 -29.334 33.5 -50.001s12.5 -46 12.5 -76v-313h-70z" />
    <glyph glyph-name="ograve" unicode="&#xf2;" horiz-adv-x="561" 
d="M342 549l-202 76.999c-2.66699 6 -4 12.333 -4 19c0 9.33301 3 17.333 9 24s14.667 10.334 26 11.001l181 -101l3 -7l-6 -20zM280 474.999c40.667 0 75.668 -6.82812 105.001 -20.4951s53.5 -32 72.5 -55s33 -49.333 42 -79s13.5 -60.834 13.5 -93.501
s-4.5 -63.5 -13.5 -92.5s-22.833 -54.333 -41.5 -76s-42.5 -38.834 -71.5 -51.501s-63.167 -19 -102.5 -19c-40.667 0 -75.834 6.66699 -105.501 20s-54.167 31.166 -73.5 53.499s-33.666 48.166 -42.999 77.499s-14 60.333 -14 93s4.66699 63.667 14 93
s23.5 55.166 42.5 77.499s43.167 40 72.5 53s63.666 19.5 102.999 19.5zM283.001 41.0039c26.667 0 49.8301 4.99902 69.4971 14.999s36 23.5 49 40.5s22.5 36.667 28.5 59s9 45.833 9 70.5c0 25.333 -3.16699 49.666 -9.5 72.999s-16.166 43.833 -29.499 61.5
s-30.166 31.834 -50.499 42.501s-44.5 16 -72.5 16c-27.333 0 -50.666 -5 -69.999 -15s-35.333 -23.333 -48 -40s-22 -36.167 -28 -58.5s-9 -45.833 -9 -70.5c0 -25.333 3.16699 -49.666 9.5 -72.999s16 -44 29 -62s29.667 -32.333 50 -43s44.5 -16 72.5 -16z" />
    <glyph glyph-name="oacute" unicode="&#xf3;" horiz-adv-x="561" 
d="M206 552l-5.99902 20.001l3 7l180 101c11.333 -0.666992 20.166 -4.33398 26.499 -11.001s9.5 -14.667 9.5 -24c0 -6.66699 -1.33301 -13 -4 -19l-202 -77zM280.001 475.001c40.667 0 75.668 -6.82812 105.001 -20.4951s53.5 -32 72.5 -55s33 -49.333 42 -79
s13.5 -60.834 13.5 -93.501s-4.5 -63.5 -13.5 -92.5s-22.833 -54.333 -41.5 -76s-42.5 -38.834 -71.5 -51.501s-63.167 -19 -102.5 -19c-40.667 0 -75.834 6.66699 -105.501 20s-54.167 31.166 -73.5 53.499s-33.666 48.166 -42.999 77.499s-14 60.333 -14 93
s4.66699 63.667 14 93s23.5 55.166 42.5 77.499s43.167 40 72.5 53s63.666 19.5 102.999 19.5zM283.002 41.0059c26.667 0 49.8301 4.99902 69.4971 14.999s36 23.5 49 40.5s22.5 36.667 28.5 59s9 45.833 9 70.5c0 25.333 -3.16699 49.666 -9.5 72.999
s-16.166 43.833 -29.499 61.5s-30.166 31.834 -50.499 42.501s-44.5 16 -72.5 16c-27.333 0 -50.666 -5 -69.999 -15s-35.333 -23.333 -48 -40s-22 -36.167 -28 -58.5s-9 -45.833 -9 -70.5c0 -25.333 3.16699 -49.666 9.5 -72.999s16 -44 29 -62s29.667 -32.333 50 -43
s44.5 -16 72.5 -16z" />
    <glyph glyph-name="ocircumflex" unicode="&#xf4;" horiz-adv-x="561" 
d="M292 673l110 -99l3 -7l-5 -19l-8 -3l-104 61l-103 -61l-8 3l-6 19l3 7l111 99h7zM280 475c40.667 0 75.668 -6.82812 105.001 -20.4951s53.5 -32 72.5 -55s33 -49.333 42 -79s13.5 -60.834 13.5 -93.501s-4.5 -63.5 -13.5 -92.5s-22.833 -54.333 -41.5 -76
s-42.5 -38.834 -71.5 -51.501s-63.167 -19 -102.5 -19c-40.667 0 -75.834 6.66699 -105.501 20s-54.167 31.166 -73.5 53.499s-33.666 48.166 -42.999 77.499s-14 60.333 -14 93s4.66699 63.667 14 93s23.5 55.166 42.5 77.499s43.167 40 72.5 53s63.666 19.5 102.999 19.5z
M283.001 41.0049c26.667 0 49.8301 4.99902 69.4971 14.999s36 23.5 49 40.5s22.5 36.667 28.5 59s9 45.833 9 70.5c0 25.333 -3.16699 49.666 -9.5 72.999s-16.166 43.833 -29.499 61.5s-30.166 31.834 -50.499 42.501s-44.5 16 -72.5 16c-27.333 0 -50.666 -5 -69.999 -15
s-35.333 -23.333 -48 -40s-22 -36.167 -28 -58.5s-9 -45.833 -9 -70.5c0 -25.333 3.16699 -49.666 9.5 -72.999s16 -44 29 -62s29.667 -32.333 50 -43s44.5 -16 72.5 -16z" />
    <glyph glyph-name="otilde" unicode="&#xf5;" horiz-adv-x="561" 
d="M427 663c-2 -9.33301 -5.16309 -18.5 -9.49609 -27.5s-10 -17.167 -17 -24.5s-15.5 -13.333 -25.5 -18s-22 -7 -36 -7c-26.667 0 -53.834 2.33301 -81.501 7s-52.167 7 -73.5 7c-16.667 0 -28.334 -2.16699 -35.001 -6.5s-13.334 -10.5 -20.001 -18.5l-13 8
c2.66699 8.66699 6.33398 17.667 11.001 27s10.5 17.5 17.5 24.5s15.667 12.833 26 17.5s22.5 7 36.5 7c16.667 0 31.167 -0.666992 43.5 -2s23.833 -3 34.5 -5s21 -3.66699 31 -5s21.333 -2 34 -2c11.333 0 22.666 1.33301 33.999 4s21.666 10 30.999 22zM280.004 475
c40.667 0 75.668 -6.82812 105.001 -20.4951s53.5 -32 72.5 -55s33 -49.333 42 -79s13.5 -60.834 13.5 -93.501s-4.5 -63.5 -13.5 -92.5s-22.833 -54.333 -41.5 -76s-42.5 -38.834 -71.5 -51.501s-63.167 -19 -102.5 -19c-40.667 0 -75.834 6.66699 -105.501 20
s-54.167 31.166 -73.5 53.499s-33.666 48.166 -42.999 77.499s-14 60.333 -14 93s4.66699 63.667 14 93s23.5 55.166 42.5 77.499s43.167 40 72.5 53s63.666 19.5 102.999 19.5zM283.005 41.0049c26.667 0 49.8301 4.99902 69.4971 14.999s36 23.5 49 40.5
s22.5 36.667 28.5 59s9 45.833 9 70.5c0 25.333 -3.16699 49.666 -9.5 72.999s-16.166 43.833 -29.499 61.5s-30.166 31.834 -50.499 42.501s-44.5 16 -72.5 16c-27.333 0 -50.666 -5 -69.999 -15s-35.333 -23.333 -48 -40s-22 -36.167 -28 -58.5s-9 -45.833 -9 -70.5
c0 -25.333 3.16699 -49.666 9.5 -72.999s16 -44 29 -62s29.667 -32.333 50 -43s44.5 -16 72.5 -16z" />
    <glyph glyph-name="odieresis" unicode="&#xf6;" horiz-adv-x="561" 
d="M161 626c0 12 4 22.5 12 31.5s17.667 13.5 29 13.5s21.166 -4.5 29.499 -13.5s12.5 -19.5 12.5 -31.5c0 -12.667 -4.16699 -23.167 -12.5 -31.5s-18.166 -12.5 -29.499 -12.5s-21 4.16699 -29 12.5s-12 18.833 -12 31.5zM318 626c0 12 4 22.5 12 31.5
s17.667 13.5 29 13.5s21.166 -4.5 29.499 -13.5s12.5 -19.5 12.5 -31.5c0 -12.667 -4.16699 -23.167 -12.5 -31.5s-18.166 -12.5 -29.499 -12.5s-21 4.16699 -29 12.5s-12 18.833 -12 31.5zM280 475c40.667 0 75.668 -6.82812 105.001 -20.4951s53.5 -32 72.5 -55
s33 -49.333 42 -79s13.5 -60.834 13.5 -93.501s-4.5 -63.5 -13.5 -92.5s-22.833 -54.333 -41.5 -76s-42.5 -38.834 -71.5 -51.501s-63.167 -19 -102.5 -19c-40.667 0 -75.834 6.66699 -105.501 20s-54.167 31.166 -73.5 53.499s-33.666 48.166 -42.999 77.499
s-14 60.333 -14 93s4.66699 63.667 14 93s23.5 55.166 42.5 77.499s43.167 40 72.5 53s63.666 19.5 102.999 19.5zM283.001 41.0049c26.667 0 49.8301 4.99902 69.4971 14.999s36 23.5 49 40.5s22.5 36.667 28.5 59s9 45.833 9 70.5c0 25.333 -3.16699 49.666 -9.5 72.999
s-16.166 43.833 -29.499 61.5s-30.166 31.834 -50.499 42.501s-44.5 16 -72.5 16c-27.333 0 -50.666 -5 -69.999 -15s-35.333 -23.333 -48 -40s-22 -36.167 -28 -58.5s-9 -45.833 -9 -70.5c0 -25.333 3.16699 -49.666 9.5 -72.999s16 -44 29 -62s29.667 -32.333 50 -43
s44.5 -16 72.5 -16z" />
    <glyph glyph-name="divide" unicode="&#xf7;" horiz-adv-x="566" 
d="M491 265v-52h-414v52h414zM248 80c0 12.667 4.5 23.667 13.5 33s20.167 14 33.5 14c12 0 22.833 -4.66699 32.5 -14s14.5 -20.333 14.5 -33c0 -13.333 -4.83301 -24.5 -14.5 -33.5s-20.5 -13.5 -32.5 -13.5c-13.333 0 -24.5 4.5 -33.5 13.5s-13.5 20.167 -13.5 33.5z
M248 397c0 12.667 4.5 23.834 13.5 33.501s20.167 14.5 33.5 14.5c12 0 22.833 -4.83301 32.5 -14.5s14.5 -20.834 14.5 -33.501s-4.83301 -23.5 -14.5 -32.5s-20.5 -13.5 -32.5 -13.5c-13.333 0 -24.5 4.5 -33.5 13.5s-13.5 19.833 -13.5 32.5z" />
    <glyph glyph-name="oslash" unicode="&#xf8;" horiz-adv-x="561" 
d="M97 71c-16.667 22 -28.999 46.835 -36.999 74.502s-12 56.5 -12 86.5c0 32.667 4.66699 63.667 14 93s23.5 55.166 42.5 77.499s43.167 40 72.5 53s63.666 19.5 102.999 19.5c28 0 53.5 -3.5 76.5 -10.5s43.167 -16.5 60.5 -28.5l51 58l51 -39l-56 -63
c17.333 -22.667 30 -48.167 38 -76.5s12 -57.833 12 -88.5c0 -32.667 -4.5 -63.5 -13.5 -92.5s-22.833 -54.333 -41.5 -76s-42.5 -38.834 -71.5 -51.501s-63.167 -19 -102.5 -19c-56.667 0 -103.667 13 -141 39l-54 -62l-48 43zM283.001 41.002c26.667 0 49.833 5 69.5 15
s36 23.5 49 40.5s22.5 36.667 28.5 59s9 45.833 9 70.5c0 41.333 -8 78 -24 110l-230 -262c26 -22 58.667 -33 98 -33zM122 235.002c0 -19.333 1.83203 -38.333 5.49902 -57s9.5 -36 17.5 -52l229 261c-12.667 10 -27 17.833 -43 23.5s-34 8.5 -54 8.5
c-27.333 0 -50.666 -5 -69.999 -15s-35.333 -23.333 -48 -40s-22 -36.167 -28 -58.5s-9 -45.833 -9 -70.5z" />
    <glyph glyph-name="ugrave" unicode="&#xf9;" horiz-adv-x="544" 
d="M333 549l-201 76.999c-2.66699 6 -4 12.333 -4 19c0 9.33301 3 17.333 9 24s14.667 10.334 26 11.001l180 -101l3 -7l-5 -20zM143 459.999v-303.998c0 -20.667 2.5 -38 7.5 -52s11.667 -25.167 20 -33.5s18.333 -14.333 30 -18s24.5 -5.5 38.5 -5.5
c16.667 0 33.167 2.5 49.5 7.5s31.5 12.5 45.5 22.5s26.333 22.333 37 37s19 31.667 25 51v295h70v-460h-55l-8 86h-4c-8.66699 -28 -28 -51.333 -58 -70s-67.333 -28 -112 -28c-21.333 0 -41.5 2.66699 -60.5 8s-35.5 14.166 -49.5 26.499s-25.167 28.666 -33.5 48.999
s-12.5 45.5 -12.5 75.5v313h70z" />
    <glyph glyph-name="uacute" unicode="&#xfa;" horiz-adv-x="544" 
d="M171 552l-5 20.001l3 7l180 101c11.333 -0.666992 20 -4.33398 26 -11.001s9 -14.667 9 -24c0 -6 -1 -12.333 -3 -19l-202 -77zM143 460.001v-303.998c0 -20.667 2.5 -38 7.5 -52s11.667 -25.167 20 -33.5s18.333 -14.333 30 -18s24.5 -5.5 38.5 -5.5
c16.667 0 33.167 2.5 49.5 7.5s31.5 12.5 45.5 22.5s26.333 22.333 37 37s19 31.667 25 51v295h70v-460h-55l-8 86h-4c-8.66699 -28 -28 -51.333 -58 -70s-67.333 -28 -112 -28c-21.333 0 -41.5 2.66699 -60.5 8s-35.5 14.166 -49.5 26.499s-25.167 28.666 -33.5 48.999
s-12.5 45.5 -12.5 75.5v313h70z" />
    <glyph glyph-name="ucircumflex" unicode="&#xfb;" horiz-adv-x="544" 
d="M270 673l111 -99l2 -7l-5 -19l-8 -3l-104 61l-103 -61l-8 3l-5 19l2 7l111 99h7zM143 460v-303.998c0 -20.667 2.5 -38 7.5 -52s11.667 -25.167 20 -33.5s18.333 -14.333 30 -18s24.5 -5.5 38.5 -5.5c16.667 0 33.167 2.5 49.5 7.5s31.5 12.5 45.5 22.5
s26.333 22.333 37 37s19 31.667 25 51v295h70v-460h-55l-8 86h-4c-8.66699 -28 -28 -51.333 -58 -70s-67.333 -28 -112 -28c-21.333 0 -41.5 2.66699 -60.5 8s-35.5 14.166 -49.5 26.499s-25.167 28.666 -33.5 48.999s-12.5 45.5 -12.5 75.5v313h70z" />
    <glyph glyph-name="udieresis" unicode="&#xfc;" horiz-adv-x="544" 
d="M146 626c0 12 4 22.5 12 31.5s17.667 13.5 29 13.5s21.166 -4.5 29.499 -13.5s12.5 -19.5 12.5 -31.5c0 -12.667 -4.16699 -23.167 -12.5 -31.5s-18.166 -12.5 -29.499 -12.5s-21 4.16699 -29 12.5s-12 18.833 -12 31.5zM303 626c0 12 4 22.5 12 31.5
s17.667 13.5 29 13.5s21.166 -4.5 29.499 -13.5s12.5 -19.5 12.5 -31.5c0 -12.667 -4.16699 -23.167 -12.5 -31.5s-18.166 -12.5 -29.499 -12.5s-21 4.16699 -29 12.5s-12 18.833 -12 31.5zM143 460v-303.998c0 -20.667 2.5 -38 7.5 -52s11.667 -25.167 20 -33.5
s18.333 -14.333 30 -18s24.5 -5.5 38.5 -5.5c16.667 0 33.167 2.5 49.5 7.5s31.5 12.5 45.5 22.5s26.333 22.333 37 37s19 31.667 25 51v295h70v-460h-55l-8 86h-4c-8.66699 -28 -28 -51.333 -58 -70s-67.333 -28 -112 -28c-21.333 0 -41.5 2.66699 -60.5 8
s-35.5 14.166 -49.5 26.499s-25.167 28.666 -33.5 48.999s-12.5 45.5 -12.5 75.5v313h70z" />
    <glyph glyph-name="yacute" unicode="&#xfd;" horiz-adv-x="519" 
d="M197 552l-6.00098 20l3 7l180 101c11.333 -0.666992 20 -4.33398 26 -11.001s9 -14.667 9 -24c0 -2.66699 -0.166992 -5.66699 -0.5 -9s-1.16602 -6.66602 -2.49902 -9.99902l-202 -77zM295.999 -4l-36.001 -75.498c-14 -29 -30.667 -56.5 -50 -82.5
s-42 -48.167 -68 -66.5s-55.333 -27.5 -88 -27.5c-5.33301 0 -9.33301 0.166992 -12 0.5s-5.66699 1.16602 -9 2.49902l-13 66c2 -0.666992 4.33301 -1.33398 7 -2.00098s7.33398 -1 14.001 -1c13.333 0 25.833 1.33301 37.5 4s23.167 8 34.5 16
c23.333 16.667 44.5 41 63.5 73s36.167 69.333 51.5 112l-230 445h83l183 -383l164 383h79z" />
    <glyph glyph-name="thorn" unicode="&#xfe;" horiz-adv-x="575" 
d="M325 475c34 0 63.6699 -6.66797 89.0029 -20.001s46.333 -31 63 -53s29.167 -47.5 37.5 -76.5s12.5 -59.5 12.5 -91.5c0 -33.333 -4.5 -64.833 -13.5 -94.5s-22.333 -55.667 -40 -78s-39.834 -40.166 -66.501 -53.499s-57.667 -20 -93 -20
c-44.667 0 -81.334 9.66699 -110.001 29s-47.334 43.333 -56.001 72v-349h-70v1000h70v-366c6.66699 11.333 15.834 23 27.501 35s25 22.833 40 32.5s31.667 17.667 50 24s38.166 9.5 59.499 9.5zM307.003 415.999c-32 0 -61.832 -8.66504 -89.499 -25.998
s-50.834 -42.333 -69.501 -75v-147c6 -19.333 14.667 -36.333 26 -51s24.5 -27.334 39.5 -38.001s31 -18.667 48 -24s34.167 -8 51.5 -8c23.333 0 43.666 4.66699 60.999 14s31.833 22.333 43.5 39s20.5 36 26.5 58s9 45.667 9 71c0 24 -2.83301 47.333 -8.5 70
s-14.5 42.667 -26.5 60s-27.167 31.166 -45.5 41.499s-40.166 15.5 -65.499 15.5z" />
    <glyph glyph-name="ydieresis" unicode="&#xff;" horiz-adv-x="519" 
d="M133 626c0 12 4 22.5 12 31.5s17.667 13.5 29 13.5s21.166 -4.5 29.499 -13.5s12.5 -19.5 12.5 -31.5c0 -12.667 -4.16699 -23.167 -12.5 -31.5s-18.166 -12.5 -29.499 -12.5s-21 4.16699 -29 12.5s-12 18.833 -12 31.5zM290 626c0 12 4 22.5 12 31.5
s17.667 13.5 29 13.5s21.166 -4.5 29.499 -13.5s12.5 -19.5 12.5 -31.5c0 -12.667 -4.16699 -23.167 -12.5 -31.5s-18.166 -12.5 -29.499 -12.5s-21 4.16699 -29 12.5s-12 18.833 -12 31.5zM296 -4l-36.001 -75.498c-14 -29 -30.667 -56.5 -50 -82.5s-42 -48.167 -68 -66.5
s-55.333 -27.5 -88 -27.5c-5.33301 0 -9.33301 0.166992 -12 0.5s-5.66699 1.16602 -9 2.49902l-13 66c2 -0.666992 4.33301 -1.33398 7 -2.00098s7.33398 -1 14.001 -1c13.333 0 25.833 1.33301 37.5 4s23.167 8 34.5 16c23.333 16.667 44.5 41 63.5 73
s36.167 69.333 51.5 112l-230 445h83l183 -383l164 383h79z" />
    <glyph glyph-name="Dcroat" unicode="&#x110;" horiz-adv-x="706" 
d="M14 326l0.000976562 43.999h87v290h5c32 1.33301 66.667 2.5 104 3.5s73.666 1.5 108.999 1.5c47.333 0 90.5 -6.66699 129.5 -20s72.167 -31.666 99.5 -54.999c35.333 -32 61 -71 77 -117s24 -96 24 -150c0 -45.333 -6.33301 -88.166 -19 -128.499
s-32.167 -75.833 -58.5 -106.5s-59.5 -55 -99.5 -73s-87.333 -27 -142 -27c-47.333 0 -89.833 1.16699 -127.5 3.5s-71.5 5.16602 -101.5 8.49902v326h-87zM351.001 369.999l0.00195312 -44.001h-175v-266c42 -4 92.333 -6 151 -6c79.333 0 139 23.333 179 70
s60 115.667 60 207c0 40 -4.16699 76.5 -12.5 109.5s-22 61.167 -41 84.5s-43.833 41.5 -74.5 54.5s-68.334 19.5 -113.001 19.5c-26.667 0 -52.834 -0.166992 -78.501 -0.5s-49.167 -1.16602 -70.5 -2.49902v-226h175z" />
    <glyph glyph-name="dotlessi" unicode="&#x131;" horiz-adv-x="226" 
d="M148 0h-70v460h70v-460z" />
    <glyph glyph-name="IJ" unicode="&#x132;" horiz-adv-x="546" 
d="M174 0h-75v660h75v-660zM448 101c0 -35.333 -3.49902 -68.501 -10.499 -99.501s-17.667 -58.167 -32 -81.5s-32.333 -41.833 -54 -55.5s-47.5 -20.5 -77.5 -20.5l-14 55c26 0 46.667 6.33301 62 19s26.666 28.834 33.999 48.501s12 41.5 14 65.5s3 47.333 3 70v558h75
v-559z" />
    <glyph glyph-name="ij" unicode="&#x133;" horiz-adv-x="454" 
d="M148 0h-70v460h70v-460zM63 628c0 13.333 4.83301 25.333 14.5 36s21.5 16 35.5 16c13.333 0 25.333 -5.33301 36 -16s16 -22.667 16 -36c0 -14 -5.33301 -25.833 -16 -35.5s-22.667 -14.5 -36 -14.5c-14 0 -25.833 4.83301 -35.5 14.5s-14.5 21.5 -14.5 35.5zM376 -3
c0 -34 -3.16895 -66.499 -9.50195 -97.499s-15.833 -58.167 -28.5 -81.5s-28.667 -41.833 -48 -55.5s-41.666 -20.5 -66.999 -20.5c-10.667 0 -18 1 -22 3l-16 58c4 -2 11.333 -3 22 -3c22.667 0 40.667 6.5 54 19.5s23.333 29.167 30 48.5s10.834 40.666 12.501 63.999
s2.5 45.333 2.5 66v462h70v-463zM290.998 628.001c0 13.333 4.83301 25.333 14.5 36s21.5 16 35.5 16c13.333 0 25.333 -5.33301 36 -16s16 -22.667 16 -36c0 -14 -5.33301 -25.833 -16 -35.5s-22.667 -14.5 -36 -14.5c-14 0 -25.833 4.83301 -35.5 14.5
s-14.5 21.5 -14.5 35.5z" />
    <glyph glyph-name="kgreenlandic" unicode="&#x138;" horiz-adv-x="474" 
d="M266 298l196 -298h-80l-165 250l-69 -69v-181h-70v460h70v-194l202 194h80z" />
    <glyph glyph-name="OE" unicode="&#x152;" horiz-adv-x="854" 
d="M813 0h-346c-29.333 -8 -61.333 -12 -96 -12c-53.333 0 -99.666 9 -138.999 27s-72 42.333 -98 73s-45.5 66.167 -58.5 106.5s-19.5 82.833 -19.5 127.5c0 47.333 7.16699 91.833 21.5 133.5s35.166 78 62.499 109s61 55.5 101 73.5s85.667 27 137 27
c12.667 0 25 -0.5 37 -1.5s23.667 -2.16699 35 -3.5h343v-70h-268v-205h201v-70h-201v-245h288v-70zM373 54c28 0 53.668 3.00098 77.001 9.00098v527c-23.333 6 -48.333 9 -75 9c-42.667 0 -79 -6.5 -109 -19.5s-54.333 -31.333 -73 -55s-32.334 -51.834 -41.001 -84.501
s-13 -68.667 -13 -108c0 -92 20 -161.333 60 -208s98 -70 174 -70z" />
    <glyph glyph-name="oe" unicode="&#x153;" horiz-adv-x="912" 
d="M680 474c58.667 0 104.002 -14.832 136.002 -44.499s48 -71.5 48 -125.5c0 -11.333 -0.666992 -22.833 -2 -34.5s-3.66602 -20.167 -6.99902 -25.5h-337v-10c0 -25.333 3.33301 -49.666 10 -72.999s16.667 -44 30 -62s30.166 -32.333 50.499 -43s44.5 -16 72.5 -16
c32 0 62.167 5.66699 90.5 17s51.833 23.666 70.5 36.999l13 -53c-8.66699 -5.33301 -19.334 -11.166 -32.001 -17.499s-26.667 -12.166 -42 -17.499s-32.166 -9.83301 -50.499 -13.5s-37.5 -5.5 -57.5 -5.5c-45.333 0 -84.5 9.33301 -117.5 28s-58.833 43.334 -77.5 74.001
c-17.333 -30.667 -41.833 -55.334 -73.5 -74.001s-71.834 -28 -120.501 -28c-40.667 0 -75.834 6.66699 -105.501 20s-54.167 31.166 -73.5 53.499s-33.666 48.166 -42.999 77.499s-14 60.333 -14 93s4.66699 63.667 14 93s23.5 55.166 42.5 77.499s43.167 40 72.5 53
s63.666 19.5 102.999 19.5c49.333 0 90 -9.83301 122 -29.5s57 -45.5 75 -77.5c19.333 32 46 57.833 80 77.5s75 29.5 123 29.5zM283.002 40.001c26.667 0 49.8301 4.99902 69.4971 14.999s36 23.5 49 40.5s22.5 36.667 28.5 59s9 45.833 9 70.5
c0 25.333 -3.16699 49.666 -9.5 72.999s-16.166 43.833 -29.499 61.5s-30.166 31.834 -50.499 42.501s-44.5 16 -72.5 16c-27.333 0 -50.666 -5 -69.999 -15s-35.333 -23.333 -48 -40s-22 -36.167 -28 -58.5s-9 -45.833 -9 -70.5c0 -25.333 3.16699 -49.666 9.5 -72.999
s16 -44 29 -62s29.667 -32.333 50 -43s44.5 -16 72.5 -16zM676.998 418c-44 0 -78.167 -11.5 -102.5 -34.5s-40.833 -51.833 -49.5 -86.5h273c0.666992 3.33301 1 6.33301 1 9v9c0 16.667 -3.33301 31.5 -10 44.5s-15.667 23.833 -27 32.5s-24.333 15.167 -39 19.5
s-30 6.5 -46 6.5z" />
    <glyph glyph-name="Scaron" unicode="&#x160;" horiz-adv-x="551" 
d="M274 713l-111 99l-2 7l5 20l8 3l103 -62l104 62l8 -3l5 -20l-2 -7l-111 -99h-7zM138 501c0 -16.667 3.16504 -30.5 9.49805 -41.5s16.333 -20.833 30 -29.5s31 -16.834 52 -24.501l75.5 -26.5c24.667 -8 49 -17.167 73 -27.5s45.5 -23 64.5 -38s34.167 -33.667 45.5 -56
s17 -49.5 17 -81.5c0 -34 -6.66699 -63 -20 -87s-31 -43.5 -53 -58.5s-47.333 -25.833 -76 -32.5s-58.334 -10 -89.001 -10c-43.333 0 -83.666 5.33301 -120.999 16s-69.666 23.667 -96.999 39l21 73c12.667 -8.66699 25.334 -16.834 38.001 -24.501
s26.5 -14.167 41.5 -19.5s31.5 -9.66602 49.5 -12.999s38.667 -5 62 -5c30 0 55.667 2.66699 77 8s38.666 12.833 51.999 22.5s23 21.167 29 34.5s9 27.666 9 42.999c0 22.667 -5.33301 41.834 -16 57.501s-24.5 29.167 -41.5 40.5s-35.667 20.833 -56 28.5
s-40.5 14.834 -60.5 21.501c-28.667 9.33301 -54.667 19.333 -78 30s-43.166 23.334 -59.499 38.001s-29 31.667 -38 51s-13.5 42.333 -13.5 69c0 30 5.5 55.5 16.5 76.5s26 38.167 45 51.5s41.5 23.166 67.5 29.499s54 9.5 84 9.5c36 0 70.667 -3.66699 104 -11
s61.666 -16.333 84.999 -27l-21 -77c-10.667 9.33301 -23.167 17.166 -37.5 23.499s-29.333 11.333 -45 15s-31.167 6.33398 -46.5 8.00098s-29.666 2.5 -42.999 2.5c-42 0 -75.167 -7.83301 -99.5 -23.5s-36.5 -40.5 -36.5 -74.5z" />
    <glyph glyph-name="scaron" unicode="&#x161;" horiz-adv-x="441" 
d="M212 545l-111 99l-2 6l5 20l8 3l103 -62l104 62l8 -3l5 -20l-2 -6l-111 -99h-7zM213 419c-32 0 -55.167 -5.83301 -69.5 -17.5s-21.5 -27.5 -21.5 -47.5c0 -6.66699 1 -13.667 3 -21s5.83301 -14.166 11.5 -20.499s13.334 -12.333 23.001 -18s22.5 -10.167 38.5 -13.5
l71 -16c28 -6 50.5 -14.167 67.5 -24.5s30.167 -21.5 39.5 -33.5s15.5 -24.167 18.5 -36.5s4.5 -23.833 4.5 -34.5c0 -20.667 -4.16699 -40 -12.5 -58s-20.333 -33.667 -36 -47s-34.834 -23.833 -57.501 -31.5s-48 -11.5 -76 -11.5c-35.333 0 -68 5.16699 -98 15.5
s-54 21.833 -72 34.5l18 65c24 -22 50.667 -38 80 -48s55.666 -15 78.999 -15c33.333 0 58.666 8.16699 75.999 24.5s26 33.5 26 51.5c0 6 -0.333008 12.833 -1 20.5s-3.33398 15.5 -8.00098 23.5s-11.667 15.5 -21 22.5s-22.666 12.5 -39.999 16.5l-96 24
c-22 5.33301 -40 12.333 -54 21s-25 18.167 -33 28.5s-13.667 21.333 -17 33s-5 23.5 -5 35.5c0 40.667 15.167 73.167 45.5 97.5s70.833 36.5 121.5 36.5c26 0 54 -3.5 84 -10.5s55.333 -17.167 76 -30.5l-19 -60c-13.333 11.333 -33.166 21.666 -59.499 30.999
s-55.166 14 -86.499 14z" />
    <glyph glyph-name="Ydieresis" unicode="&#x178;" horiz-adv-x="566" 
d="M167 794c0 12 4 22.5 12 31.5s17.667 13.5 29 13.5c10.667 0 20.167 -4.5 28.5 -13.5s12.5 -19.5 12.5 -31.5c0 -12.667 -4.16699 -23.167 -12.5 -31.5s-17.833 -12.5 -28.5 -12.5c-11.333 0 -21 4.16699 -29 12.5s-12 18.833 -12 31.5zM324 794
c0 12 3.83301 22.5 11.5 31.5s17.167 13.5 28.5 13.5s21.166 -4.5 29.499 -13.5s12.5 -19.5 12.5 -31.5c0 -12.667 -4.16699 -23.167 -12.5 -31.5s-18.166 -12.5 -29.499 -12.5s-20.833 4.16699 -28.5 12.5s-11.5 18.833 -11.5 31.5zM-11 660h89l209 -317l202 317h87
l-255 -389v-271h-75v267z" />
    <glyph glyph-name="Zcaron" unicode="&#x17d;" horiz-adv-x="554" 
d="M270 713l-110 99l-3 7l6 20l8 3l103 -62l104 62l7 -3l6 -20l-3 -7l-110 -99h-8zM511 0h-468v70l368 520h-353v70h438v-70l-368 -520h383v-70z" />
    <glyph glyph-name="zcaron" unicode="&#x17e;" horiz-adv-x="417" 
d="M200 545l-110 99l-3 6l6 20l7 3l104 -62l104 62l7 -3l6 -20l-3 -6l-110 -99h-8zM42 60l243 341h-233v59h314v-58l-245 -343h255v-59h-334v60z" />
    <glyph glyph-name="florin" unicode="&#x192;" horiz-adv-x="609" 
d="M351 413l-85.0029 -415.998c-7.33301 -34 -17.666 -66.5 -30.999 -97.5s-29.166 -58.167 -47.499 -81.5s-38.833 -41.833 -61.5 -55.5s-46.667 -20.5 -72 -20.5c-4.66699 0 -9 0.166992 -13 0.5s-6.66699 1.16602 -8 2.49902l-4 58c4 -2 11 -3 21 -3
c22.667 0 42.167 6.16699 58.5 18.5s30 28 41 47s20.167 40.333 27.5 64s13.333 47.167 18 70.5l85 413h-67v37l77 10l19 90c8.66699 40.667 19.667 73.667 33 99s28 45.166 44 59.499s33.167 24 51.5 29s36.5 7.5 54.5 7.5c3.33301 0 8.66602 -0.166992 15.999 -0.5
s15.5 -1 24.5 -2s18.167 -2.66699 27.5 -5s17.666 -5.5 24.999 -9.5l-30 -63c-7.33301 7.33301 -18.166 13.833 -32.499 19.5s-31.166 8.5 -50.499 8.5c-12.667 0 -23.334 -1.83301 -32.001 -5.5s-16.667 -11.5 -24 -23.5s-14.166 -29 -20.499 -51s-13.166 -51 -20.499 -87
l-14 -66h107v-47h-117z" />
    <glyph glyph-name="schwa" unicode="&#x259;" horiz-adv-x="517" 
d="M233 -12c-58.667 0 -104 14.8369 -136 44.5039s-48 71.5 -48 125.5c0 11.333 0.666992 22.833 2 34.5s3.66602 20.167 6.99902 25.5h337v10c0 25.333 -3.33301 49.666 -10 72.999s-16.667 44 -30 62s-30.166 32.333 -50.499 43s-44.5 16 -72.5 16
c-16 0 -31.667 -1.83301 -47 -5.5s-30 -8.33398 -44 -14.001s-27 -11.834 -39 -18.501s-22.667 -13.334 -32 -20.001l-12 57c8.66699 5.33301 19.334 11.166 32.001 17.499s26.667 12.166 42 17.499s32.166 9.83301 50.499 13.5s37.5 5.5 57.5 5.5
c37.333 0 70.333 -6.5 99 -19.5s52.667 -30.667 72 -53s34 -48.166 44 -77.499s15 -60 15 -92c0 -33.333 -5.16699 -64.666 -15.5 -93.999s-25.5 -55.333 -45.5 -78s-44.833 -40.5 -74.5 -53.5s-63.5 -19.5 -101.5 -19.5zM236 44.0039c43.333 0 77.167 11.334 101.5 34.001
s40.833 51.667 49.5 87h-272c-0.666992 -3.33301 -1 -6.33301 -1 -9v-9c0 -17.333 3.33301 -32.333 10 -45s15.667 -23.334 27 -32.001s24.333 -15.167 39 -19.5s30 -6.5 46 -6.5z" />
    <glyph glyph-name="circumflex" unicode="&#x2c6;" horiz-adv-x="234" 
d="M121 673l110 -99l3 -7l-6 -19l-7 -3l-104 61l-104 -61l-7 3l-6 19l3 7l110 99h8z" />
    <glyph glyph-name="caron" unicode="&#x2c7;" horiz-adv-x="234" 
d="M113 545l-110 99l-3 6l6 20l7 3l104 -62l104 62l7 -3l6 -20l-3 -6l-110 -99h-8z" />
    <glyph glyph-name="ring" unicode="&#x2da;" horiz-adv-x="164" 
d="M82 683c26 0 46.168 -7.83203 60.501 -23.499s21.5 -32.834 21.5 -51.501c0 -17.333 -6.83301 -33.333 -20.5 -48s-33.834 -22 -60.501 -22c-14 0 -26.167 2.16699 -36.5 6.5s-19 10 -26 17s-12.167 14.667 -15.5 23s-5 16.833 -5 25.5c0 18.667 7.16699 35.5 21.5 50.5
s34.5 22.5 60.5 22.5zM83.001 562.001c13.333 0 23.832 4.83203 31.499 14.499s11.5 20.167 11.5 31.5c0 12 -4.16699 23.5 -12.5 34.5s-19.166 16.5 -32.499 16.5c-14.667 0 -25.667 -5.16699 -33 -15.5s-11 -21.166 -11 -32.499c0 -12 4.33301 -23.167 13 -33.5
s19.667 -15.5 33 -15.5z" />
    <glyph glyph-name="tilde" unicode="&#x2dc;" horiz-adv-x="311" 
d="M311 663c-2 -9.33301 -5.16309 -18.5 -9.49609 -27.5s-10 -17.167 -17 -24.5s-15.5 -13.333 -25.5 -18s-22 -7 -36 -7c-26.667 0 -53.834 2.33301 -81.501 7s-52.167 7 -73.5 7c-16.667 0 -28.334 -2.16699 -35.001 -6.5s-13.334 -10.5 -20.001 -18.5l-13 8
c2.66699 8.66699 6.33398 17.667 11.001 27s10.5 17.5 17.5 24.5s15.667 12.833 26 17.5s22.5 7 36.5 7c16.667 0 31.167 -0.666992 43.5 -2s23.833 -3 34.5 -5s21 -3.66699 31 -5s21.333 -2 34 -2c11.333 0 22.666 1.33301 33.999 4s21.666 10 30.999 22z" />
    <glyph glyph-name="uni03BC" unicode="&#x3bc;" horiz-adv-x="552" 
d="M151 460v-304c0 -20.667 2.5 -38 7.5 -52s11.667 -25.167 20 -33.5s18.333 -14.333 30 -18s24.5 -5.5 38.5 -5.5c16.667 0 33.167 2.5 49.5 7.5s31.5 12.5 45.5 22.5s26.333 22.333 37 37s19 31.667 25 51v295h70v-460h-55l-8 86h-4c-8.66699 -28 -28 -51.333 -58 -70
s-67.333 -28 -112 -28c-21.333 0 -41.666 2.66699 -60.999 8s-36 14.333 -50 27l-3 -13c-11.333 -49.333 -29.333 -99.333 -54 -150l-64 29c12 22.667 22.667 44.167 32 64.5s17.166 40.833 23.499 61.5s11.333 41.667 15 63s5.5 44.333 5.5 69v313h70z" />
    <glyph glyph-name="endash" unicode="&#x2013;" horiz-adv-x="562" 
d="M488 265v-52h-414v52h414z" />
    <glyph glyph-name="emdash" unicode="&#x2014;" horiz-adv-x="790" 
d="M716 265v-52h-642v52h642z" />
    <glyph glyph-name="quoteleft" unicode="&#x2018;" horiz-adv-x="225" 
d="M166 715l-39 -73h25v-90h-79v105l73 77z" />
    <glyph glyph-name="quoteright" unicode="&#x2019;" horiz-adv-x="205" 
d="M62 571l39 73h-25v90h79v-105l-73 -77z" />
    <glyph glyph-name="quotesinglbase" unicode="&#x201a;" horiz-adv-x="243" 
d="M68 -78l39 73h-25v90h79v-105l-73 -77z" />
    <glyph glyph-name="quotedblleft" unicode="&#x201c;" horiz-adv-x="375" 
d="M166 715l-39 -73h25v-90h-79v105l73 77zM316 715l-39 -73h25v-90h-79v105l73 77z" />
    <glyph glyph-name="quotedblright" unicode="&#x201d;" horiz-adv-x="355" 
d="M212 571l39 73h-25v90h79v-105l-73 -77zM62 571l39 73h-25v90h79v-105l-73 -77z" />
    <glyph glyph-name="quotedblbase" unicode="&#x201e;" horiz-adv-x="404" 
d="M68 -78l39 73h-25v90h79v-105l-73 -77zM229 -78l39 73h-25v90h79v-105l-73 -77z" />
    <glyph glyph-name="dagger" unicode="&#x2020;" horiz-adv-x="466" 
d="M188 109l12 228v97h-10l-154 -12v73l154 -12h10l-12 209h90l-12 -209h9l155 12v-73l-155 12h-9v-97l12 -228h-90z" />
    <glyph glyph-name="daggerdbl" unicode="&#x2021;" horiz-adv-x="508" 
d="M209 -71l11 209h-9l-154 -13v74l154 -13h10v248h-10l-154 -12v73l154 -12h10l-12 209h90l-12 -209h9l155 12v-73l-155 12h-9v-248h9l155 13v-74l-155 13h-9l12 -209h-90z" />
    <glyph glyph-name="bullet" unicode="&#x2022;" horiz-adv-x="328" 
d="M96 243c0 18 6.50098 34.001 19.501 48.001s29.167 21 48.5 21c8.66699 0 17.167 -1.83301 25.5 -5.5s15.666 -8.83398 21.999 -15.501s11.333 -14.167 15 -22.5s5.5 -16.833 5.5 -25.5c0 -19.333 -7 -35.333 -21 -48s-29.667 -19 -47 -19
c-19.333 0 -35.5 6.33301 -48.5 19s-19.5 28.667 -19.5 48z" />
    <glyph glyph-name="ellipsis" unicode="&#x2026;" horiz-adv-x="613" 
d="M71 35c0 12.667 4.33301 23.834 13 33.501s19.667 14.5 33 14.5c12.667 0 23.834 -4.83301 33.501 -14.5s14.5 -20.834 14.5 -33.501s-4.83301 -23.5 -14.5 -32.5s-20.834 -13.5 -33.501 -13.5c-13.333 0 -24.333 4.5 -33 13.5s-13 19.833 -13 32.5zM260 35
c0 12.667 4.5 23.834 13.5 33.501s19.833 14.5 32.5 14.5s23.834 -4.83301 33.501 -14.5s14.5 -20.834 14.5 -33.501s-4.83301 -23.5 -14.5 -32.5s-20.834 -13.5 -33.501 -13.5s-23.5 4.5 -32.5 13.5s-13.5 19.833 -13.5 32.5zM449 35c0 12.667 4.5 23.834 13.5 33.501
s19.833 14.5 32.5 14.5s23.834 -4.83301 33.501 -14.5s14.5 -20.834 14.5 -33.501s-4.83301 -23.5 -14.5 -32.5s-20.834 -13.5 -33.501 -13.5s-23.5 4.5 -32.5 13.5s-13.5 19.833 -13.5 32.5z" />
    <glyph glyph-name="perthousand" unicode="&#x2030;" horiz-adv-x="1178" 
d="M188 665c23.333 0 44.168 -5.00195 62.501 -15.002s33.666 -23.333 45.999 -40s21.833 -36.167 28.5 -58.5s10 -45.833 10 -70.5c0 -24 -3.33301 -47.333 -10 -70s-16.334 -42.667 -29.001 -60s-28.5 -31.166 -47.5 -41.499s-40.5 -15.5 -64.5 -15.5
c-23.333 0 -44 4.83301 -62 14.5s-33 22.834 -45 39.501s-21 36.167 -27 58.5s-9 45.833 -9 70.5c0 26 3.33301 50.5 10 73.5s16.334 43 29.001 60s28 30.333 46 40s38.667 14.5 62 14.5zM185.002 338.998c16.667 0 30.999 3.66699 42.999 11s21.833 17.333 29.5 30
s13.334 27.5 17.001 44.5s5.5 35.167 5.5 54.5c0 42 -7.66699 76 -23 102s-39 39 -71 39c-32.667 0 -55.667 -12.833 -69 -38.5s-20 -58.5 -20 -98.5c0 -48 7.66699 -84 23 -108s37 -36 65 -36zM211.001 -24.002h-65l463 715h65zM636.001 363.998
c23.333 0 44.168 -5.00195 62.501 -15.002s33.666 -23.333 45.999 -40s21.833 -36.167 28.5 -58.5s10 -45.833 10 -70.5c0 -24 -3.33301 -47.333 -10 -70s-16.334 -42.667 -29.001 -60s-28.5 -31.166 -47.5 -41.499s-40.5 -15.5 -64.5 -15.5c-23.333 0 -44 4.83301 -62 14.5
s-33 22.834 -45 39.501s-21 36.167 -27 58.5s-9 45.833 -9 70.5c0 26 3.33301 50.5 10 73.5s16.334 43 29.001 60s28 30.333 46 40s38.667 14.5 62 14.5zM633.003 37.9961c16.667 0 30.999 3.66699 42.999 11s21.833 17.333 29.5 30s13.334 27.5 17.001 44.5
s5.5 35.167 5.5 54.5c0 42 -7.66699 76 -23 102s-39 39 -71 39c-32.667 0 -55.667 -12.833 -69 -38.5s-20 -58.5 -20 -98.5c0 -48 7.66699 -84 23 -108s37 -36 65 -36zM996.002 363.996c23.333 0 44.168 -5.00195 62.501 -15.002s33.666 -23.333 45.999 -40
s21.833 -36.167 28.5 -58.5s10 -45.833 10 -70.5c0 -24 -3.33301 -47.333 -10 -70s-16.334 -42.667 -29.001 -60s-28.5 -31.166 -47.5 -41.499s-40.5 -15.5 -64.5 -15.5c-23.333 0 -44 4.83301 -62 14.5s-33 22.834 -45 39.501s-21 36.167 -27 58.5s-9 45.833 -9 70.5
c0 26 3.33301 50.5 10 73.5s16.334 43 29.001 60s28 30.333 46 40s38.667 14.5 62 14.5zM993.004 37.9941c16.667 0 30.999 3.66699 42.999 11s21.833 17.333 29.5 30s13.334 27.5 17.001 44.5s5.5 35.167 5.5 54.5c0 42 -7.66699 76 -23 102s-39 39 -71 39
c-32.667 0 -55.667 -12.833 -69 -38.5s-20 -58.5 -20 -98.5c0 -48 7.66699 -84 23 -108s37 -36 65 -36z" />
    <glyph glyph-name="guilsinglleft" unicode="&#x2039;" horiz-adv-x="322" 
d="M121 238l144 -177h-80l-133 177v5l134 177h79l-144 -177v-5z" />
    <glyph glyph-name="guilsinglright" unicode="&#x203a;" horiz-adv-x="322" 
d="M201 243l-144 177h79l134 -177v-5l-133 -177h-80l144 177v5z" />
    <glyph glyph-name="fraction" unicode="&#x2044;" horiz-adv-x="509" 
d="M56 -24h-65l463 715h65z" />
    <glyph glyph-name="zerosuperior" unicode="&#x2070;" horiz-adv-x="407" 
d="M204 665c23.333 0 44.168 -5.00195 62.501 -15.002s33.666 -23.333 45.999 -40s21.833 -36.167 28.5 -58.5s10 -45.833 10 -70.5c0 -24 -3.33301 -47.333 -10 -70s-16.334 -42.667 -29.001 -60s-28.5 -31.166 -47.5 -41.499s-40.5 -15.5 -64.5 -15.5
c-23.333 0 -44 4.83301 -62 14.5s-33 22.834 -45 39.501s-21 36.167 -27 58.5s-9 45.833 -9 70.5c0 26 3.33301 50.5 10 73.5s16.334 43 29.001 60s28 30.333 46 40s38.667 14.5 62 14.5zM201.002 338.998c16.667 0 30.999 3.66699 42.999 11s21.833 17.333 29.5 30
s13.334 27.5 17.001 44.5s5.5 35.167 5.5 54.5c0 42 -7.66699 76 -23 102s-39 39 -71 39c-32.667 0 -55.667 -12.833 -69 -38.5s-20 -58.5 -20 -98.5c0 -48 7.66699 -84 23 -108s37 -36 65 -36z" />
    <glyph glyph-name="foursuperior" unicode="&#x2074;" horiz-adv-x="331" 
d="M273 410h-36v-111h-45v111h-150v42l147 213h48v-213h36v-42zM192 452v154l-99 -154h99z" />
    <glyph glyph-name="zeroinferior" unicode="&#x2080;" horiz-adv-x="421" 
d="M211 366c23.333 0 44.168 -5.00195 62.501 -15.002s33.666 -23.333 45.999 -40s21.833 -36.167 28.5 -58.5s10 -45.833 10 -70.5c0 -24 -3.33301 -47.333 -10 -70s-16.334 -42.667 -29.001 -60s-28.5 -31.166 -47.5 -41.499s-40.5 -15.5 -64.5 -15.5
c-23.333 0 -44 4.83301 -62 14.5s-33 22.834 -45 39.501s-21 36.167 -27 58.5s-9 45.833 -9 70.5c0 26 3.33301 50.5 10 73.5s16.334 43 29.001 60s28 30.333 46 40s38.667 14.5 62 14.5zM208.002 39.998c16.667 0 30.999 3.66699 42.999 11s21.833 17.333 29.5 30
s13.334 27.5 17.001 44.5s5.5 35.167 5.5 54.5c0 42 -7.66699 76 -23 102s-39 39 -71 39c-32.667 0 -55.667 -12.833 -69 -38.5s-20 -58.5 -20 -98.5c0 -48 7.66699 -84 23 -108s37 -36 65 -36z" />
    <glyph glyph-name="oneinferior" unicode="&#x2081;" horiz-adv-x="257" 
d="M170 0h-54v286l-57 -28l-13 42l124 66v-366z" />
    <glyph glyph-name="twoinferior" unicode="&#x2082;" horiz-adv-x="354" 
d="M70 317c15.333 14 32.3301 25.667 50.9971 35s37.667 14 57 14c35.333 0 62.333 -9 81 -27s28 -41.333 28 -70c0 -22 -5.16699 -42.5 -15.5 -61.5s-23.666 -37.5 -39.999 -55.5s-34.666 -35.833 -54.999 -53.5s-40.5 -36.5 -60.5 -56.5h175v-42h-236v42
c16 20 34.333 39.167 55 57.5s40.167 36.666 58.5 54.999s34 36.833 47 55.5s19.5 38 19.5 58c0 6 -0.833008 12.333 -2.5 19s-4.66699 12.834 -9 18.501s-10.166 10.5 -17.499 14.5s-17 6 -29 6c-17.333 0 -34.833 -5.16699 -52.5 -15.5s-32.167 -22.833 -43.5 -37.5z" />
    <glyph glyph-name="threeinferior" unicode="&#x2083;" horiz-adv-x="358" 
d="M76 336c13.333 8.66699 27.1641 15.8311 41.4971 21.498s29.5 8.5 45.5 8.5c36 0 63.667 -8 83 -24s29 -39.333 29 -70c0 -14.667 -5.66699 -28.167 -17 -40.5s-24.666 -22.166 -39.999 -29.499c23.333 -7.33301 41.833 -18.166 55.5 -32.499s20.5 -33.5 20.5 -57.5
c0 -15.333 -2.66699 -30 -8 -44s-13.833 -26.5 -25.5 -37.5s-26.334 -19.667 -44.001 -26s-38.834 -9.5 -63.501 -9.5c-23.333 0 -42.166 3.33301 -56.499 10s-29.166 16 -44.499 28l12 40c14 -11.333 27 -20.5 39 -27.5s28 -10.5 48 -10.5
c32.667 0 56.334 7.33301 71.001 22s22 34.667 22 60c0 20 -6.5 35.833 -19.5 47.5s-37.833 17.5 -74.5 17.5h-12v34h15c24.667 0 42.834 5.33301 54.501 16s17.5 25.667 17.5 45c0 14.667 -3.66699 26.5 -11 35.5s-23 13.5 -47 13.5c-18 0 -33.333 -2.83301 -46 -8.5
s-24 -12.5 -34 -20.5z" />
    <glyph glyph-name="fourinferior" unicode="&#x2084;" horiz-adv-x="332" 
d="M272 111h-36v-111h-45v111h-150v42l147 213h48v-213h36v-42zM191 153v154l-99 -154h99z" />
    <glyph glyph-name="Euro" unicode="&#x20ac;" horiz-adv-x="623" 
d="M126 412c6.66699 36.667 17.1641 70.332 31.4971 100.999s32.833 57.334 55.5 80.001s49 40.334 79 53.001s64 19 102 19c30 0 60.667 -3.83301 92 -11.5s57.666 -18.167 78.999 -31.5l-21 -72c-18 14 -40 25.667 -66 35s-56 14 -90 14
c-28.667 0 -53.667 -4.33301 -75 -13s-39.166 -21.167 -53.499 -37.5s-25.833 -36 -34.5 -59s-15 -48.833 -19 -77.5h255v-52h-260v-53h260v-52h-256c17.333 -134 77.666 -201 180.999 -201c36 0 68.833 6 98.5 18s53.834 26.667 72.501 44l20 -67
c-23.333 -16 -51.166 -30.167 -83.499 -42.5s-69.166 -18.5 -110.499 -18.5c-39.333 0 -74.166 6.83301 -104.499 20.5s-56.333 32.5 -78 56.5s-39 52.333 -52 85s-21.833 67.667 -26.5 105h-80v52h76v26.5c0 10.333 0.333008 19.166 1 26.499h-77v52h84z" />
    <glyph glyph-name="trademark" unicode="&#x2122;" horiz-adv-x="691" 
d="M354 579v-210h-38v284h48l98 -242l97 242h47v-284h-39v209l-84 -209h-45zM279 614h-84v-245h-47v245h-84v39h215v-39z" />
    <glyph glyph-name="onethird" unicode="&#x2153;" horiz-adv-x="711" 
d="M452 336c13.333 8.66699 27.1641 15.8311 41.4971 21.498s29.5 8.5 45.5 8.5c36 0 63.667 -8 83 -24s29 -39.333 29 -70c0 -14.667 -5.66699 -28.167 -17 -40.5s-24.666 -22.166 -39.999 -29.499c23.333 -7.33301 41.833 -18.166 55.5 -32.499s20.5 -33.5 20.5 -57.5
c0 -15.333 -2.66699 -30 -8 -44s-13.833 -26.5 -25.5 -37.5s-26.334 -19.667 -44.001 -26s-38.834 -9.5 -63.501 -9.5c-23.333 0 -42.166 3.33301 -56.499 10s-29.166 16 -44.499 28l12 40c14 -11.333 27 -20.5 39 -27.5s28 -10.5 48 -10.5
c32.667 0 56.334 7.33301 71.001 22s22 34.667 22 60c0 20 -6.5 35.833 -19.5 47.5s-37.833 17.5 -74.5 17.5h-12v34h15c24.667 0 42.834 5.33301 54.501 16s17.5 25.667 17.5 45c0 14.667 -3.66699 26.5 -11 35.5s-23 13.5 -47 13.5c-18 0 -33.333 -2.83301 -46 -8.5
s-24 -12.5 -34 -20.5zM125.998 -24.0029h-65l463 715h65zM160.998 298.997h-54v286l-57 -28l-13 42l124 66v-366z" />
    <glyph glyph-name="twothirds" unicode="&#x2154;" horiz-adv-x="759" 
d="M60 616c15.333 14 32.3301 25.667 50.9971 35s37.667 14 57 14c35.333 0 62.333 -9 81 -27s28 -41.333 28 -70c0 -22 -5.16699 -42.5 -15.5 -61.5s-23.666 -37.5 -39.999 -55.5s-34.666 -35.833 -54.999 -53.5s-40.5 -36.5 -60.5 -56.5h175v-42h-236v42
c16 20 34.333 39.167 55 57.5s40.167 36.666 58.5 54.999s34 36.833 47 55.5s19.5 38 19.5 58c0 6 -0.833008 12.333 -2.5 19s-4.66699 12.834 -9 18.501s-10.166 10.5 -17.499 14.5s-17 6 -29 6c-17.333 0 -34.833 -5.16699 -52.5 -15.5s-32.167 -22.833 -43.5 -37.5z
M195.997 -24h-65l463 715h65zM496.997 336c13.333 8.66699 27.1641 15.8311 41.4971 21.498s29.5 8.5 45.5 8.5c36 0 63.667 -8 83 -24s29 -39.333 29 -70c0 -14.667 -5.66699 -28.167 -17 -40.5s-24.666 -22.166 -39.999 -29.499
c23.333 -7.33301 41.833 -18.166 55.5 -32.499s20.5 -33.5 20.5 -57.5c0 -15.333 -2.66699 -30 -8 -44s-13.833 -26.5 -25.5 -37.5s-26.334 -19.667 -44.001 -26s-38.834 -9.5 -63.501 -9.5c-23.333 0 -42.166 3.33301 -56.499 10s-29.166 16 -44.499 28l12 40
c14 -11.333 27 -20.5 39 -27.5s28 -10.5 48 -10.5c32.667 0 56.334 7.33301 71.001 22s22 34.667 22 60c0 20 -6.5 35.833 -19.5 47.5s-37.833 17.5 -74.5 17.5h-12v34h15c24.667 0 42.834 5.33301 54.501 16s17.5 25.667 17.5 45c0 14.667 -3.66699 26.5 -11 35.5
s-23 13.5 -47 13.5c-18 0 -33.333 -2.83301 -46 -8.5s-24 -12.5 -34 -20.5z" />
    <glyph glyph-name="minus" unicode="&#x2212;" horiz-adv-x="566" 
d="M490 265v-52h-414v52h414z" />
    <glyph glyph-name="uni2215" unicode="&#x2215;" horiz-adv-x="517" 
d="M60 -24h-65l463 715h65z" />
    </font>
</defs>
</svg>
